<?xml version="1.0" standalone="no"?>
<!DOCTYPE svg PUBLIC "-//W3C//DTD SVG 1.1//EN" "http://www.w3.org/Graphics/SVG/1.1/DTD/svg11.dtd" >
<svg xmlns="http://www.w3.org/2000/svg">
<metadata></metadata>
<defs>
<font id="athena_rubyregular" horiz-adv-x="1400" >
<font-face units-per-em="2048" ascent="1475" descent="-573" />
<missing-glyph horiz-adv-x="500" />
<glyph horiz-adv-x="0" />
<glyph unicode=" "  horiz-adv-x="500" />
<glyph unicode="&#x09;" horiz-adv-x="500" />
<glyph unicode="&#xa0;" horiz-adv-x="500" />
<glyph unicode="," horiz-adv-x="483" d="M203 254q2 10 6.5 12t7.5 2q10 0 30.5 -7t43.5 -15q16 -5 31 -9.5t26 -8.5t18 -8.5t7 -8.5q0 -5 -3 -12l-213 -497q-5 -11 -7 -13.5t-7 -2.5q-8 0 -20.5 3t-24 7t-20 8.5t-8.5 7.5q0 5 5 22z" />
<glyph unicode="." horiz-adv-x="460" d="M110 96q0 31 9.5 54.5t26 40t38.5 25t47 8.5q51 0 85 -32.5t34 -93.5q0 -31 -9.5 -54.5t-26 -40t-38.5 -25t-47 -8.5q-49 0 -84 32.5t-35 93.5z" />
<glyph unicode="/" horiz-adv-x="643" d="M486 1039q7 0 23.5 -13.5t33.5 -27.5q23 -19 36.5 -30t13.5 -18q0 -5 -9 -15q-53 -61 -116.5 -135t-132 -156t-139.5 -167.5t-138.5 -168.5t-129.5 -160t-113 -141q-5 -6 -8 -7.5t-7 -1.5q-6 0 -21.5 13.5t-34.5 28.5q-25 20 -38 29t-13 17q0 6 8 14q53 61 117 136 t133 157t140.5 167.5t139 168.5t129.5 159.5t112 140.5q9 10 14 10z" />
<glyph unicode=":" horiz-adv-x="480" d="M120 96q0 31 9.5 54.5t26 40t38.5 25t47 8.5q51 0 85 -32.5t34 -93.5q0 -31 -9.5 -54.5t-26 -40t-38.5 -25t-47 -8.5q-49 0 -84 32.5t-35 93.5zM120 796q0 31 9.5 54.5t26 40t38.5 25t47 8.5q51 0 85 -32.5t34 -93.5q0 -31 -9.5 -54.5t-26 -40t-38.5 -25t-47 -8.5 q-49 0 -84 32.5t-35 93.5z" />
<glyph unicode="a" horiz-adv-x="1230" d="M602 457q-161 0 -239 -3q-66 -208 -99 -319t-35 -122q-4 -15 -19 -15q-8 0 -24 1t-57 1q-46 0 -64 -1t-26 -1q-6 0 -10 4.5t-4 9.5q0 2 10.5 32.5t29.5 82.5t44.5 122.5t55.5 154t63.5 176.5t66.5 190q103 297 160.5 456t61.5 172q3 12 19 12q6 0 12 -0.5t15 -0.5 t21.5 -0.5t31.5 -0.5q20 0 33 0.5t22 0.5t14.5 0.5t11.5 0.5q16 0 19 -12q4 -13 60 -172.5t159 -456.5q60 -173 110 -311.5t86 -236.5t56 -151.5t20 -57.5q0 -5 -4 -9.5t-10 -4.5q-9 0 -29 1t-68 1t-66 -1t-27 -1q-14 0 -18 15q-2 11 -36 121t-101 321q-40 1 -101 1.5 t-145 0.5zM770 699q-28 86 -49.5 150t-40.5 118t-36.5 103.5t-37.5 105.5h-4q-19 -56 -36 -106t-35 -105t-39 -118.5t-48 -145.5l-29 -88q35 -1 83 -1h111q61 0 108 0.5t80 1.5q-7 20 -13.5 41t-13.5 44z" />
<glyph unicode="A" horiz-adv-x="1230" d="M602 457q-161 0 -239 -3q-66 -208 -99 -319t-35 -122q-4 -15 -19 -15q-8 0 -24 1t-57 1q-46 0 -64 -1t-26 -1q-6 0 -10 4.5t-4 9.5q0 2 10.5 32.5t29.5 82.5t44.5 122.5t55.5 154t63.5 176.5t66.5 190q103 297 160.5 456t61.5 172q3 12 19 12q6 0 12 -0.5t15 -0.5 t21.5 -0.5t31.5 -0.5q20 0 33 0.5t22 0.5t14.5 0.5t11.5 0.5q16 0 19 -12q4 -13 60 -172.5t159 -456.5q60 -173 110 -311.5t86 -236.5t56 -151.5t20 -57.5q0 -5 -4 -9.5t-10 -4.5q-9 0 -29 1t-68 1t-66 -1t-27 -1q-14 0 -18 15q-2 11 -36 121t-101 321q-40 1 -101 1.5 t-145 0.5zM770 699q-28 86 -49.5 150t-40.5 118t-36.5 103.5t-37.5 105.5h-4q-19 -56 -36 -106t-35 -105t-39 -118.5t-48 -145.5l-29 -88q35 -1 83 -1h111q61 0 108 0.5t80 1.5q-7 20 -13.5 41t-13.5 44z" />
<glyph unicode="b" horiz-adv-x="1148" d="M188 1394q0 10 11 12q15 3 48 7.5t74.5 8.5t87.5 7t88 3q228 0 346.5 -89.5t118.5 -257.5q0 -112 -53 -193t-153 -132v-6q75 -20 130 -55.5t91 -83t53.5 -104.5t17.5 -121q0 -73 -22 -140.5t-67 -120.5q-35 -42 -82.5 -71.5t-105 -47.5t-123.5 -26.5t-138 -8.5 q-70 0 -148.5 7t-156.5 20q-19 3 -19 15q0 9 7 185t7 519q0 156 -2 278.5t-4 208t-4 133t-2 53.5zM383 134q32 -5 65 -6.5t61 -1.5q74 0 137.5 12.5t110.5 42.5t74 79t27 123q0 72 -26 124.5t-74 87t-116 51.5t-152 17q-26 0 -54.5 -1.5t-57.5 -5.5q0 -117 0.5 -202 t1 -145.5t1.5 -102t2 -72.5zM378 798q14 -1 28.5 -1.5t31.5 -0.5q66 0 127 13t108.5 43t76 79.5t28.5 121.5q0 108 -67 167.5t-206 59.5q-20 0 -53 -1.5t-70 -5.5q-2 -64 -3 -179t-1 -296z" />
<glyph unicode="B" horiz-adv-x="1148" d="M188 1394q0 10 11 12q15 3 48 7.5t74.5 8.5t87.5 7t88 3q228 0 346.5 -89.5t118.5 -257.5q0 -112 -53 -193t-153 -132v-6q75 -20 130 -55.5t91 -83t53.5 -104.5t17.5 -121q0 -73 -22 -140.5t-67 -120.5q-35 -42 -82.5 -71.5t-105 -47.5t-123.5 -26.5t-138 -8.5 q-70 0 -148.5 7t-156.5 20q-19 3 -19 15q0 9 7 185t7 519q0 156 -2 278.5t-4 208t-4 133t-2 53.5zM383 134q32 -5 65 -6.5t61 -1.5q74 0 137.5 12.5t110.5 42.5t74 79t27 123q0 72 -26 124.5t-74 87t-116 51.5t-152 17q-26 0 -54.5 -1.5t-57.5 -5.5q0 -117 0.5 -202 t1 -145.5t1.5 -102t2 -72.5zM378 798q14 -1 28.5 -1.5t31.5 -0.5q66 0 127 13t108.5 43t76 79.5t28.5 121.5q0 108 -67 167.5t-206 59.5q-20 0 -53 -1.5t-70 -5.5q-2 -64 -3 -179t-1 -296z" />
<glyph unicode="c" horiz-adv-x="1174" d="M783 123q66 0 117.5 10t88 22t57.5 22t27 10q10 0 17 -13q9 -18 17 -38t14 -37t9.5 -28.5t3.5 -14.5q0 -6 -3 -9t-9 -6q-87 -42 -179.5 -56.5t-172.5 -14.5q-144 0 -267 44t-212.5 133t-140.5 223.5t-51 316.5q0 188 54.5 329t149.5 234.5t223 140.5t275 47q73 0 153 -14 t157 -52q6 -3 9 -6t3 -10q0 -3 -5 -17t-12.5 -32.5t-15.5 -38.5t-15 -33q-3 -6 -6.5 -9.5t-9.5 -3.5t-25.5 10t-53 21.5t-81.5 21.5t-111 10q-95 0 -185.5 -30t-160.5 -98t-112.5 -178t-42.5 -271q0 -146 36.5 -255.5t102 -182.5t156.5 -110t201 -37z" />
<glyph unicode="C" horiz-adv-x="1174" d="M783 123q66 0 117.5 10t88 22t57.5 22t27 10q10 0 17 -13q9 -18 17 -38t14 -37t9.5 -28.5t3.5 -14.5q0 -6 -3 -9t-9 -6q-87 -42 -179.5 -56.5t-172.5 -14.5q-144 0 -267 44t-212.5 133t-140.5 223.5t-51 316.5q0 188 54.5 329t149.5 234.5t223 140.5t275 47q73 0 153 -14 t157 -52q6 -3 9 -6t3 -10q0 -3 -5 -17t-12.5 -32.5t-15.5 -38.5t-15 -33q-3 -6 -6.5 -9.5t-9.5 -3.5t-25.5 10t-53 21.5t-81.5 21.5t-111 10q-95 0 -185.5 -30t-160.5 -98t-112.5 -178t-42.5 -271q0 -146 36.5 -255.5t102 -182.5t156.5 -110t201 -37z" />
<glyph unicode="d" horiz-adv-x="1391" d="M186 1394q0 2 2 4.5t10 4.5q17 3 54 8t84.5 9t101 7t103.5 3q172 0 311 -43.5t236.5 -131.5t150 -221t52.5 -312q0 -186 -56 -325.5t-158 -232t-244.5 -139t-315.5 -46.5q-27 0 -65.5 1t-82 4t-88.5 8t-83 13q-7 2 -9.5 4.5t-2.5 4.5q0 11 7 188.5t7 518.5 q0 156 -2 278.5t-5 208t-5 133t-2 53.5zM383 1270q-1 -84 -2 -218.5t-1 -320.5q0 -206 1.5 -355t2.5 -238q39 -6 78.5 -7t67.5 -1q119 0 223.5 29.5t182 97t122.5 176.5t45 268q0 143 -37.5 251t-110.5 180t-179 108.5t-242 36.5h-24t-36.5 -1t-44.5 -2t-46 -4z" />
<glyph unicode="D" horiz-adv-x="1391" d="M186 1394q0 2 2 4.5t10 4.5q17 3 54 8t84.5 9t101 7t103.5 3q172 0 311 -43.5t236.5 -131.5t150 -221t52.5 -312q0 -186 -56 -325.5t-158 -232t-244.5 -139t-315.5 -46.5q-27 0 -65.5 1t-82 4t-88.5 8t-83 13q-7 2 -9.5 4.5t-2.5 4.5q0 11 7 188.5t7 518.5 q0 156 -2 278.5t-5 208t-5 133t-2 53.5zM383 1270q-1 -84 -2 -218.5t-1 -320.5q0 -206 1.5 -355t2.5 -238q39 -6 78.5 -7t67.5 -1q119 0 223.5 29.5t182 97t122.5 176.5t45 268q0 143 -37.5 251t-110.5 180t-179 108.5t-242 36.5h-24t-36.5 -1t-44.5 -2t-46 -4z" />
<glyph unicode="e" horiz-adv-x="1199" d="M783 123q66 0 117.5 10t88 22t57.5 22t27 10q10 0 17 -13q9 -18 17 -38t14 -37t9.5 -28.5t3.5 -14.5q0 -6 -3 -9t-9 -6q-87 -42 -179.5 -56.5t-172.5 -14.5q-144 0 -267 42t-212.5 129.5t-140.5 223t-51 322.5q0 193 54.5 334.5t149.5 234t223 137.5t275 45q73 0 153 -14 t157 -52q6 -3 9 -6t3 -10q0 -3 -5 -17t-12.5 -32.5t-15.5 -38.5t-15 -33q-3 -6 -6.5 -9.5t-9.5 -3.5t-25.5 10t-53 21.5t-81.5 21.5t-111 10q-87 0 -170.5 -23t-152 -78t-115 -145t-60.5 -225q202 0 337.5 1t218 2t119 2t40.5 1q16 0 16 -17q0 -8 -0.5 -23.5t-0.5 -42.5 t0.5 -44t0.5 -23q0 -17 -16 -17q-4 0 -42.5 1t-123 2t-220 2t-333.5 1q6 -138 45 -239t104 -167t154 -98t194 -32z" />
<glyph unicode="E" horiz-adv-x="1199" d="M783 123q66 0 117.5 10t88 22t57.5 22t27 10q10 0 17 -13q9 -18 17 -38t14 -37t9.5 -28.5t3.5 -14.5q0 -6 -3 -9t-9 -6q-87 -42 -179.5 -56.5t-172.5 -14.5q-144 0 -267 42t-212.5 129.5t-140.5 223t-51 322.5q0 193 54.5 334.5t149.5 234t223 137.5t275 45q73 0 153 -14 t157 -52q6 -3 9 -6t3 -10q0 -3 -5 -17t-12.5 -32.5t-15.5 -38.5t-15 -33q-3 -6 -6.5 -9.5t-9.5 -3.5t-25.5 10t-53 21.5t-81.5 21.5t-111 10q-87 0 -170.5 -23t-152 -78t-115 -145t-60.5 -225q202 0 337.5 1t218 2t119 2t40.5 1q16 0 16 -17q0 -8 -0.5 -23.5t-0.5 -42.5 t0.5 -44t0.5 -23q0 -17 -16 -17q-4 0 -42.5 1t-123 2t-220 2t-333.5 1q6 -138 45 -239t104 -167t154 -98t194 -32z" />
<glyph unicode="f" horiz-adv-x="976" d="M186 1394q0 16 17 16q16 0 103 -1t260 -1q73 0 132.5 0.5t103 0.5t69 0.5t29.5 0.5q16 0 16 -17q0 -8 -0.5 -22.5t-0.5 -41.5t0.5 -43t0.5 -22q0 -17 -16 -17q-3 0 -46 1t-113.5 2t-162.5 2t-193 1q-2 -73 -3.5 -182.5t-1.5 -261.5q116 0 202 1t143 2t86.5 2t33.5 1 q16 0 16 -17q0 -8 -0.5 -23.5t-0.5 -42.5t0.5 -44t0.5 -23q0 -17 -16 -17q-8 0 -124.5 2.5t-340.5 3.5q0 -150 2.5 -267t5 -198t4.5 -125.5t2 -49.5q0 -16 -17 -16q-8 0 -30 1t-58 1q-37 0 -56.5 -1t-29.5 -1q-17 0 -17 16q0 11 7 188.5t7 518.5q0 156 -2 278.5t-5 208 t-5 133t-2 53.5z" />
<glyph unicode="F" horiz-adv-x="976" d="M186 1394q0 16 17 16q16 0 103 -1t260 -1q73 0 132.5 0.5t103 0.5t69 0.5t29.5 0.5q16 0 16 -17q0 -8 -0.5 -22.5t-0.5 -41.5t0.5 -43t0.5 -22q0 -17 -16 -17q-3 0 -46 1t-113.5 2t-162.5 2t-193 1q-2 -73 -3.5 -182.5t-1.5 -261.5q116 0 202 1t143 2t86.5 2t33.5 1 q16 0 16 -17q0 -8 -0.5 -23.5t-0.5 -42.5t0.5 -44t0.5 -23q0 -17 -16 -17q-8 0 -124.5 2.5t-340.5 3.5q0 -150 2.5 -267t5 -198t4.5 -125.5t2 -49.5q0 -16 -17 -16q-8 0 -30 1t-58 1q-37 0 -56.5 -1t-29.5 -1q-17 0 -17 16q0 11 7 188.5t7 518.5q0 156 -2 278.5t-5 208 t-5 133t-2 53.5z" />
<glyph unicode="g" horiz-adv-x="1373" d="M1053 655q0 16 17 16q8 0 25.5 -1t52.5 -1q37 0 52.5 1t25.5 1q17 0 17 -16q0 -6 -2 -50t-4 -125t-4 -197.5t-2 -267.5q0 -18 -13 -18q-5 0 -19.5 1.5t-50.5 1.5q-33 0 -46.5 -1.5t-20.5 -1.5q-15 0 -15 19q0 11 0.5 44t0.5 96l-9 1q-59 -100 -155 -143.5t-214 -43.5 q-126 0 -233.5 46t-187 136t-124.5 222t-45 305q0 192 55.5 335t152.5 237t227.5 140.5t280.5 46.5q75 0 159.5 -13.5t167.5 -49.5q7 -3 10 -6t3 -10q0 -3 -5 -17t-12.5 -32.5t-15.5 -38.5t-15 -33q-3 -6 -6.5 -9.5t-9.5 -3.5q-5 0 -25.5 9.5t-56.5 20.5t-86.5 20.5 t-115.5 9.5q-101 0 -195 -29.5t-166 -97.5t-115.5 -180t-43.5 -278q0 -153 36.5 -262.5t95 -179t132.5 -102.5t149 -33q63 0 126.5 24.5t114.5 80t82.5 146t31.5 223.5q0 16 -1 33t-1 25z" />
<glyph unicode="G" horiz-adv-x="1373" d="M1053 655q0 16 17 16q8 0 25.5 -1t52.5 -1q37 0 52.5 1t25.5 1q17 0 17 -16q0 -6 -2 -50t-4 -125t-4 -197.5t-2 -267.5q0 -18 -13 -18q-5 0 -19.5 1.5t-50.5 1.5q-33 0 -46.5 -1.5t-20.5 -1.5q-15 0 -15 19q0 11 0.5 44t0.5 96l-9 1q-59 -100 -155 -143.5t-214 -43.5 q-126 0 -233.5 46t-187 136t-124.5 222t-45 305q0 192 55.5 335t152.5 237t227.5 140.5t280.5 46.5q75 0 159.5 -13.5t167.5 -49.5q7 -3 10 -6t3 -10q0 -3 -5 -17t-12.5 -32.5t-15.5 -38.5t-15 -33q-3 -6 -6.5 -9.5t-9.5 -3.5q-5 0 -25.5 9.5t-56.5 20.5t-86.5 20.5 t-115.5 9.5q-101 0 -195 -29.5t-166 -97.5t-115.5 -180t-43.5 -278q0 -153 36.5 -262.5t95 -179t132.5 -102.5t149 -33q63 0 126.5 24.5t114.5 80t82.5 146t31.5 223.5q0 16 -1 33t-1 25z" />
<glyph unicode="h" horiz-adv-x="1434" d="M186 1394q0 16 17 16q8 0 30 -1t58 -1q37 0 56.5 1t29.5 1q17 0 17 -16q0 -11 -6 -155t-8 -412q100 -3 342 -3q118 0 199.5 1t132.5 2q-1 131 -3 234t-4.5 175.5t-4.5 112.5t-2 45q0 16 17 16q8 0 30 -1t58 -1q37 0 56.5 1t29.5 1q17 0 17 -16q0 -6 -2 -52t-5 -130 t-5 -204.5t-2 -276.5q0 -341 7 -523.5t7 -193.5q0 -16 -17 -16q-8 0 -30 1t-58 1q-37 0 -56.5 -1t-29.5 -1q-17 0 -17 16q0 11 6.5 173.5t7.5 478.5q-101 3 -342 3q-118 0 -200.5 -1t-131.5 -3q1 -312 7.5 -476t6.5 -175q0 -16 -17 -16q-8 0 -30 1t-58 1q-37 0 -56.5 -1 t-29.5 -1q-17 0 -17 16q0 11 7 188.5t7 518.5q0 156 -2 278.5t-5 208t-5 133t-2 53.5z" />
<glyph unicode="H" horiz-adv-x="1434" d="M186 1394q0 16 17 16q8 0 30 -1t58 -1q37 0 56.5 1t29.5 1q17 0 17 -16q0 -11 -6 -155t-8 -412q100 -3 342 -3q118 0 199.5 1t132.5 2q-1 131 -3 234t-4.5 175.5t-4.5 112.5t-2 45q0 16 17 16q8 0 30 -1t58 -1q37 0 56.5 1t29.5 1q17 0 17 -16q0 -6 -2 -52t-5 -130 t-5 -204.5t-2 -276.5q0 -341 7 -523.5t7 -193.5q0 -16 -17 -16q-8 0 -30 1t-58 1q-37 0 -56.5 -1t-29.5 -1q-17 0 -17 16q0 11 6.5 173.5t7.5 478.5q-101 3 -342 3q-118 0 -200.5 -1t-131.5 -3q1 -312 7.5 -476t6.5 -175q0 -16 -17 -16q-8 0 -30 1t-58 1q-37 0 -56.5 -1 t-29.5 -1q-17 0 -17 16q0 11 7 188.5t7 518.5q0 156 -2 278.5t-5 208t-5 133t-2 53.5z" />
<glyph unicode="i" horiz-adv-x="580" d="M186 1394q0 16 17 16q8 0 30 -1t58 -1q37 0 56.5 1t29.5 1q17 0 17 -16q0 -6 -2 -52t-5 -130t-5 -204.5t-2 -276.5q0 -341 7 -523.5t7 -193.5q0 -16 -17 -16q-8 0 -30 1t-58 1q-37 0 -56.5 -1t-29.5 -1q-17 0 -17 16q0 11 7 188.5t7 518.5q0 156 -2 278.5t-5 208t-5 133 t-2 53.5z" />
<glyph unicode="I" horiz-adv-x="580" d="M186 1394q0 16 17 16q8 0 30 -1t58 -1q37 0 56.5 1t29.5 1q17 0 17 -16q0 -6 -2 -52t-5 -130t-5 -204.5t-2 -276.5q0 -341 7 -523.5t7 -193.5q0 -16 -17 -16q-8 0 -30 1t-58 1q-37 0 -56.5 -1t-29.5 -1q-17 0 -17 16q0 11 7 188.5t7 518.5q0 156 -2 278.5t-5 208t-5 133 t-2 53.5z" />
<glyph unicode="j" horiz-adv-x="885" d="M610 1408q37 0 56 1t29 1q17 0 17 -16q0 -12 -2 -71.5t-5 -154.5t-5 -219.5t-2 -267.5q0 -78 0.5 -133t0.5 -77q0 -106 -21 -197.5t-66 -159t-116.5 -106t-173.5 -38.5q-81 0 -158.5 27t-133.5 79q-7 7 -8.5 9.5t-1.5 7.5t8.5 21t19.5 34t22 34.5t17 23.5q8 10 15 10 q3 0 21 -13t47 -29t66.5 -29t79.5 -13q73 0 114.5 35t61.5 96t24.5 144.5t4.5 179.5q0 215 -2.5 364.5t-5 244.5t-5 141.5t-2.5 56.5q0 16 17 16q8 0 29.5 -1t57.5 -1z" />
<glyph unicode="J" horiz-adv-x="885" d="M610 1408q37 0 56 1t29 1q17 0 17 -16q0 -12 -2 -71.5t-5 -154.5t-5 -219.5t-2 -267.5q0 -78 0.5 -133t0.5 -77q0 -106 -21 -197.5t-66 -159t-116.5 -106t-173.5 -38.5q-81 0 -158.5 27t-133.5 79q-7 7 -8.5 9.5t-1.5 7.5t8.5 21t19.5 34t22 34.5t17 23.5q8 10 15 10 q3 0 21 -13t47 -29t66.5 -29t79.5 -13q73 0 114.5 35t61.5 96t24.5 144.5t4.5 179.5q0 215 -2.5 364.5t-5 244.5t-5 141.5t-2.5 56.5q0 16 17 16q8 0 29.5 -1t57.5 -1z" />
<glyph unicode="k" horiz-adv-x="1203" d="M186 1394q0 16 17 16q8 0 30 -1t58 -1q37 0 56.5 1t29.5 1q17 0 17 -16q0 -6 -2 -52t-5 -130t-5 -204.5t-2 -276.5q97 118 172 210.5t130.5 163.5t94.5 122t64.5 85.5t39 54t19.5 28.5q5 8 10.5 11.5t16.5 3.5q4 0 7.5 -0.5t11.5 -0.5t23 -0.5t43 -0.5q54 0 80.5 1 t30.5 1q9 0 12 -4t3 -9q0 -6 -29.5 -39t-94.5 -108.5t-169.5 -201t-254.5 -316.5q121 -149 212 -259.5t157.5 -189t110.5 -129.5t70 -81.5t37 -44t11 -17.5q0 -5 -3 -9t-12 -4q-4 0 -32 1t-82 1q-28 0 -46 -0.5t-29.5 -0.5t-18.5 -0.5t-11 -0.5q-11 0 -16.5 3.5t-10.5 11.5 q-9 13 -44 61t-101 133t-165.5 209t-236.5 290q0 -331 7 -506t7 -186q0 -16 -17 -16q-8 0 -30 1t-58 1q-37 0 -56.5 -1t-29.5 -1q-17 0 -17 16q0 11 7 188.5t7 518.5q0 156 -2 278.5t-5 208t-5 133t-2 53.5z" />
<glyph unicode="K" horiz-adv-x="1203" d="M186 1394q0 16 17 16q8 0 30 -1t58 -1q37 0 56.5 1t29.5 1q17 0 17 -16q0 -6 -2 -52t-5 -130t-5 -204.5t-2 -276.5q97 118 172 210.5t130.5 163.5t94.5 122t64.5 85.5t39 54t19.5 28.5q5 8 10.5 11.5t16.5 3.5q4 0 7.5 -0.5t11.5 -0.5t23 -0.5t43 -0.5q54 0 80.5 1 t30.5 1q9 0 12 -4t3 -9q0 -6 -29.5 -39t-94.5 -108.5t-169.5 -201t-254.5 -316.5q121 -149 212 -259.5t157.5 -189t110.5 -129.5t70 -81.5t37 -44t11 -17.5q0 -5 -3 -9t-12 -4q-4 0 -32 1t-82 1q-28 0 -46 -0.5t-29.5 -0.5t-18.5 -0.5t-11 -0.5q-11 0 -16.5 3.5t-10.5 11.5 q-9 13 -44 61t-101 133t-165.5 209t-236.5 290q0 -331 7 -506t7 -186q0 -16 -17 -16q-8 0 -30 1t-58 1q-37 0 -56.5 -1t-29.5 -1q-17 0 -17 16q0 11 7 188.5t7 518.5q0 156 -2 278.5t-5 208t-5 133t-2 53.5z" />
<glyph unicode="l" horiz-adv-x="949" d="M908 -2q-4 0 -29.5 0.5t-69.5 0.5t-105 0.5t-134 0.5q-176 0 -263.5 -1t-103.5 -1q-17 0 -17 16q0 11 7 188.5t7 518.5q0 156 -2 278.5t-5 208t-5 133t-2 53.5q0 16 17 16q8 0 30 -1t58 -1q37 0 56.5 1t29.5 1q17 0 17 -16q0 -6 -2 -52t-5 -130t-5 -204.5t-2 -276.5 q0 -199 0.5 -341.5t3.5 -232.5q105 0 199 1t165 2t114 2t46 1q16 0 16 -17q0 -6 -0.5 -22.5t-0.5 -43.5t0.5 -42t0.5 -23q0 -17 -16 -17z" />
<glyph unicode="L" horiz-adv-x="949" d="M908 -2q-4 0 -29.5 0.5t-69.5 0.5t-105 0.5t-134 0.5q-176 0 -263.5 -1t-103.5 -1q-17 0 -17 16q0 11 7 188.5t7 518.5q0 156 -2 278.5t-5 208t-5 133t-2 53.5q0 16 17 16q8 0 30 -1t58 -1q37 0 56.5 1t29.5 1q17 0 17 -16q0 -6 -2 -52t-5 -130t-5 -204.5t-2 -276.5 q0 -199 0.5 -341.5t3.5 -232.5q105 0 199 1t165 2t114 2t46 1q16 0 16 -17q0 -6 -0.5 -22.5t-0.5 -43.5t0.5 -42t0.5 -23q0 -17 -16 -17z" />
<glyph unicode="m" horiz-adv-x="1722" d="M810 321q-8 0 -12.5 4t-9.5 13q-9 16 -26.5 46.5t-49 83.5t-80 134t-118.5 199q-17 28 -35.5 59t-37.5 61.5t-37 59.5t-34 53l-5 -2v-301q0 -341 7 -523.5t7 -193.5q0 -16 -17 -16q-8 0 -28 1t-52 1q-34 0 -52 -1t-27 -1q-17 0 -17 16q0 11 7 188.5t7 518.5 q0 156 -2 278.5t-5 208t-5 133t-2 53.5q0 16 17 16q8 0 25 -1t49 -1q34 0 50.5 1t26.5 1q4 0 7.5 -4t13 -20t27 -48t49.5 -88.5t81 -141.5t121 -206q26 -43 55.5 -91.5t58.5 -96.5t56 -91.5t48 -77.5q38 67 83 146t100 173q75 130 126.5 221t85 151.5t52 95.5t28.5 52 t14 21.5t8 4.5q10 0 26.5 -1t50.5 -1q32 0 49 1t25 1q17 0 17 -16q0 -6 -2 -53.5t-5 -133t-5 -208t-2 -278.5q0 -341 7 -518.5t7 -188.5q0 -16 -17 -16q-10 0 -29 1t-55 1q-35 0 -56 -1t-29 -1q-17 0 -17 16q0 11 7 193.5t7 523.5v307l-4 2q-19 -33 -40 -69.5t-42 -73.5 t-41.5 -72.5t-38.5 -65.5q-66 -112 -109 -186.5t-70 -122.5t-41.5 -74.5t-22.5 -41.5q-5 -8 -8.5 -10.5t-11.5 -2.5q-7 0 -19.5 0.5t-35.5 0.5q-24 0 -36 -0.5t-17 -0.5z" />
<glyph unicode="M" horiz-adv-x="1722" d="M810 321q-8 0 -12.5 4t-9.5 13q-9 16 -26.5 46.5t-49 83.5t-80 134t-118.5 199q-17 28 -35.5 59t-37.5 61.5t-37 59.5t-34 53l-5 -2v-301q0 -341 7 -523.5t7 -193.5q0 -16 -17 -16q-8 0 -28 1t-52 1q-34 0 -52 -1t-27 -1q-17 0 -17 16q0 11 7 188.5t7 518.5 q0 156 -2 278.5t-5 208t-5 133t-2 53.5q0 16 17 16q8 0 25 -1t49 -1q34 0 50.5 1t26.5 1q4 0 7.5 -4t13 -20t27 -48t49.5 -88.5t81 -141.5t121 -206q26 -43 55.5 -91.5t58.5 -96.5t56 -91.5t48 -77.5q38 67 83 146t100 173q75 130 126.5 221t85 151.5t52 95.5t28.5 52 t14 21.5t8 4.5q10 0 26.5 -1t50.5 -1q32 0 49 1t25 1q17 0 17 -16q0 -6 -2 -53.5t-5 -133t-5 -208t-2 -278.5q0 -341 7 -518.5t7 -188.5q0 -16 -17 -16q-10 0 -29 1t-55 1q-35 0 -56 -1t-29 -1q-17 0 -17 16q0 11 7 193.5t7 523.5v307l-4 2q-19 -33 -40 -69.5t-42 -73.5 t-41.5 -72.5t-38.5 -65.5q-66 -112 -109 -186.5t-70 -122.5t-41.5 -74.5t-22.5 -41.5q-5 -8 -8.5 -10.5t-11.5 -2.5q-7 0 -19.5 0.5t-35.5 0.5q-24 0 -36 -0.5t-17 -0.5z" />
<glyph unicode="n" horiz-adv-x="1452" d="M1073 1394q0 16 17 16q8 0 28 -1t52 -1q34 0 52 1t27 1q17 0 17 -16q0 -6 -2 -52t-5 -130t-5 -204.5t-2 -276.5q0 -341 7 -523.5t7 -193.5q0 -16 -17 -16q-8 0 -25 1t-49 1t-49.5 -1t-30.5 -1q-5 0 -10 5.5t-18.5 27.5t-40 65t-75 118t-123.5 187t-185 271 q-85 125 -152.5 227t-120.5 181l-5 -2v-347q0 -341 7 -523.5t7 -193.5q0 -16 -17 -16q-8 0 -28 1t-52 1q-34 0 -52 -1t-27 -1q-17 0 -17 16q0 11 7 188.5t7 518.5q0 156 -2 278.5t-5 208t-5 133t-2 53.5q0 16 17 16q8 0 25 -1t49 -1q34 0 50.5 1t26.5 1q6 0 11 -5t18 -25 t38.5 -60.5t71 -110.5t116 -175.5t173.5 -255.5q96 -139 170 -250t130 -192l4 2q1 78 1 171.5v211.5q0 156 -2 278.5t-5 208t-5 133t-2 53.5z" />
<glyph unicode="N" horiz-adv-x="1452" d="M1073 1394q0 16 17 16q8 0 28 -1t52 -1q34 0 52 1t27 1q17 0 17 -16q0 -6 -2 -52t-5 -130t-5 -204.5t-2 -276.5q0 -341 7 -523.5t7 -193.5q0 -16 -17 -16q-8 0 -25 1t-49 1t-49.5 -1t-30.5 -1q-5 0 -10 5.5t-18.5 27.5t-40 65t-75 118t-123.5 187t-185 271 q-85 125 -152.5 227t-120.5 181l-5 -2v-347q0 -341 7 -523.5t7 -193.5q0 -16 -17 -16q-8 0 -28 1t-52 1q-34 0 -52 -1t-27 -1q-17 0 -17 16q0 11 7 188.5t7 518.5q0 156 -2 278.5t-5 208t-5 133t-2 53.5q0 16 17 16q8 0 25 -1t49 -1q34 0 50.5 1t26.5 1q6 0 11 -5t18 -25 t38.5 -60.5t71 -110.5t116 -175.5t173.5 -255.5q96 -139 170 -250t130 -192l4 2q1 78 1 171.5v211.5q0 156 -2 278.5t-5 208t-5 133t-2 53.5z" />
<glyph unicode="o" horiz-adv-x="1466" d="M287 711q0 -141 36 -250.5t97.5 -184.5t143.5 -114t173 -39q90 0 170 38.5t140 112t95.5 180t35.5 243.5q0 141 -36.5 250.5t-98 184.5t-143.5 114t-173 39q-90 0 -170 -38.5t-140 -112t-95 -180t-35 -243.5zM99 696q0 177 51 315t138.5 233t204 144.5t246.5 49.5 q128 0 242 -48.5t199.5 -141.5t135.5 -228t50 -308q0 -177 -51.5 -315t-139 -233t-203.5 -144.5t-246 -49.5q-128 0 -242 48.5t-199.5 141.5t-135.5 228t-50 308z" />
<glyph unicode="O" horiz-adv-x="1466" d="M287 711q0 -141 36 -250.5t97.5 -184.5t143.5 -114t173 -39q90 0 170 38.5t140 112t95.5 180t35.5 243.5q0 141 -36.5 250.5t-98 184.5t-143.5 114t-173 39q-90 0 -170 -38.5t-140 -112t-95 -180t-35 -243.5zM99 696q0 177 51 315t138.5 233t204 144.5t246.5 49.5 q128 0 242 -48.5t199.5 -141.5t135.5 -228t50 -308q0 -177 -51.5 -315t-139 -233t-203.5 -144.5t-246 -49.5q-128 0 -242 48.5t-199.5 141.5t-135.5 228t-50 308z" />
<glyph unicode="p" horiz-adv-x="1094" d="M188 1392q0 2 2 5t9 5q16 4 50.5 9t78.5 9.5t94.5 8t99.5 3.5q121 0 215 -28t159 -83t99 -137t34 -190q0 -119 -40.5 -207.5t-112 -147t-170 -87.5t-214.5 -29q-30 0 -56.5 1t-55.5 3q2 -245 8 -374.5t6 -138.5q0 -16 -17 -16q-8 0 -30 1t-58 1q-37 0 -56.5 -1t-29.5 -1 q-17 0 -17 16q0 11 7 189t7 521q0 156 -2 277.5t-4 206.5t-4 131.5t-2 52.5zM380 677q25 -2 47.5 -2.5t45.5 -0.5q79 0 147 15.5t118 51.5t78.5 94.5t28.5 145.5q0 141 -82 219.5t-248 78.5q-6 0 -20 -0.5t-32 -1.5t-38.5 -2.5t-39.5 -4.5q-1 -41 -2 -95.5t-1.5 -127 t-1 -164t-0.5 -206.5z" />
<glyph unicode="P" horiz-adv-x="1094" d="M188 1392q0 2 2 5t9 5q16 4 50.5 9t78.5 9.5t94.5 8t99.5 3.5q121 0 215 -28t159 -83t99 -137t34 -190q0 -119 -40.5 -207.5t-112 -147t-170 -87.5t-214.5 -29q-30 0 -56.5 1t-55.5 3q2 -245 8 -374.5t6 -138.5q0 -16 -17 -16q-8 0 -30 1t-58 1q-37 0 -56.5 -1t-29.5 -1 q-17 0 -17 16q0 11 7 189t7 521q0 156 -2 277.5t-4 206.5t-4 131.5t-2 52.5zM380 677q25 -2 47.5 -2.5t45.5 -0.5q79 0 147 15.5t118 51.5t78.5 94.5t28.5 145.5q0 141 -82 219.5t-248 78.5q-6 0 -20 -0.5t-32 -1.5t-38.5 -2.5t-39.5 -4.5q-1 -41 -2 -95.5t-1.5 -127 t-1 -164t-0.5 -206.5z" />
<glyph unicode="q" horiz-adv-x="1466" d="M1370 -20q6 -6 6 -12q0 -5 -3 -9t-10 -10t-18 -15t-27 -23q-17 -15 -27.5 -25t-17 -15.5t-10 -7.5t-6.5 -2q-6 0 -13 9q-3 4 -44.5 54.5t-131.5 154.5q-75 -53 -161.5 -81t-180.5 -28q-128 0 -242 48.5t-199.5 141.5t-135.5 228t-50 308q0 177 51 315t138.5 233 t204 144.5t246.5 49.5q128 0 242 -48.5t199.5 -141.5t135.5 -228t50 -308q0 -172 -49.5 -303t-133.5 -225q92 -104 138 -152.5t49 -51.5zM773 407q-6 6 -6 12q0 5 3 9t10 10t18 15t27 23q17 15 27.5 25t17 15.5t10 7.5t6.5 2q5 0 13 -9q2 -4 44 -55.5t132 -154.5 q46 66 74.5 161.5t28.5 228.5q0 141 -36.5 250.5t-98 184.5t-143.5 114t-173 39q-90 0 -170 -38.5t-140 -112t-95 -180t-35 -243.5q0 -141 36 -250.5t97.5 -184.5t143.5 -114t173 -39q56 0 114.5 18t112.5 57q-95 107 -142 156.5t-49 52.5z" />
<glyph unicode="Q" horiz-adv-x="1466" d="M1370 -20q6 -6 6 -12q0 -5 -3 -9t-10 -10t-18 -15t-27 -23q-17 -15 -27.5 -25t-17 -15.5t-10 -7.5t-6.5 -2q-6 0 -13 9q-3 4 -44.5 54.5t-131.5 154.5q-75 -53 -161.5 -81t-180.5 -28q-128 0 -242 48.5t-199.5 141.5t-135.5 228t-50 308q0 177 51 315t138.5 233 t204 144.5t246.5 49.5q128 0 242 -48.5t199.5 -141.5t135.5 -228t50 -308q0 -172 -49.5 -303t-133.5 -225q92 -104 138 -152.5t49 -51.5zM773 407q-6 6 -6 12q0 5 3 9t10 10t18 15t27 23q17 15 27.5 25t17 15.5t10 7.5t6.5 2q5 0 13 -9q2 -4 44 -55.5t132 -154.5 q46 66 74.5 161.5t28.5 228.5q0 141 -36.5 250.5t-98 184.5t-143.5 114t-173 39q-90 0 -170 -38.5t-140 -112t-95 -180t-35 -243.5q0 -141 36 -250.5t97.5 -184.5t143.5 -114t173 -39q56 0 114.5 18t112.5 57q-95 107 -142 156.5t-49 52.5z" />
<glyph unicode="r" horiz-adv-x="1151" d="M188 1392q0 2 2 5t9 5q15 4 48.5 9t76.5 9.5t92 8t94 3.5q113 0 201 -26.5t149 -77.5t92.5 -124.5t31.5 -167.5q0 -75 -18 -137t-51 -111t-80 -85t-104 -60q78 -145 143.5 -260.5t112.5 -196.5t73 -126t26 -48q0 -5 -4 -9.5t-10 -4.5q-9 0 -29 1t-68 1q-41 0 -59 -1 t-27 -1q-12 0 -17.5 3t-9.5 11q-5 12 -77.5 160.5t-220.5 427.5q-50 -6 -103 -6h-40.5t-40.5 2q1 -150 3.5 -258t4.5 -178.5t4 -106t2 -39.5q0 -16 -17 -16q-8 0 -30 1t-58 1q-37 0 -56.5 -1t-29.5 -1q-17 0 -17 16q0 11 7 189t7 521q0 156 -2 277.5t-4 206.5t-4 131.5 t-2 52.5zM380 741q14 -1 36.5 -1.5t36.5 -0.5q70 0 133 14.5t110.5 47.5t75.5 85.5t28 128.5q0 58 -17.5 106.5t-53.5 83.5t-91 55t-129 20q-6 0 -19.5 -0.5t-31 -1.5t-37 -2.5t-36.5 -3.5q-1 -37 -2 -85t-1.5 -112t-1 -146.5t-0.5 -187.5z" />
<glyph unicode="R" horiz-adv-x="1151" d="M188 1392q0 2 2 5t9 5q15 4 48.5 9t76.5 9.5t92 8t94 3.5q113 0 201 -26.5t149 -77.5t92.5 -124.5t31.5 -167.5q0 -75 -18 -137t-51 -111t-80 -85t-104 -60q78 -145 143.5 -260.5t112.5 -196.5t73 -126t26 -48q0 -5 -4 -9.5t-10 -4.5q-9 0 -29 1t-68 1q-41 0 -59 -1 t-27 -1q-12 0 -17.5 3t-9.5 11q-5 12 -77.5 160.5t-220.5 427.5q-50 -6 -103 -6h-40.5t-40.5 2q1 -150 3.5 -258t4.5 -178.5t4 -106t2 -39.5q0 -16 -17 -16q-8 0 -30 1t-58 1q-37 0 -56.5 -1t-29.5 -1q-17 0 -17 16q0 11 7 189t7 521q0 156 -2 277.5t-4 206.5t-4 131.5 t-2 52.5zM380 741q14 -1 36.5 -1.5t36.5 -0.5q70 0 133 14.5t110.5 47.5t75.5 85.5t28 128.5q0 58 -17.5 106.5t-53.5 83.5t-91 55t-129 20q-6 0 -19.5 -0.5t-31 -1.5t-37 -2.5t-36.5 -3.5q-1 -37 -2 -85t-1.5 -112t-1 -146.5t-0.5 -187.5z" />
<glyph unicode="s" horiz-adv-x="951" d="M146 220q4 0 27.5 -15.5t61.5 -33.5t88.5 -33.5t109.5 -15.5q60 0 108 17.5t81.5 48.5t51.5 74.5t18 95.5q0 57 -20.5 100t-56 78.5t-83 65.5t-101.5 61q-57 33 -115 69.5t-105.5 84.5t-77.5 111t-30 148q0 79 28.5 145.5t81 114.5t128 75t170.5 27q84 0 158.5 -17 t130.5 -48q12 -7 12 -15q0 -3 -5 -17t-12.5 -32.5t-16 -38t-15.5 -32.5q-3 -6 -6.5 -9.5t-9.5 -3.5q-4 0 -23 9.5t-50 21t-73 21t-93 9.5q-63 0 -106.5 -15.5t-71 -41.5t-40 -60.5t-12.5 -71.5q0 -54 22 -95.5t58.5 -76t84.5 -64t99 -59.5q59 -35 118 -73t106 -87.5t76 -114 t29 -151.5q0 -94 -34 -169t-93.5 -128t-140.5 -81.5t-174 -28.5q-94 0 -181.5 26.5t-153.5 69.5q-8 5 -11 9t-3 10q0 3 5.5 18t13 33.5t16 38t15.5 33.5q6 13 16 13z" />
<glyph unicode="S" horiz-adv-x="951" d="M146 220q4 0 27.5 -15.5t61.5 -33.5t88.5 -33.5t109.5 -15.5q60 0 108 17.5t81.5 48.5t51.5 74.5t18 95.5q0 57 -20.5 100t-56 78.5t-83 65.5t-101.5 61q-57 33 -115 69.5t-105.5 84.5t-77.5 111t-30 148q0 79 28.5 145.5t81 114.5t128 75t170.5 27q84 0 158.5 -17 t130.5 -48q12 -7 12 -15q0 -3 -5 -17t-12.5 -32.5t-16 -38t-15.5 -32.5q-3 -6 -6.5 -9.5t-9.5 -3.5q-4 0 -23 9.5t-50 21t-73 21t-93 9.5q-63 0 -106.5 -15.5t-71 -41.5t-40 -60.5t-12.5 -71.5q0 -54 22 -95.5t58.5 -76t84.5 -64t99 -59.5q59 -35 118 -73t106 -87.5t76 -114 t29 -151.5q0 -94 -34 -169t-93.5 -128t-140.5 -81.5t-174 -28.5q-94 0 -181.5 26.5t-153.5 69.5q-8 5 -11 9t-3 10q0 3 5.5 18t13 33.5t16 38t15.5 33.5q6 13 16 13z" />
<glyph unicode="t" horiz-adv-x="1092" d="M546 1406q137 0 231.5 0.5t154 1.5t87.5 1.5t32 0.5q16 0 16 -17q0 -8 -0.5 -22.5t-0.5 -41.5t0.5 -43t0.5 -22q0 -17 -16 -17q-2 0 -35.5 1t-89.5 2t-129.5 2t-156.5 1q-2 -85 -3 -215t-1 -307q0 -341 7 -523.5t7 -193.5q0 -16 -17 -16q-8 0 -30 1t-58 1q-37 0 -56.5 -1 t-29.5 -1q-17 0 -17 16q0 11 7 188.5t7 518.5q0 179 -1 312.5t-3 219.5q-86 0 -160.5 -1t-129.5 -2t-87 -2t-34 -1q-16 0 -16 17q0 6 0.5 22t0.5 43t-0.5 41.5t-0.5 22.5q0 17 16 17q4 0 32 -0.5t87.5 -1.5t154 -1.5t231.5 -0.5z" />
<glyph unicode="T" horiz-adv-x="1092" d="M546 1406q137 0 231.5 0.5t154 1.5t87.5 1.5t32 0.5q16 0 16 -17q0 -8 -0.5 -22.5t-0.5 -41.5t0.5 -43t0.5 -22q0 -17 -16 -17q-2 0 -35.5 1t-89.5 2t-129.5 2t-156.5 1q-2 -85 -3 -215t-1 -307q0 -341 7 -523.5t7 -193.5q0 -16 -17 -16q-8 0 -30 1t-58 1q-37 0 -56.5 -1 t-29.5 -1q-17 0 -17 16q0 11 7 188.5t7 518.5q0 179 -1 312.5t-3 219.5q-86 0 -160.5 -1t-129.5 -2t-87 -2t-34 -1q-16 0 -16 17q0 6 0.5 22t0.5 43t-0.5 41.5t-0.5 22.5q0 17 16 17q4 0 32 -0.5t87.5 -1.5t154 -1.5t231.5 -0.5z" />
<glyph unicode="u" horiz-adv-x="1390" d="M1033 567q0 20 0.5 64.5t0.5 119.5q0 140 -2 256.5t-5 201t-5 133t-2 52.5q0 16 17 16q8 0 28.5 -1t54.5 -1q35 0 53.5 1t27.5 1q17 0 17 -16q0 -4 -2 -50.5t-5 -129t-5 -197t-2 -254.5q0 -75 0.5 -124.5t0.5 -70.5q0 -153 -41 -265.5t-111 -186.5t-164 -110t-199 -36 q-104 0 -196 35.5t-160.5 107.5t-108.5 182t-40 259q0 21 0.5 74t0.5 128q0 138 -2 253.5t-5 199.5t-5 132.5t-2 52.5q0 16 17 16q8 0 30 -1t58 -1q37 0 56.5 1t29.5 1q17 0 17 -16q0 -5 -2 -51t-5 -127.5t-5 -195.5t-2 -253q0 -75 0.5 -127.5t0.5 -72.5q0 -116 26.5 -200 t71.5 -138t105.5 -80t129.5 -26t129.5 26t106 80.5t71.5 138.5t26 199z" />
<glyph unicode="U" horiz-adv-x="1390" d="M1033 567q0 20 0.5 64.5t0.5 119.5q0 140 -2 256.5t-5 201t-5 133t-2 52.5q0 16 17 16q8 0 28.5 -1t54.5 -1q35 0 53.5 1t27.5 1q17 0 17 -16q0 -4 -2 -50.5t-5 -129t-5 -197t-2 -254.5q0 -75 0.5 -124.5t0.5 -70.5q0 -153 -41 -265.5t-111 -186.5t-164 -110t-199 -36 q-104 0 -196 35.5t-160.5 107.5t-108.5 182t-40 259q0 21 0.5 74t0.5 128q0 138 -2 253.5t-5 199.5t-5 132.5t-2 52.5q0 16 17 16q8 0 30 -1t58 -1q37 0 56.5 1t29.5 1q17 0 17 -16q0 -5 -2 -51t-5 -127.5t-5 -195.5t-2 -253q0 -75 0.5 -127.5t0.5 -72.5q0 -116 26.5 -200 t71.5 -138t105.5 -80t129.5 -26t129.5 26t106 80.5t71.5 138.5t26 199z" />
<glyph unicode="v" horiz-adv-x="1215" d="M607 0q-20 0 -33 -0.5t-22 -0.5t-14.5 -0.5t-11.5 -0.5q-15 0 -18 12q-4 13 -58.5 172.5t-154.5 456.5q-58 173 -106 311.5t-83 236.5t-54.5 151.5t-19.5 57.5q0 5 4 9.5t10 4.5q9 0 29 -1t68 -1t66 1t27 1q14 0 18 -15q3 -14 53.5 -186.5t152.5 -499.5 q27 -86 47.5 -150.5t38.5 -118.5t35 -103t36 -105h4q18 55 34.5 105.5t34 105.5t37.5 118.5t46 145.5q103 327 152.5 500.5t52.5 187.5q4 15 19 15q8 0 24 -1t57 -1q46 0 64 1t26 1q6 0 10 -4.5t4 -9.5q0 -3 -10.5 -33t-28.5 -82t-43 -122.5t-54 -154t-61 -176.5t-64 -190 q-100 -297 -156 -456t-60 -172q-3 -12 -18 -12q-12 0 -27.5 1t-52.5 1z" />
<glyph unicode="V" horiz-adv-x="1215" d="M607 0q-20 0 -33 -0.5t-22 -0.5t-14.5 -0.5t-11.5 -0.5q-15 0 -18 12q-4 13 -58.5 172.5t-154.5 456.5q-58 173 -106 311.5t-83 236.5t-54.5 151.5t-19.5 57.5q0 5 4 9.5t10 4.5q9 0 29 -1t68 -1t66 1t27 1q14 0 18 -15q3 -14 53.5 -186.5t152.5 -499.5 q27 -86 47.5 -150.5t38.5 -118.5t35 -103t36 -105h4q18 55 34.5 105.5t34 105.5t37.5 118.5t46 145.5q103 327 152.5 500.5t52.5 187.5q4 15 19 15q8 0 24 -1t57 -1q46 0 64 1t26 1q6 0 10 -4.5t4 -9.5q0 -3 -10.5 -33t-28.5 -82t-43 -122.5t-54 -154t-61 -176.5t-64 -190 q-100 -297 -156 -456t-60 -172q-3 -12 -18 -12q-12 0 -27.5 1t-52.5 1z" />
<glyph unicode="w" horiz-adv-x="1851" d="M924 1108q-21 -100 -50 -221t-61 -249q-74 -297 -115 -456t-44 -172q-2 -12 -18 -12q-13 0 -29.5 1t-56.5 1q-21 0 -34.5 -0.5t-23 -0.5t-15.5 -0.5t-12 -0.5q-16 0 -18 12q-3 13 -46.5 172.5t-121.5 456.5q-46 173 -84 311.5t-65.5 236.5t-42.5 151.5t-15 57.5 q0 5 4 9.5t10 4.5q9 0 28 -1t67 -1t66 1t27 1q14 0 18 -15q2 -14 39.5 -185.5t112.5 -500.5l35 -150.5t28.5 -118.5t26 -103t26.5 -105h4q13 55 25.5 105.5t25 105t27.5 118t34 145.5q75 327 111.5 501t38.5 188q4 15 19 15q6 0 22 -1t62 -1q27 0 43.5 0.5t27 0.5t15.5 0.5 t9 0.5q14 0 18 -15q2 -14 39.5 -185.5t112.5 -500.5l35 -150.5t28.5 -118.5t26 -103t26.5 -105h4q13 55 25.5 105.5t25 105t27.5 118t34 145.5q75 327 111.5 501t38.5 188q4 15 19 15q8 0 24 -1t57 -1q23 0 38 0.5t24.5 0.5t15.5 0.5t10 0.5q6 0 10 -4.5t4 -9.5q0 -3 -8 -33 t-22 -82t-33.5 -122.5t-42.5 -154t-48 -176.5t-51 -190q-79 -297 -123.5 -456t-47.5 -172q-2 -12 -18 -12q-6 0 -12.5 0.5t-16 0.5t-22.5 0.5t-33 0.5q-42 0 -58.5 -1t-28.5 -1q-16 0 -18 12q-3 13 -43 172.5t-113 456.5q-35 140 -62.5 255.5t-48.5 213.5h-4z" />
<glyph unicode="W" horiz-adv-x="1851" d="M924 1108q-21 -100 -50 -221t-61 -249q-74 -297 -115 -456t-44 -172q-2 -12 -18 -12q-13 0 -29.5 1t-56.5 1q-21 0 -34.5 -0.5t-23 -0.5t-15.5 -0.5t-12 -0.5q-16 0 -18 12q-3 13 -46.5 172.5t-121.5 456.5q-46 173 -84 311.5t-65.5 236.5t-42.5 151.5t-15 57.5 q0 5 4 9.5t10 4.5q9 0 28 -1t67 -1t66 1t27 1q14 0 18 -15q2 -14 39.5 -185.5t112.5 -500.5l35 -150.5t28.5 -118.5t26 -103t26.5 -105h4q13 55 25.5 105.5t25 105t27.5 118t34 145.5q75 327 111.5 501t38.5 188q4 15 19 15q6 0 22 -1t62 -1q27 0 43.5 0.5t27 0.5t15.5 0.5 t9 0.5q14 0 18 -15q2 -14 39.5 -185.5t112.5 -500.5l35 -150.5t28.5 -118.5t26 -103t26.5 -105h4q13 55 25.5 105.5t25 105t27.5 118t34 145.5q75 327 111.5 501t38.5 188q4 15 19 15q8 0 24 -1t57 -1q23 0 38 0.5t24.5 0.5t15.5 0.5t10 0.5q6 0 10 -4.5t4 -9.5q0 -3 -8 -33 t-22 -82t-33.5 -122.5t-42.5 -154t-48 -176.5t-51 -190q-79 -297 -123.5 -456t-47.5 -172q-2 -12 -18 -12q-6 0 -12.5 0.5t-16 0.5t-22.5 0.5t-33 0.5q-42 0 -58.5 -1t-28.5 -1q-16 0 -18 12q-3 13 -43 172.5t-113 456.5q-35 140 -62.5 255.5t-48.5 213.5h-4z" />
<glyph unicode="x" horiz-adv-x="1124" d="M292 1017q-51 88 -93 158t-73 118.5t-48 75t-17 28.5q0 5 4 9t10 4q9 0 29 -1t68 -1q47 0 66.5 1t28.5 1q7 0 10.5 -3.5t8.5 -14.5q1 -4 12.5 -27t31.5 -61.5t47.5 -89.5t61.5 -111q21 -38 38 -67t31.5 -54.5t28.5 -48.5t29 -47h3q15 24 28 46.5t27 47t30 53t37 64.5 q82 142 119 215.5t41 81.5t7.5 12t11.5 4t24.5 -1t55.5 -1q23 0 38 0.5t24.5 0.5t15.5 0.5t10 0.5q6 0 10 -4t4 -9q0 -2 -19.5 -34t-51.5 -85t-73 -121.5t-84 -143.5q-60 -105 -100.5 -175t-62.5 -107l175 -303q53 -92 99 -168t79.5 -130.5t52.5 -85.5t19 -33q0 -5 -4 -9 t-10 -4q-9 0 -29 1t-68 1q-47 0 -66.5 -1t-28.5 -1q-11 0 -18 16q-2 3 -15.5 31t-36.5 73t-54 103.5t-67 121.5q-23 39 -40.5 70.5t-33 58.5t-29.5 51.5t-30 50.5h-3q-15 -26 -29 -50t-29 -50.5t-32 -57t-39 -68.5q-88 -151 -130.5 -236t-47.5 -96q-5 -10 -8.5 -14t-11.5 -4 t-24.5 1t-55.5 1q-23 0 -38 -0.5t-25 -0.5t-15.5 -0.5t-9.5 -0.5q-6 0 -10 4t-4 9q0 2 22 38.5t57 95t79.5 133.5t88.5 153q63 110 105.5 183.5t64.5 111.5q-20 34 -62.5 106t-106.5 185z" />
<glyph unicode="X" horiz-adv-x="1124" d="M292 1017q-51 88 -93 158t-73 118.5t-48 75t-17 28.5q0 5 4 9t10 4q9 0 29 -1t68 -1q47 0 66.5 1t28.5 1q7 0 10.5 -3.5t8.5 -14.5q1 -4 12.5 -27t31.5 -61.5t47.5 -89.5t61.5 -111q21 -38 38 -67t31.5 -54.5t28.5 -48.5t29 -47h3q15 24 28 46.5t27 47t30 53t37 64.5 q82 142 119 215.5t41 81.5t7.5 12t11.5 4t24.5 -1t55.5 -1q23 0 38 0.5t24.5 0.5t15.5 0.5t10 0.5q6 0 10 -4t4 -9q0 -2 -19.5 -34t-51.5 -85t-73 -121.5t-84 -143.5q-60 -105 -100.5 -175t-62.5 -107l175 -303q53 -92 99 -168t79.5 -130.5t52.5 -85.5t19 -33q0 -5 -4 -9 t-10 -4q-9 0 -29 1t-68 1q-47 0 -66.5 -1t-28.5 -1q-11 0 -18 16q-2 3 -15.5 31t-36.5 73t-54 103.5t-67 121.5q-23 39 -40.5 70.5t-33 58.5t-29.5 51.5t-30 50.5h-3q-15 -26 -29 -50t-29 -50.5t-32 -57t-39 -68.5q-88 -151 -130.5 -236t-47.5 -96q-5 -10 -8.5 -14t-11.5 -4 t-24.5 1t-55.5 1q-23 0 -38 -0.5t-25 -0.5t-15.5 -0.5t-9.5 -0.5q-6 0 -10 4t-4 9q0 2 22 38.5t57 95t79.5 133.5t88.5 153q63 110 105.5 183.5t64.5 111.5q-20 34 -62.5 106t-106.5 185z" />
<glyph unicode="y" horiz-adv-x="1056" d="M633 14q0 -16 -17 -16q-8 0 -30 1t-58 1q-37 0 -56.5 -1t-29.5 -1q-17 0 -17 16q0 10 6 165.5t8 453.5q-18 33 -63 116t-117 217q-53 98 -97.5 176.5t-77 134.5t-51 87t-18.5 33q0 5 4 9t10 4q9 0 29 -1t68 -1q46 0 64.5 1t27.5 1q13 0 17 -14q2 -6 43.5 -92t126.5 -249 q22 -43 39 -75t32 -59.5t29 -52l30 -52.5h3q15 27 28.5 52.5t27.5 53t31 60t38 73.5q85 163 124.5 249t41.5 92q4 14 18 14q8 0 23.5 -1t54.5 -1q23 0 38 0.5t24.5 0.5t15.5 0.5t10 0.5q6 0 10 -4t4 -9q0 -2 -20 -38.5t-52.5 -95.5t-74 -135.5t-84.5 -159.5 q-69 -133 -114 -216t-63 -116q2 -296 8 -453.5t6 -168.5z" />
<glyph unicode="Y" horiz-adv-x="1056" d="M633 14q0 -16 -17 -16q-8 0 -30 1t-58 1q-37 0 -56.5 -1t-29.5 -1q-17 0 -17 16q0 10 6 165.5t8 453.5q-18 33 -63 116t-117 217q-53 98 -97.5 176.5t-77 134.5t-51 87t-18.5 33q0 5 4 9t10 4q9 0 29 -1t68 -1q46 0 64.5 1t27.5 1q13 0 17 -14q2 -6 43.5 -92t126.5 -249 q22 -43 39 -75t32 -59.5t29 -52l30 -52.5h3q15 27 28.5 52.5t27.5 53t31 60t38 73.5q85 163 124.5 249t41.5 92q4 14 18 14q8 0 23.5 -1t54.5 -1q23 0 38 0.5t24.5 0.5t15.5 0.5t10 0.5q6 0 10 -4t4 -9q0 -2 -20 -38.5t-52.5 -95.5t-74 -135.5t-84.5 -159.5 q-69 -133 -114 -216t-63 -116q2 -296 8 -453.5t6 -168.5z" />
<glyph unicode="z" horiz-adv-x="1158" d="M584 2q-242 0 -359 -2t-124 -2q-16 0 -16 17q0 8 0.5 20t0.5 39q0 24 -0.5 34.5t-0.5 16.5t1.5 10t5.5 9q1 1 31.5 46.5t85 127t130 196t165.5 252.5q105 161 184.5 284.5t126.5 200.5h-230q-86 0 -162 -1t-133 -2t-90.5 -2t-35.5 -1q-16 0 -16 17q0 6 0.5 23t0.5 44 t-0.5 41.5t-0.5 22.5q0 17 16 17q3 0 27.5 -0.5t74.5 -1.5t129 -1.5t190 -0.5q223 0 331.5 2t114.5 2q16 0 16 -17q0 -8 -0.5 -21t-0.5 -36q0 -26 0.5 -37t0.5 -17t-1.5 -10t-5.5 -9q-1 -1 -30.5 -43t-81 -118.5t-123 -183t-155.5 -235.5q-115 -175 -201.5 -308.5 t-138.5 -217.5h262q96 0 181 1t148.5 2t101 2t39.5 1q16 0 16 -17q0 -6 -0.5 -23t-0.5 -44t0.5 -41.5t0.5 -22.5q0 -17 -16 -17q-3 0 -30 0.5t-81.5 1.5t-140 1.5t-206.5 0.5z" />
<glyph unicode="Z" horiz-adv-x="1158" d="M584 2q-242 0 -359 -2t-124 -2q-16 0 -16 17q0 8 0.5 20t0.5 39q0 24 -0.5 34.5t-0.5 16.5t1.5 10t5.5 9q1 1 31.5 46.5t85 127t130 196t165.5 252.5q105 161 184.5 284.5t126.5 200.5h-230q-86 0 -162 -1t-133 -2t-90.5 -2t-35.5 -1q-16 0 -16 17q0 6 0.5 23t0.5 44 t-0.5 41.5t-0.5 22.5q0 17 16 17q3 0 27.5 -0.5t74.5 -1.5t129 -1.5t190 -0.5q223 0 331.5 2t114.5 2q16 0 16 -17q0 -8 -0.5 -21t-0.5 -36q0 -26 0.5 -37t0.5 -17t-1.5 -10t-5.5 -9q-1 -1 -30.5 -43t-81 -118.5t-123 -183t-155.5 -235.5q-115 -175 -201.5 -308.5 t-138.5 -217.5h262q96 0 181 1t148.5 2t101 2t39.5 1q16 0 16 -17q0 -6 -0.5 -23t-0.5 -44t0.5 -41.5t0.5 -22.5q0 -17 -16 -17q-3 0 -30 0.5t-81.5 1.5t-140 1.5t-206.5 0.5z" />
<glyph unicode="[" horiz-adv-x="745" d="M246 -383q0 8 0.5 93t1.5 229t1.5 338t0.5 421t-0.5 421.5t-1.5 338.5t-1.5 229t-0.5 93q0 16 17 16q11 0 67 -1t167 -1q102 0 160 1t63 1q16 0 16 -17q0 -7 -0.5 -19.5t-0.5 -35.5t0.5 -37t0.5 -19q0 -15 -16 -15q-2 0 -29 1t-71.5 2t-102 2t-119.5 1q-1 -40 -1 -103.5 t-0.5 -143t-1 -169.5t-0.5 -183.5v-186v-175.5v-175v-185.5t0.5 -183.5t1 -169.5t0.5 -143t1 -103.5q62 0 119.5 1t102 2t71.5 2t29 1q16 0 16 -15q0 -5 -0.5 -19t-0.5 -37t0.5 -35.5t0.5 -19.5q0 -17 -16 -17q-5 0 -63 1t-160 1q-111 0 -167 -1t-67 -1q-17 0 -17 16z" />
<glyph unicode="]" horiz-adv-x="745" d="M499 1780q0 -8 -0.5 -93t-1.5 -229t-1.5 -338t-0.5 -421t0.5 -421.5t1.5 -338.5t1.5 -229t0.5 -93q0 -16 -17 -16q-11 0 -67 1t-167 1q-102 0 -160 -1t-63 -1q-16 0 -16 17q0 7 0.5 19.5t0.5 35.5t-0.5 37t-0.5 19q0 15 16 15q1 0 28.5 -1t72 -2t102 -2t119.5 -1 q0 40 0.5 103.5t1 143t0.5 169.5t0.5 183.5t0.5 186v175.5v175v185.5t-0.5 183.5t-1 169.5t-1 143t-0.5 103.5q-62 0 -119.5 -1t-102 -2t-72 -2t-28.5 -1q-16 0 -16 15q0 5 0.5 19t0.5 37t-0.5 35.5t-0.5 19.5q0 17 16 17q5 0 63 -1t160 -1q111 0 167 1t67 1q17 0 17 -16z " />
<glyph unicode="|" horiz-adv-x="647" d="M246 1779q0 16 17 16h121q17 0 17 -16q0 -4 -0.5 -27.5t-0.5 -73t-1 -129t-1 -195t-0.5 -271t-0.5 -357.5q0 -212 0.5 -375t0.5 -285t1 -205.5t1 -136t0.5 -77t0.5 -28.5q0 -16 -17 -16h-121q-17 0 -17 16q0 4 0.5 28t0.5 75t1 133.5t1 203t0.5 283t0.5 374.5 q0 202 -0.5 358t-0.5 273t-1 197.5t-1 131.5t-0.5 75t-0.5 28z" />
<glyph unicode="&#xb7;" horiz-adv-x="478" d="M100 724q0 35 11 62.5t30 46.5t44.5 29t54.5 10t54.5 -9.5t44 -28.5t29 -46t10.5 -62t-11 -62.5t-30.5 -46.5t-45 -29t-53.5 -10q-29 0 -54 9.5t-43.5 28t-29.5 46t-11 62.5z" />
<glyph unicode="&#x2c1;" horiz-adv-x="975" d="M486 611q-115 26 -192 67t-123.5 93t-66 113t-19.5 126q0 86 31 164t94 136.5t157.5 93t220.5 34.5q76 0 159.5 -15.5t160.5 -53.5q6 -3 9 -6t3 -10q0 -3 -6 -16.5l-14 -31.5t-17 -37t-16 -32q-3 -6 -6.5 -9.5t-9.5 -3.5q-5 0 -25 10t-54 22t-80.5 22t-104.5 10 q-64 0 -122 -15.5t-101.5 -48t-69.5 -82.5t-26 -118q0 -59 19 -102.5t52 -74.5t77 -51.5t94 -33t103 -19.5t103 -11q5 -1 7.5 -4t2.5 -6t-5 -12.5t-20.5 -40.5t-45.5 -91.5t-81 -164.5q-32 -66 -62.5 -133t-55 -122.5t-41 -94t-19.5 -47.5q-7 -17 -30 -17q-8 0 -24 1t-60 1 q-25 0 -40.5 -0.5t-25.5 -0.5t-16 -0.5t-10 -0.5q-6 0 -9 4t-3 8q0 5 24 52t66 126.5t98 187.5t120 235z" />
<glyph unicode="&#x2ca;" horiz-adv-x="523" d="M243 1424q2 10 6.5 12t7.5 2q10 0 30.5 -7t43.5 -15q16 -5 31 -9.5t26 -8.5t18 -8.5t7 -8.5q0 -5 -3 -12l-213 -497q-5 -11 -7 -13.5t-7 -2.5q-8 0 -20.5 3t-24 7t-20 8.5t-8.5 7.5q0 5 5 22z" />
<glyph unicode="&#x2cb;" horiz-adv-x="523" d="M408 904q5 -17 5 -22q0 -3 -8.5 -7.5t-20 -8.5t-24 -7t-20.5 -3q-5 0 -7 2.5t-7 13.5l-213 497q-3 7 -3 12q0 4 7 8.5t18 8.5t26 8.5t31 9.5q23 8 43.5 15t30.5 7q3 0 7.5 -2t6.5 -12z" />
<glyph unicode="&#x2d9;" horiz-adv-x="0" d="M-125 1687q0 31 10 55t27 40.5t40 25t49 8.5q52 0 88 -33t36 -95q0 -31 -10 -55t-27 -40.5t-40 -25t-49 -8.5t-48.5 8.5t-39 25t-26.5 40t-10 54.5z" />
<glyph unicode="&#x300;" horiz-adv-x="0" d="M-635 1610q8 -14 8 -15q0 -4 -10.5 -12.5t-24 -16.5t-26.5 -14.5t-19 -6.5q-3 0 -12 12l-250 339q-4 5 -4 11q0 9 18.5 20t47.5 29q23 14 38.5 24.5t24.5 10.5q3 0 6 -1.5t7 -7.5z" />
<glyph unicode="&#x301;" horiz-adv-x="0" d="M-603 1982q4 6 7 7.5t6 1.5q9 0 24.5 -10t38.5 -25q29 -18 47.5 -29t18.5 -20q0 -6 -4 -11l-250 -339q-9 -12 -12 -12q-6 0 -19.5 6.5t-27 14.5t-23.5 16.5t-10 12.5q0 1 8 15z" />
<glyph unicode="&#x304;" horiz-adv-x="0" d="M-376 1737q15 0 15 -16q0 -7 -0.5 -17.5t-0.5 -36.5t0.5 -38.5t0.5 -18.5q0 -16 -15 -16q-3 0 -18 0.5t-53 1.5t-104 1.5t-171 0.5q-104 0 -168.5 -0.5t-100.5 -1.5t-50 -1.5t-17 -0.5q-15 0 -15 16q0 8 0.5 19t0.5 37t-0.5 38t-0.5 17q0 16 15 16q3 0 18 -0.5t52.5 -1 t104 -1t172.5 -0.5q103 0 167 0.5t100 1t50.5 1t17.5 0.5z" />
<glyph unicode="&#x305;" horiz-adv-x="0" d="M-711 1800q236 0 363.5 2t132.5 2q16 0 16 -17q0 -8 -0.5 -21.5t-0.5 -39.5t0.5 -40.5t0.5 -20.5q0 -17 -16 -17q-5 0 -134.5 2.5t-372.5 2.5q-238 0 -365 -2.5t-132 -2.5q-16 0 -16 17q0 6 0.5 20.5t0.5 40.5t-0.5 39.5t-0.5 21.5q0 17 16 17q5 0 134.5 -2t373.5 -2z " />
<glyph unicode="&#x306;" horiz-adv-x="0" d="M-1006 1876q2 0 5 -1.5t7 -9.5q9 -20 26 -50t48 -58.5t79.5 -49t122.5 -20.5q72 0 121.5 20t81 48.5t49 59t26.5 50.5q4 8 7 9.5t5 1.5q6 0 19.5 -4.5t27.5 -10.5t25 -12.5t11 -10.5q0 -2 -1.5 -7t-3.5 -10q-8 -22 -20.5 -51t-32.5 -60t-48.5 -61.5t-68 -54.5t-91.5 -39 t-118 -15q-67 0 -117.5 15t-87.5 39t-63 54.5t-43 62t-27.5 60.5t-17.5 51q-2 5 -3 9t-1 6q0 5 11 12t25 13t27.5 10t19.5 4z" />
<glyph unicode="&#x308;" horiz-adv-x="0" d="M-1053 1669q0 58 34.5 89.5t84.5 31.5q49 0 82.5 -31t33.5 -90q0 -58 -34.5 -89.5t-83.5 -31.5t-83 31t-34 90zM-616 1669q0 58 34.5 89.5t84.5 31.5q49 0 82.5 -31t33.5 -90q0 -58 -34.5 -89.5t-83.5 -31.5t-83 31t-34 90z" />
<glyph unicode="&#x313;" horiz-adv-x="0" d="M-820 1549q-6 2 -8 7t-2 16q0 35 3 44.5t8 9.5t12.5 -1.5t23.5 -1.5q30 0 57.5 7.5t49 22.5t34 38t12.5 53q0 23 -8 42t-26.5 33t-48 21.5t-71.5 7.5q-20 0 -31 -1t-14 -1q-2 0 -3.5 1.5t-3 9t-2.5 23t-1 42.5q0 32 2.5 41.5t13.5 11.5q8 2 23.5 3t31.5 1 q121 0 185.5 -55.5t64.5 -152.5q0 -51 -18 -92.5t-50.5 -71.5t-77 -46.5t-97.5 -16.5q-15 0 -33.5 1.5t-25.5 3.5z" />
<glyph unicode="&#x314;" horiz-adv-x="0" d="M-614 1549q-7 -2 -25.5 -3.5t-33.5 -1.5q-54 0 -99 16.5t-77 45.5t-49.5 70t-17.5 91q0 45 15.5 84t47 67.5t78.5 44.5t109 16q16 0 31.5 -1t23.5 -3q11 -2 13.5 -11.5t2.5 -41.5q0 -27 -1 -42.5t-2.5 -23t-3 -9t-3.5 -1.5q-3 0 -14 1t-31 1q-42 0 -71.5 -7.5t-48 -21.5 t-26.5 -33t-8 -42q0 -30 12.5 -53t34 -38t49 -22.5t57.5 -7.5q16 0 23.5 1.5t12.5 1.5t8 -9.5t3 -44.5q0 -11 -2 -16t-8 -7z" />
<glyph unicode="&#x323;" horiz-adv-x="0" d="M-842 -280q0 31 10 55t27 40.5t40 25t49 8.5q52 0 88 -33t36 -95q0 -31 -10 -55t-27 -40.5t-40 -25t-49 -8.5t-48.5 8.5t-39 25t-26.5 40t-10 54.5z" />
<glyph unicode="&#x337;" horiz-adv-x="0" d="M-351 775q62 49 111.5 90t85 70t55 46t22.5 20q5 5 11 5q5 0 8 -2.5t7.5 -9t13 -18t23.5 -29.5q27 -32 38 -43.5t11 -18.5q0 -3 -3 -6.5t-6 -5.5q-3 -3 -25 -20t-59.5 -45.5t-87.5 -67.5t-108 -85q-70 -56 -117 -94t-76 -62t-42 -35.5t-15 -13.5q-5 -5 -11 -5 q-5 0 -8 2.5t-7.5 9t-13 18t-23.5 29.5q-14 16 -23 26.5t-15 17t-8.5 10.5t-2.5 8q0 3 3 6.5t6 5.5t17 12.5t43.5 33t77.5 59.5t118 92z" />
<glyph unicode="&#x342;" horiz-adv-x="0" d="M-428 1545q-2 0 -5 1.5t-7 9.5q-9 19 -26 49.5t-48 59t-80 49t-122 20.5q-72 0 -121.5 -20t-81 -48.5t-49 -59t-26.5 -50.5q-4 -8 -7 -9.5t-5 -1.5q-6 0 -19.5 4t-27.5 10t-25 12.5t-11 11.5q0 2 1.5 7t3.5 10q8 21 20 50.5t31.5 60.5t47.5 61.5t67 54.5t90.5 39 t117.5 15q67 0 118 -15t88.5 -39t64 -54.5t44 -62t28.5 -60.5t18 -51q2 -5 3 -9t1 -6q0 -5 -11 -12t-25 -13t-27.5 -10t-19.5 -4z" />
<glyph unicode="&#x374;" horiz-adv-x="549" d="M273 1424q2 10 6.5 12t7.5 2q10 0 30.5 -7t43.5 -15q16 -5 31 -9.5t26 -8.5t18 -8.5t7 -8.5q0 -5 -3 -12l-213 -497q-5 -11 -7 -13.5t-7 -2.5q-8 0 -20.5 3t-24 7t-20 8.5t-8.5 7.5q0 5 5 22z" />
<glyph unicode="&#x375;" horiz-adv-x="549" d="M276 -232q-2 -10 -6.5 -12t-7.5 -2q-10 0 -30.5 7t-43.5 15q-32 10 -57 18t-25 17q0 4 3 12l213 497q5 11 7 13.5t7 2.5q8 0 20.5 -3t24 -7t20 -8.5t8.5 -7.5q0 -5 -5 -22z" />
<glyph unicode="&#x1ffd;" horiz-adv-x="180" d="M100 1430q4 6 7 7.5t6 1.5q9 0 23.5 -9.5t37.5 -24.5q28 -19 46 -29t18 -19q0 -6 -4 -11l-250 -339q-9 -12 -12 -12q-6 0 -19.5 6.5t-27 14.5t-23.5 16.5t-10 12.5q0 1 8 15z" />
<glyph unicode="&#x384;" horiz-adv-x="180" d="M100 1430q4 6 7 7.5t6 1.5q9 0 23.5 -9.5t37.5 -24.5q28 -19 46 -29t18 -19q0 -6 -4 -11l-250 -339q-9 -12 -12 -12q-6 0 -19.5 6.5t-27 14.5t-23.5 16.5t-10 12.5q0 1 8 15z" />
<glyph unicode="&#x1fee;" horiz-adv-x="500" d="M-126 1669q0 54 32.5 84t79.5 30q46 0 77.5 -29.5t31.5 -84.5q0 -54 -32.5 -84t-78.5 -30t-78 29.5t-32 84.5zM405 1669q0 54 32.5 84t79.5 30q46 0 77.5 -29.5t31.5 -84.5q0 -54 -32.5 -84t-78.5 -30t-78 29.5t-32 84.5zM335 1980q3 6 6.5 7.5t6.5 1.5q9 0 20.5 -8 t35.5 -22q29 -17 44.5 -26t15.5 -18q0 -6 -4 -11l-241 -347q-9 -12 -12 -12q-6 0 -18.5 5.5t-24.5 13t-21.5 15.5t-9.5 12q0 3 7 16z" />
<glyph unicode="&#x385;" horiz-adv-x="500" d="M-126 1669q0 54 32.5 84t79.5 30q46 0 77.5 -29.5t31.5 -84.5q0 -54 -32.5 -84t-78.5 -30t-78 29.5t-32 84.5zM405 1669q0 54 32.5 84t79.5 30q46 0 77.5 -29.5t31.5 -84.5q0 -54 -32.5 -84t-78.5 -30t-78 29.5t-32 84.5zM335 1980q3 6 6.5 7.5t6.5 1.5q9 0 20.5 -8 t35.5 -22q29 -17 44.5 -26t15.5 -18q0 -6 -4 -11l-241 -347q-9 -12 -12 -12q-6 0 -18.5 5.5t-24.5 13t-21.5 15.5t-9.5 12q0 3 7 16z" />
<glyph unicode="&#x1fbb;" horiz-adv-x="1230" d="M602 457q-161 0 -239 -3q-66 -208 -99 -319t-35 -122q-4 -15 -19 -15q-8 0 -24 1t-57 1q-46 0 -64 -1t-26 -1q-6 0 -10 4.5t-4 9.5q0 2 10.5 32.5t29.5 82.5t44.5 122.5t55.5 154t63.5 176.5t66.5 190q103 297 160.5 456t61.5 172q3 12 19 12q6 0 12 -0.5t15 -0.5 t21.5 -0.5t31.5 -0.5q20 0 33 0.5t22 0.5t14.5 0.5t11.5 0.5q16 0 19 -12q4 -13 60 -172.5t159 -456.5q60 -173 110 -311.5t86 -236.5t56 -151.5t20 -57.5q0 -5 -4 -9.5t-10 -4.5q-9 0 -29 1t-68 1t-66 -1t-27 -1q-14 0 -18 15q-2 11 -36 121t-101 321q-40 1 -101 1.5 t-145 0.5zM770 699q-28 86 -49.5 150t-40.5 118t-36.5 103.5t-37.5 105.5h-4q-19 -56 -36 -106t-35 -105t-39 -118.5t-48 -145.5l-29 -88q35 -1 83 -1h111q61 0 108 0.5t80 1.5q-7 20 -13.5 41t-13.5 44zM730 1982q4 6 7 7.5t6 1.5q9 0 24.5 -10t38.5 -25q29 -18 47.5 -29 t18.5 -20q0 -6 -4 -11l-250 -339q-9 -12 -12 -12q-6 0 -19.5 6.5t-27 14.5t-23.5 16.5t-10 12.5q0 1 8 15z" />
<glyph unicode="&#x1f71;" horiz-adv-x="1230" d="M602 457q-161 0 -239 -3q-66 -208 -99 -319t-35 -122q-4 -15 -19 -15q-8 0 -24 1t-57 1q-46 0 -64 -1t-26 -1q-6 0 -10 4.5t-4 9.5q0 2 10.5 32.5t29.5 82.5t44.5 122.5t55.5 154t63.5 176.5t66.5 190q103 297 160.5 456t61.5 172q3 12 19 12q6 0 12 -0.5t15 -0.5 t21.5 -0.5t31.5 -0.5q20 0 33 0.5t22 0.5t14.5 0.5t11.5 0.5q16 0 19 -12q4 -13 60 -172.5t159 -456.5q60 -173 110 -311.5t86 -236.5t56 -151.5t20 -57.5q0 -5 -4 -9.5t-10 -4.5q-9 0 -29 1t-68 1t-66 -1t-27 -1q-14 0 -18 15q-2 11 -36 121t-101 321q-40 1 -101 1.5 t-145 0.5zM770 699q-28 86 -49.5 150t-40.5 118t-36.5 103.5t-37.5 105.5h-4q-19 -56 -36 -106t-35 -105t-39 -118.5t-48 -145.5l-29 -88q35 -1 83 -1h111q61 0 108 0.5t80 1.5q-7 20 -13.5 41t-13.5 44zM730 1982q4 6 7 7.5t6 1.5q9 0 24.5 -10t38.5 -25q29 -18 47.5 -29 t18.5 -20q0 -6 -4 -11l-250 -339q-9 -12 -12 -12q-6 0 -19.5 6.5t-27 14.5t-23.5 16.5t-10 12.5q0 1 8 15z" />
<glyph unicode="&#x3ac;" horiz-adv-x="1230" d="M602 457q-161 0 -239 -3q-66 -208 -99 -319t-35 -122q-4 -15 -19 -15q-8 0 -24 1t-57 1q-46 0 -64 -1t-26 -1q-6 0 -10 4.5t-4 9.5q0 2 10.5 32.5t29.5 82.5t44.5 122.5t55.5 154t63.5 176.5t66.5 190q103 297 160.5 456t61.5 172q3 12 19 12q6 0 12 -0.5t15 -0.5 t21.5 -0.5t31.5 -0.5q20 0 33 0.5t22 0.5t14.5 0.5t11.5 0.5q16 0 19 -12q4 -13 60 -172.5t159 -456.5q60 -173 110 -311.5t86 -236.5t56 -151.5t20 -57.5q0 -5 -4 -9.5t-10 -4.5q-9 0 -29 1t-68 1t-66 -1t-27 -1q-14 0 -18 15q-2 11 -36 121t-101 321q-40 1 -101 1.5 t-145 0.5zM770 699q-28 86 -49.5 150t-40.5 118t-36.5 103.5t-37.5 105.5h-4q-19 -56 -36 -106t-35 -105t-39 -118.5t-48 -145.5l-29 -88q35 -1 83 -1h111q61 0 108 0.5t80 1.5q-7 20 -13.5 41t-13.5 44zM730 1982q4 6 7 7.5t6 1.5q9 0 24.5 -10t38.5 -25q29 -18 47.5 -29 t18.5 -20q0 -6 -4 -11l-250 -339q-9 -12 -12 -12q-6 0 -19.5 6.5t-27 14.5t-23.5 16.5t-10 12.5q0 1 8 15z" />
<glyph unicode="&#x386;" horiz-adv-x="1230" d="M602 457q-161 0 -239 -3q-66 -208 -99 -319t-35 -122q-4 -15 -19 -15q-8 0 -24 1t-57 1q-46 0 -64 -1t-26 -1q-6 0 -10 4.5t-4 9.5q0 2 10.5 32.5t29.5 82.5t44.5 122.5t55.5 154t63.5 176.5t66.5 190q103 297 160.5 456t61.5 172q3 12 19 12q6 0 12 -0.5t15 -0.5 t21.5 -0.5t31.5 -0.5q20 0 33 0.5t22 0.5t14.5 0.5t11.5 0.5q16 0 19 -12q4 -13 60 -172.5t159 -456.5q60 -173 110 -311.5t86 -236.5t56 -151.5t20 -57.5q0 -5 -4 -9.5t-10 -4.5q-9 0 -29 1t-68 1t-66 -1t-27 -1q-14 0 -18 15q-2 11 -36 121t-101 321q-40 1 -101 1.5 t-145 0.5zM770 699q-28 86 -49.5 150t-40.5 118t-36.5 103.5t-37.5 105.5h-4q-19 -56 -36 -106t-35 -105t-39 -118.5t-48 -145.5l-29 -88q35 -1 83 -1h111q61 0 108 0.5t80 1.5q-7 20 -13.5 41t-13.5 44zM730 1982q4 6 7 7.5t6 1.5q9 0 24.5 -10t38.5 -25q29 -18 47.5 -29 t18.5 -20q0 -6 -4 -11l-250 -339q-9 -12 -12 -12q-6 0 -19.5 6.5t-27 14.5t-23.5 16.5t-10 12.5q0 1 8 15z" />
<glyph unicode="&#x387;" horiz-adv-x="440" d="M100 1310q0 31 9.5 54.5t26 40t38.5 25t47 8.5q51 0 85 -32.5t34 -93.5q0 -31 -9.5 -54.5t-26 -40t-38.5 -25t-47 -8.5q-49 0 -84 32.5t-35 93.5z" />
<glyph unicode="&#x1fcb;" horiz-adv-x="1434" d="M186 1394q0 16 17 16q8 0 30 -1t58 -1q37 0 56.5 1t29.5 1q17 0 17 -16q0 -11 -6 -155t-8 -412q100 -3 342 -3q118 0 199.5 1t132.5 2q-1 131 -3 234t-4.5 175.5t-4.5 112.5t-2 45q0 16 17 16q8 0 30 -1t58 -1q37 0 56.5 1t29.5 1q17 0 17 -16q0 -6 -2 -52t-5 -130 t-5 -204.5t-2 -276.5q0 -341 7 -523.5t7 -193.5q0 -16 -17 -16q-8 0 -30 1t-58 1q-37 0 -56.5 -1t-29.5 -1q-17 0 -17 16q0 11 6.5 173.5t7.5 478.5q-101 3 -342 3q-118 0 -200.5 -1t-131.5 -3q1 -312 7.5 -476t6.5 -175q0 -16 -17 -16q-8 0 -30 1t-58 1q-37 0 -56.5 -1 t-29.5 -1q-17 0 -17 16q0 11 7 188.5t7 518.5q0 156 -2 278.5t-5 208t-5 133t-2 53.5zM831 1982q4 6 7 7.5t6 1.5q9 0 24.5 -10t38.5 -25q29 -18 47.5 -29t18.5 -20q0 -6 -4 -11l-250 -339q-9 -12 -12 -12q-6 0 -19.5 6.5t-27 14.5t-23.5 16.5t-10 12.5q0 1 8 15z" />
<glyph unicode="&#x1f75;" horiz-adv-x="1434" d="M186 1394q0 16 17 16q8 0 30 -1t58 -1q37 0 56.5 1t29.5 1q17 0 17 -16q0 -11 -6 -155t-8 -412q100 -3 342 -3q118 0 199.5 1t132.5 2q-1 131 -3 234t-4.5 175.5t-4.5 112.5t-2 45q0 16 17 16q8 0 30 -1t58 -1q37 0 56.5 1t29.5 1q17 0 17 -16q0 -6 -2 -52t-5 -130 t-5 -204.5t-2 -276.5q0 -341 7 -523.5t7 -193.5q0 -16 -17 -16q-8 0 -30 1t-58 1q-37 0 -56.5 -1t-29.5 -1q-17 0 -17 16q0 11 6.5 173.5t7.5 478.5q-101 3 -342 3q-118 0 -200.5 -1t-131.5 -3q1 -312 7.5 -476t6.5 -175q0 -16 -17 -16q-8 0 -30 1t-58 1q-37 0 -56.5 -1 t-29.5 -1q-17 0 -17 16q0 11 7 188.5t7 518.5q0 156 -2 278.5t-5 208t-5 133t-2 53.5zM831 1982q4 6 7 7.5t6 1.5q9 0 24.5 -10t38.5 -25q29 -18 47.5 -29t18.5 -20q0 -6 -4 -11l-250 -339q-9 -12 -12 -12q-6 0 -19.5 6.5t-27 14.5t-23.5 16.5t-10 12.5q0 1 8 15z" />
<glyph unicode="&#x3ae;" horiz-adv-x="1434" d="M186 1394q0 16 17 16q8 0 30 -1t58 -1q37 0 56.5 1t29.5 1q17 0 17 -16q0 -11 -6 -155t-8 -412q100 -3 342 -3q118 0 199.5 1t132.5 2q-1 131 -3 234t-4.5 175.5t-4.5 112.5t-2 45q0 16 17 16q8 0 30 -1t58 -1q37 0 56.5 1t29.5 1q17 0 17 -16q0 -6 -2 -52t-5 -130 t-5 -204.5t-2 -276.5q0 -341 7 -523.5t7 -193.5q0 -16 -17 -16q-8 0 -30 1t-58 1q-37 0 -56.5 -1t-29.5 -1q-17 0 -17 16q0 11 6.5 173.5t7.5 478.5q-101 3 -342 3q-118 0 -200.5 -1t-131.5 -3q1 -312 7.5 -476t6.5 -175q0 -16 -17 -16q-8 0 -30 1t-58 1q-37 0 -56.5 -1 t-29.5 -1q-17 0 -17 16q0 11 7 188.5t7 518.5q0 156 -2 278.5t-5 208t-5 133t-2 53.5zM831 1982q4 6 7 7.5t6 1.5q9 0 24.5 -10t38.5 -25q29 -18 47.5 -29t18.5 -20q0 -6 -4 -11l-250 -339q-9 -12 -12 -12q-6 0 -19.5 6.5t-27 14.5t-23.5 16.5t-10 12.5q0 1 8 15z" />
<glyph unicode="&#x389;" horiz-adv-x="1434" d="M186 1394q0 16 17 16q8 0 30 -1t58 -1q37 0 56.5 1t29.5 1q17 0 17 -16q0 -11 -6 -155t-8 -412q100 -3 342 -3q118 0 199.5 1t132.5 2q-1 131 -3 234t-4.5 175.5t-4.5 112.5t-2 45q0 16 17 16q8 0 30 -1t58 -1q37 0 56.5 1t29.5 1q17 0 17 -16q0 -6 -2 -52t-5 -130 t-5 -204.5t-2 -276.5q0 -341 7 -523.5t7 -193.5q0 -16 -17 -16q-8 0 -30 1t-58 1q-37 0 -56.5 -1t-29.5 -1q-17 0 -17 16q0 11 6.5 173.5t7.5 478.5q-101 3 -342 3q-118 0 -200.5 -1t-131.5 -3q1 -312 7.5 -476t6.5 -175q0 -16 -17 -16q-8 0 -30 1t-58 1q-37 0 -56.5 -1 t-29.5 -1q-17 0 -17 16q0 11 7 188.5t7 518.5q0 156 -2 278.5t-5 208t-5 133t-2 53.5zM831 1982q4 6 7 7.5t6 1.5q9 0 24.5 -10t38.5 -25q29 -18 47.5 -29t18.5 -20q0 -6 -4 -11l-250 -339q-9 -12 -12 -12q-6 0 -19.5 6.5t-27 14.5t-23.5 16.5t-10 12.5q0 1 8 15z" />
<glyph unicode="&#x1fdb;" horiz-adv-x="580" d="M186 1394q0 16 17 16q8 0 30 -1t58 -1q37 0 56.5 1t29.5 1q17 0 17 -16q0 -6 -2 -52t-5 -130t-5 -204.5t-2 -276.5q0 -341 7 -523.5t7 -193.5q0 -16 -17 -16q-8 0 -30 1t-58 1q-37 0 -56.5 -1t-29.5 -1q-17 0 -17 16q0 11 7 188.5t7 518.5q0 156 -2 278.5t-5 208t-5 133 t-2 53.5zM404 1982q4 6 7 7.5t6 1.5q9 0 24.5 -10t38.5 -25q29 -18 47.5 -29t18.5 -20q0 -6 -4 -11l-250 -339q-9 -12 -12 -12q-6 0 -19.5 6.5t-27 14.5t-23.5 16.5t-10 12.5q0 1 8 15z" />
<glyph unicode="&#x1f77;" horiz-adv-x="580" d="M186 1394q0 16 17 16q8 0 30 -1t58 -1q37 0 56.5 1t29.5 1q17 0 17 -16q0 -6 -2 -52t-5 -130t-5 -204.5t-2 -276.5q0 -341 7 -523.5t7 -193.5q0 -16 -17 -16q-8 0 -30 1t-58 1q-37 0 -56.5 -1t-29.5 -1q-17 0 -17 16q0 11 7 188.5t7 518.5q0 156 -2 278.5t-5 208t-5 133 t-2 53.5zM404 1982q4 6 7 7.5t6 1.5q9 0 24.5 -10t38.5 -25q29 -18 47.5 -29t18.5 -20q0 -6 -4 -11l-250 -339q-9 -12 -12 -12q-6 0 -19.5 6.5t-27 14.5t-23.5 16.5t-10 12.5q0 1 8 15z" />
<glyph unicode="&#x3af;" horiz-adv-x="580" d="M186 1394q0 16 17 16q8 0 30 -1t58 -1q37 0 56.5 1t29.5 1q17 0 17 -16q0 -6 -2 -52t-5 -130t-5 -204.5t-2 -276.5q0 -341 7 -523.5t7 -193.5q0 -16 -17 -16q-8 0 -30 1t-58 1q-37 0 -56.5 -1t-29.5 -1q-17 0 -17 16q0 11 7 188.5t7 518.5q0 156 -2 278.5t-5 208t-5 133 t-2 53.5zM404 1982q4 6 7 7.5t6 1.5q9 0 24.5 -10t38.5 -25q29 -18 47.5 -29t18.5 -20q0 -6 -4 -11l-250 -339q-9 -12 -12 -12q-6 0 -19.5 6.5t-27 14.5t-23.5 16.5t-10 12.5q0 1 8 15z" />
<glyph unicode="&#x38a;" horiz-adv-x="580" d="M186 1394q0 16 17 16q8 0 30 -1t58 -1q37 0 56.5 1t29.5 1q17 0 17 -16q0 -6 -2 -52t-5 -130t-5 -204.5t-2 -276.5q0 -341 7 -523.5t7 -193.5q0 -16 -17 -16q-8 0 -30 1t-58 1q-37 0 -56.5 -1t-29.5 -1q-17 0 -17 16q0 11 7 188.5t7 518.5q0 156 -2 278.5t-5 208t-5 133 t-2 53.5zM404 1982q4 6 7 7.5t6 1.5q9 0 24.5 -10t38.5 -25q29 -18 47.5 -29t18.5 -20q0 -6 -4 -11l-250 -339q-9 -12 -12 -12q-6 0 -19.5 6.5t-27 14.5t-23.5 16.5t-10 12.5q0 1 8 15z" />
<glyph unicode="&#x1ff9;" horiz-adv-x="1466" d="M287 711q0 -141 36 -250.5t97.5 -184.5t143.5 -114t173 -39q90 0 170 38.5t140 112t95.5 180t35.5 243.5q0 141 -36.5 250.5t-98 184.5t-143.5 114t-173 39q-90 0 -170 -38.5t-140 -112t-95 -180t-35 -243.5zM99 696q0 177 51 315t138.5 233t204 144.5t246.5 49.5 q128 0 242 -48.5t199.5 -141.5t135.5 -228t50 -308q0 -177 -51.5 -315t-139 -233t-203.5 -144.5t-246 -49.5q-128 0 -242 48.5t-199.5 141.5t-135.5 228t-50 308zM847 1982q4 6 7 7.5t6 1.5q9 0 24.5 -10t38.5 -25q29 -18 47.5 -29t18.5 -20q0 -6 -4 -11l-250 -339 q-9 -12 -12 -12q-6 0 -19.5 6.5t-27 14.5t-23.5 16.5t-10 12.5q0 1 8 15z" />
<glyph unicode="&#x1f79;" horiz-adv-x="1466" d="M287 711q0 -141 36 -250.5t97.5 -184.5t143.5 -114t173 -39q90 0 170 38.5t140 112t95.5 180t35.5 243.5q0 141 -36.5 250.5t-98 184.5t-143.5 114t-173 39q-90 0 -170 -38.5t-140 -112t-95 -180t-35 -243.5zM99 696q0 177 51 315t138.5 233t204 144.5t246.5 49.5 q128 0 242 -48.5t199.5 -141.5t135.5 -228t50 -308q0 -177 -51.5 -315t-139 -233t-203.5 -144.5t-246 -49.5q-128 0 -242 48.5t-199.5 141.5t-135.5 228t-50 308zM847 1982q4 6 7 7.5t6 1.5q9 0 24.5 -10t38.5 -25q29 -18 47.5 -29t18.5 -20q0 -6 -4 -11l-250 -339 q-9 -12 -12 -12q-6 0 -19.5 6.5t-27 14.5t-23.5 16.5t-10 12.5q0 1 8 15z" />
<glyph unicode="&#x3cc;" horiz-adv-x="1466" d="M287 711q0 -141 36 -250.5t97.5 -184.5t143.5 -114t173 -39q90 0 170 38.5t140 112t95.5 180t35.5 243.5q0 141 -36.5 250.5t-98 184.5t-143.5 114t-173 39q-90 0 -170 -38.5t-140 -112t-95 -180t-35 -243.5zM99 696q0 177 51 315t138.5 233t204 144.5t246.5 49.5 q128 0 242 -48.5t199.5 -141.5t135.5 -228t50 -308q0 -177 -51.5 -315t-139 -233t-203.5 -144.5t-246 -49.5q-128 0 -242 48.5t-199.5 141.5t-135.5 228t-50 308zM847 1982q4 6 7 7.5t6 1.5q9 0 24.5 -10t38.5 -25q29 -18 47.5 -29t18.5 -20q0 -6 -4 -11l-250 -339 q-9 -12 -12 -12q-6 0 -19.5 6.5t-27 14.5t-23.5 16.5t-10 12.5q0 1 8 15z" />
<glyph unicode="&#x38c;" horiz-adv-x="1466" d="M287 711q0 -141 36 -250.5t97.5 -184.5t143.5 -114t173 -39q90 0 170 38.5t140 112t95.5 180t35.5 243.5q0 141 -36.5 250.5t-98 184.5t-143.5 114t-173 39q-90 0 -170 -38.5t-140 -112t-95 -180t-35 -243.5zM99 696q0 177 51 315t138.5 233t204 144.5t246.5 49.5 q128 0 242 -48.5t199.5 -141.5t135.5 -228t50 -308q0 -177 -51.5 -315t-139 -233t-203.5 -144.5t-246 -49.5q-128 0 -242 48.5t-199.5 141.5t-135.5 228t-50 308zM847 1982q4 6 7 7.5t6 1.5q9 0 24.5 -10t38.5 -25q29 -18 47.5 -29t18.5 -20q0 -6 -4 -11l-250 -339 q-9 -12 -12 -12q-6 0 -19.5 6.5t-27 14.5t-23.5 16.5t-10 12.5q0 1 8 15z" />
<glyph unicode="&#x1feb;" horiz-adv-x="1215" d="M607 0q-20 0 -33 -0.5t-22 -0.5t-14.5 -0.5t-11.5 -0.5q-15 0 -18 12q-4 13 -58.5 172.5t-154.5 456.5q-58 173 -106 311.5t-83 236.5t-54.5 151.5t-19.5 57.5q0 5 4 9.5t10 4.5q9 0 29 -1t68 -1t66 1t27 1q14 0 18 -15q3 -14 53.5 -186.5t152.5 -499.5 q27 -86 47.5 -150.5t38.5 -118.5t35 -103t36 -105h4q18 55 34.5 105.5t34 105.5t37.5 118.5t46 145.5q103 327 152.5 500.5t52.5 187.5q4 15 19 15q8 0 24 -1t57 -1q46 0 64 1t26 1q6 0 10 -4.5t4 -9.5q0 -3 -10.5 -33t-28.5 -82t-43 -122.5t-54 -154t-61 -176.5t-64 -190 q-100 -297 -156 -456t-60 -172q-3 -12 -18 -12q-12 0 -27.5 1t-52.5 1zM721 1982q4 6 7 7.5t6 1.5q9 0 24.5 -10t38.5 -25q29 -18 47.5 -29t18.5 -20q0 -6 -4 -11l-250 -339q-9 -12 -12 -12q-6 0 -19.5 6.5t-27 14.5t-23.5 16.5t-10 12.5q0 1 8 15z" />
<glyph unicode="&#x1f7b;" horiz-adv-x="1215" d="M607 0q-20 0 -33 -0.5t-22 -0.5t-14.5 -0.5t-11.5 -0.5q-15 0 -18 12q-4 13 -58.5 172.5t-154.5 456.5q-58 173 -106 311.5t-83 236.5t-54.5 151.5t-19.5 57.5q0 5 4 9.5t10 4.5q9 0 29 -1t68 -1t66 1t27 1q14 0 18 -15q3 -14 53.5 -186.5t152.5 -499.5 q27 -86 47.5 -150.5t38.5 -118.5t35 -103t36 -105h4q18 55 34.5 105.5t34 105.5t37.5 118.5t46 145.5q103 327 152.5 500.5t52.5 187.5q4 15 19 15q8 0 24 -1t57 -1q46 0 64 1t26 1q6 0 10 -4.5t4 -9.5q0 -3 -10.5 -33t-28.5 -82t-43 -122.5t-54 -154t-61 -176.5t-64 -190 q-100 -297 -156 -456t-60 -172q-3 -12 -18 -12q-12 0 -27.5 1t-52.5 1zM721 1982q4 6 7 7.5t6 1.5q9 0 24.5 -10t38.5 -25q29 -18 47.5 -29t18.5 -20q0 -6 -4 -11l-250 -339q-9 -12 -12 -12q-6 0 -19.5 6.5t-27 14.5t-23.5 16.5t-10 12.5q0 1 8 15z" />
<glyph unicode="&#x3cd;" horiz-adv-x="1215" d="M607 0q-20 0 -33 -0.5t-22 -0.5t-14.5 -0.5t-11.5 -0.5q-15 0 -18 12q-4 13 -58.5 172.5t-154.5 456.5q-58 173 -106 311.5t-83 236.5t-54.5 151.5t-19.5 57.5q0 5 4 9.5t10 4.5q9 0 29 -1t68 -1t66 1t27 1q14 0 18 -15q3 -14 53.5 -186.5t152.5 -499.5 q27 -86 47.5 -150.5t38.5 -118.5t35 -103t36 -105h4q18 55 34.5 105.5t34 105.5t37.5 118.5t46 145.5q103 327 152.5 500.5t52.5 187.5q4 15 19 15q8 0 24 -1t57 -1q46 0 64 1t26 1q6 0 10 -4.5t4 -9.5q0 -3 -10.5 -33t-28.5 -82t-43 -122.5t-54 -154t-61 -176.5t-64 -190 q-100 -297 -156 -456t-60 -172q-3 -12 -18 -12q-12 0 -27.5 1t-52.5 1zM721 1982q4 6 7 7.5t6 1.5q9 0 24.5 -10t38.5 -25q29 -18 47.5 -29t18.5 -20q0 -6 -4 -11l-250 -339q-9 -12 -12 -12q-6 0 -19.5 6.5t-27 14.5t-23.5 16.5t-10 12.5q0 1 8 15z" />
<glyph unicode="&#x38e;" horiz-adv-x="1215" d="M607 0q-20 0 -33 -0.5t-22 -0.5t-14.5 -0.5t-11.5 -0.5q-15 0 -18 12q-4 13 -58.5 172.5t-154.5 456.5q-58 173 -106 311.5t-83 236.5t-54.5 151.5t-19.5 57.5q0 5 4 9.5t10 4.5q9 0 29 -1t68 -1t66 1t27 1q14 0 18 -15q3 -14 53.5 -186.5t152.5 -499.5 q27 -86 47.5 -150.5t38.5 -118.5t35 -103t36 -105h4q18 55 34.5 105.5t34 105.5t37.5 118.5t46 145.5q103 327 152.5 500.5t52.5 187.5q4 15 19 15q8 0 24 -1t57 -1q46 0 64 1t26 1q6 0 10 -4.5t4 -9.5q0 -3 -10.5 -33t-28.5 -82t-43 -122.5t-54 -154t-61 -176.5t-64 -190 q-100 -297 -156 -456t-60 -172q-3 -12 -18 -12q-12 0 -27.5 1t-52.5 1zM721 1982q4 6 7 7.5t6 1.5q9 0 24.5 -10t38.5 -25q29 -18 47.5 -29t18.5 -20q0 -6 -4 -11l-250 -339q-9 -12 -12 -12q-6 0 -19.5 6.5t-27 14.5t-23.5 16.5t-10 12.5q0 1 8 15z" />
<glyph unicode="&#x1ffb;" horiz-adv-x="1781" d="M882 213q-31 -79 -74 -126.5t-90 -73.5t-94.5 -34.5t-86.5 -8.5q-108 0 -190.5 44.5t-138.5 122.5t-84.5 183.5t-28.5 228.5q0 112 21.5 214t55 190.5t74 162t77.5 129t66.5 91t40.5 48.5q29 33 41 41.5t14 8.5q7 0 26.5 -13.5t40.5 -30.5t37.5 -32.5t16.5 -19.5t-24 -31 t-60 -75t-77.5 -116t-77.5 -153.5t-60 -186.5t-24 -216q0 -95 18 -174.5t53 -137.5t85.5 -90.5t115.5 -32.5q50 0 88 19t64.5 50.5t44 71.5t27.5 82t14 83t4 74q0 21 -1 42.5t-1 28.5q0 9 3.5 13t15.5 4q7 0 23.5 -1t52.5 -1t52.5 1t23.5 1q19 0 19 -15q0 -6 -1 -28t-1 -45 q0 -35 4 -77t14.5 -84t28 -81.5t44.5 -70t64.5 -49t87.5 -18.5q65 0 115.5 31.5t85 88.5t52.5 135.5t18 172.5q0 114 -24 215.5t-60.5 187.5t-79 154.5t-79 117.5t-60.5 76.5t-24 31.5q0 6 17 22t38.5 33t42 30t27.5 13q1 0 12 -8t41 -41q11 -13 40.5 -48t67 -90t78 -127.5 t74 -160.5t55.5 -189.5t22 -213.5q0 -122 -28.5 -228.5t-85 -186t-141.5 -125.5t-197 -46q-70 0 -125 18t-97.5 50t-73 77t-51.5 98h-4zM1004 1982q4 6 7 7.5t6 1.5q9 0 24.5 -10t38.5 -25q29 -18 47.5 -29t18.5 -20q0 -6 -4 -11l-250 -339q-9 -12 -12 -12q-6 0 -19.5 6.5 t-27 14.5t-23.5 16.5t-10 12.5q0 1 8 15z" />
<glyph unicode="&#x1f7d;" horiz-adv-x="1781" d="M882 213q-31 -79 -74 -126.5t-90 -73.5t-94.5 -34.5t-86.5 -8.5q-108 0 -190.5 44.5t-138.5 122.5t-84.5 183.5t-28.5 228.5q0 112 21.5 214t55 190.5t74 162t77.5 129t66.5 91t40.5 48.5q29 33 41 41.5t14 8.5q7 0 26.5 -13.5t40.5 -30.5t37.5 -32.5t16.5 -19.5t-24 -31 t-60 -75t-77.5 -116t-77.5 -153.5t-60 -186.5t-24 -216q0 -95 18 -174.5t53 -137.5t85.5 -90.5t115.5 -32.5q50 0 88 19t64.5 50.5t44 71.5t27.5 82t14 83t4 74q0 21 -1 42.5t-1 28.5q0 9 3.5 13t15.5 4q7 0 23.5 -1t52.5 -1t52.5 1t23.5 1q19 0 19 -15q0 -6 -1 -28t-1 -45 q0 -35 4 -77t14.5 -84t28 -81.5t44.5 -70t64.5 -49t87.5 -18.5q65 0 115.5 31.5t85 88.5t52.5 135.5t18 172.5q0 114 -24 215.5t-60.5 187.5t-79 154.5t-79 117.5t-60.5 76.5t-24 31.5q0 6 17 22t38.5 33t42 30t27.5 13q1 0 12 -8t41 -41q11 -13 40.5 -48t67 -90t78 -127.5 t74 -160.5t55.5 -189.5t22 -213.5q0 -122 -28.5 -228.5t-85 -186t-141.5 -125.5t-197 -46q-70 0 -125 18t-97.5 50t-73 77t-51.5 98h-4zM1004 1982q4 6 7 7.5t6 1.5q9 0 24.5 -10t38.5 -25q29 -18 47.5 -29t18.5 -20q0 -6 -4 -11l-250 -339q-9 -12 -12 -12q-6 0 -19.5 6.5 t-27 14.5t-23.5 16.5t-10 12.5q0 1 8 15z" />
<glyph unicode="&#x3ce;" horiz-adv-x="1781" d="M882 213q-31 -79 -74 -126.5t-90 -73.5t-94.5 -34.5t-86.5 -8.5q-108 0 -190.5 44.5t-138.5 122.5t-84.5 183.5t-28.5 228.5q0 112 21.5 214t55 190.5t74 162t77.5 129t66.5 91t40.5 48.5q29 33 41 41.5t14 8.5q7 0 26.5 -13.5t40.5 -30.5t37.5 -32.5t16.5 -19.5t-24 -31 t-60 -75t-77.5 -116t-77.5 -153.5t-60 -186.5t-24 -216q0 -95 18 -174.5t53 -137.5t85.5 -90.5t115.5 -32.5q50 0 88 19t64.5 50.5t44 71.5t27.5 82t14 83t4 74q0 21 -1 42.5t-1 28.5q0 9 3.5 13t15.5 4q7 0 23.5 -1t52.5 -1t52.5 1t23.5 1q19 0 19 -15q0 -6 -1 -28t-1 -45 q0 -35 4 -77t14.5 -84t28 -81.5t44.5 -70t64.5 -49t87.5 -18.5q65 0 115.5 31.5t85 88.5t52.5 135.5t18 172.5q0 114 -24 215.5t-60.5 187.5t-79 154.5t-79 117.5t-60.5 76.5t-24 31.5q0 6 17 22t38.5 33t42 30t27.5 13q1 0 12 -8t41 -41q11 -13 40.5 -48t67 -90t78 -127.5 t74 -160.5t55.5 -189.5t22 -213.5q0 -122 -28.5 -228.5t-85 -186t-141.5 -125.5t-197 -46q-70 0 -125 18t-97.5 50t-73 77t-51.5 98h-4zM1004 1982q4 6 7 7.5t6 1.5q9 0 24.5 -10t38.5 -25q29 -18 47.5 -29t18.5 -20q0 -6 -4 -11l-250 -339q-9 -12 -12 -12q-6 0 -19.5 6.5 t-27 14.5t-23.5 16.5t-10 12.5q0 1 8 15z" />
<glyph unicode="&#x38f;" horiz-adv-x="1781" d="M882 213q-31 -79 -74 -126.5t-90 -73.5t-94.5 -34.5t-86.5 -8.5q-108 0 -190.5 44.5t-138.5 122.5t-84.5 183.5t-28.5 228.5q0 112 21.5 214t55 190.5t74 162t77.5 129t66.5 91t40.5 48.5q29 33 41 41.5t14 8.5q7 0 26.5 -13.5t40.5 -30.5t37.5 -32.5t16.5 -19.5t-24 -31 t-60 -75t-77.5 -116t-77.5 -153.5t-60 -186.5t-24 -216q0 -95 18 -174.5t53 -137.5t85.5 -90.5t115.5 -32.5q50 0 88 19t64.5 50.5t44 71.5t27.5 82t14 83t4 74q0 21 -1 42.5t-1 28.5q0 9 3.5 13t15.5 4q7 0 23.5 -1t52.5 -1t52.5 1t23.5 1q19 0 19 -15q0 -6 -1 -28t-1 -45 q0 -35 4 -77t14.5 -84t28 -81.5t44.5 -70t64.5 -49t87.5 -18.5q65 0 115.5 31.5t85 88.5t52.5 135.5t18 172.5q0 114 -24 215.5t-60.5 187.5t-79 154.5t-79 117.5t-60.5 76.5t-24 31.5q0 6 17 22t38.5 33t42 30t27.5 13q1 0 12 -8t41 -41q11 -13 40.5 -48t67 -90t78 -127.5 t74 -160.5t55.5 -189.5t22 -213.5q0 -122 -28.5 -228.5t-85 -186t-141.5 -125.5t-197 -46q-70 0 -125 18t-97.5 50t-73 77t-51.5 98h-4zM1004 1982q4 6 7 7.5t6 1.5q9 0 24.5 -10t38.5 -25q29 -18 47.5 -29t18.5 -20q0 -6 -4 -11l-250 -339q-9 -12 -12 -12q-6 0 -19.5 6.5 t-27 14.5t-23.5 16.5t-10 12.5q0 1 8 15z" />
<glyph unicode="&#x1fd3;" horiz-adv-x="580" d="M-86 1669q0 54 32.5 84t79.5 30q46 0 77.5 -29.5t31.5 -84.5q0 -54 -32.5 -84t-78.5 -30t-78 29.5t-32 84.5zM445 1669q0 54 32.5 84t79.5 30q46 0 77.5 -29.5t31.5 -84.5q0 -54 -32.5 -84t-78.5 -30t-78 29.5t-32 84.5zM375 1980q3 6 6.5 7.5t6.5 1.5q9 0 20.5 -8 t35.5 -22q29 -17 44.5 -26t15.5 -18q0 -6 -4 -11l-241 -347q-9 -12 -12 -12q-6 0 -18.5 5.5t-24.5 13t-21.5 15.5t-9.5 12q0 3 7 16zM186 1394q0 16 17 16q8 0 30 -1t58 -1q37 0 56.5 1t29.5 1q17 0 17 -16q0 -6 -2 -52t-5 -130t-5 -204.5t-2 -276.5q0 -341 7 -523.5 t7 -193.5q0 -16 -17 -16q-8 0 -30 1t-58 1q-37 0 -56.5 -1t-29.5 -1q-17 0 -17 16q0 11 7 188.5t7 518.5q0 156 -2 278.5t-5 208t-5 133t-2 53.5z" />
<glyph unicode="&#x390;" horiz-adv-x="580" d="M-86 1669q0 54 32.5 84t79.5 30q46 0 77.5 -29.5t31.5 -84.5q0 -54 -32.5 -84t-78.5 -30t-78 29.5t-32 84.5zM445 1669q0 54 32.5 84t79.5 30q46 0 77.5 -29.5t31.5 -84.5q0 -54 -32.5 -84t-78.5 -30t-78 29.5t-32 84.5zM375 1980q3 6 6.5 7.5t6.5 1.5q9 0 20.5 -8 t35.5 -22q29 -17 44.5 -26t15.5 -18q0 -6 -4 -11l-241 -347q-9 -12 -12 -12q-6 0 -18.5 5.5t-24.5 13t-21.5 15.5t-9.5 12q0 3 7 16zM186 1394q0 16 17 16q8 0 30 -1t58 -1q37 0 56.5 1t29.5 1q17 0 17 -16q0 -6 -2 -52t-5 -130t-5 -204.5t-2 -276.5q0 -341 7 -523.5 t7 -193.5q0 -16 -17 -16q-8 0 -30 1t-58 1q-37 0 -56.5 -1t-29.5 -1q-17 0 -17 16q0 11 7 188.5t7 518.5q0 156 -2 278.5t-5 208t-5 133t-2 53.5z" />
<glyph unicode="&#x3b1;" horiz-adv-x="1230" d="M602 457q-161 0 -239 -3q-66 -208 -99 -319t-35 -122q-4 -15 -19 -15q-8 0 -24 1t-57 1q-46 0 -64 -1t-26 -1q-6 0 -10 4.5t-4 9.5q0 2 10.5 32.5t29.5 82.5t44.5 122.5t55.5 154t63.5 176.5t66.5 190q103 297 160.5 456t61.5 172q3 12 19 12q6 0 12 -0.5t15 -0.5 t21.5 -0.5t31.5 -0.5q20 0 33 0.5t22 0.5t14.5 0.5t11.5 0.5q16 0 19 -12q4 -13 60 -172.5t159 -456.5q60 -173 110 -311.5t86 -236.5t56 -151.5t20 -57.5q0 -5 -4 -9.5t-10 -4.5q-9 0 -29 1t-68 1t-66 -1t-27 -1q-14 0 -18 15q-2 11 -36 121t-101 321q-40 1 -101 1.5 t-145 0.5zM770 699q-28 86 -49.5 150t-40.5 118t-36.5 103.5t-37.5 105.5h-4q-19 -56 -36 -106t-35 -105t-39 -118.5t-48 -145.5l-29 -88q35 -1 83 -1h111q61 0 108 0.5t80 1.5q-7 20 -13.5 41t-13.5 44z" />
<glyph unicode="&#x391;" horiz-adv-x="1230" d="M602 457q-161 0 -239 -3q-66 -208 -99 -319t-35 -122q-4 -15 -19 -15q-8 0 -24 1t-57 1q-46 0 -64 -1t-26 -1q-6 0 -10 4.5t-4 9.5q0 2 10.5 32.5t29.5 82.5t44.5 122.5t55.5 154t63.5 176.5t66.5 190q103 297 160.5 456t61.5 172q3 12 19 12q6 0 12 -0.5t15 -0.5 t21.5 -0.5t31.5 -0.5q20 0 33 0.5t22 0.5t14.5 0.5t11.5 0.5q16 0 19 -12q4 -13 60 -172.5t159 -456.5q60 -173 110 -311.5t86 -236.5t56 -151.5t20 -57.5q0 -5 -4 -9.5t-10 -4.5q-9 0 -29 1t-68 1t-66 -1t-27 -1q-14 0 -18 15q-2 11 -36 121t-101 321q-40 1 -101 1.5 t-145 0.5zM770 699q-28 86 -49.5 150t-40.5 118t-36.5 103.5t-37.5 105.5h-4q-19 -56 -36 -106t-35 -105t-39 -118.5t-48 -145.5l-29 -88q35 -1 83 -1h111q61 0 108 0.5t80 1.5q-7 20 -13.5 41t-13.5 44z" />
<glyph unicode="&#x3b2;" horiz-adv-x="1148" d="M188 1394q0 10 11 12q15 3 48 7.5t74.5 8.5t87.5 7t88 3q228 0 346.5 -89.5t118.5 -257.5q0 -112 -53 -193t-153 -132v-6q75 -20 130 -55.5t91 -83t53.5 -104.5t17.5 -121q0 -73 -22 -140.5t-67 -120.5q-35 -42 -82.5 -71.5t-105 -47.5t-123.5 -26.5t-138 -8.5 q-70 0 -148.5 7t-156.5 20q-19 3 -19 15q0 9 7 185t7 519q0 156 -2 278.5t-4 208t-4 133t-2 53.5zM383 134q32 -5 65 -6.5t61 -1.5q74 0 137.5 12.5t110.5 42.5t74 79t27 123q0 72 -26 124.5t-74 87t-116 51.5t-152 17q-26 0 -54.5 -1.5t-57.5 -5.5q0 -117 0.5 -202 t1 -145.5t1.5 -102t2 -72.5zM378 798q14 -1 28.5 -1.5t31.5 -0.5q66 0 127 13t108.5 43t76 79.5t28.5 121.5q0 108 -67 167.5t-206 59.5q-20 0 -53 -1.5t-70 -5.5q-2 -64 -3 -179t-1 -296z" />
<glyph unicode="&#x392;" horiz-adv-x="1148" d="M188 1394q0 10 11 12q15 3 48 7.5t74.5 8.5t87.5 7t88 3q228 0 346.5 -89.5t118.5 -257.5q0 -112 -53 -193t-153 -132v-6q75 -20 130 -55.5t91 -83t53.5 -104.5t17.5 -121q0 -73 -22 -140.5t-67 -120.5q-35 -42 -82.5 -71.5t-105 -47.5t-123.5 -26.5t-138 -8.5 q-70 0 -148.5 7t-156.5 20q-19 3 -19 15q0 9 7 185t7 519q0 156 -2 278.5t-4 208t-4 133t-2 53.5zM383 134q32 -5 65 -6.5t61 -1.5q74 0 137.5 12.5t110.5 42.5t74 79t27 123q0 72 -26 124.5t-74 87t-116 51.5t-152 17q-26 0 -54.5 -1.5t-57.5 -5.5q0 -117 0.5 -202 t1 -145.5t1.5 -102t2 -72.5zM378 798q14 -1 28.5 -1.5t31.5 -0.5q66 0 127 13t108.5 43t76 79.5t28.5 121.5q0 108 -67 167.5t-206 59.5q-20 0 -53 -1.5t-70 -5.5q-2 -64 -3 -179t-1 -296z" />
<glyph unicode="&#x3b3;" horiz-adv-x="949" d="M186 1394q0 16 17 16q16 0 104 -1t263 -1q73 0 134 0.5t105 0.5t69.5 0.5t29.5 0.5q16 0 16 -17q0 -8 -0.5 -22.5t-0.5 -41.5t0.5 -43t0.5 -22q0 -17 -16 -17q-3 0 -46.5 1t-115.5 2t-165.5 2t-195.5 1q-1 -36 -2 -94t-1.5 -128t-1 -147.5t-0.5 -152.5q1 -343 7.5 -524.5 t6.5 -192.5q0 -16 -17 -16q-8 0 -30 1t-58 1q-37 0 -56.5 -1t-29.5 -1q-17 0 -17 16q0 11 7 188.5t7 518.5q0 156 -2 278.5t-5 208t-5 133t-2 53.5z" />
<glyph unicode="&#x393;" horiz-adv-x="949" d="M186 1394q0 16 17 16q16 0 104 -1t263 -1q73 0 134 0.5t105 0.5t69.5 0.5t29.5 0.5q16 0 16 -17q0 -8 -0.5 -22.5t-0.5 -41.5t0.5 -43t0.5 -22q0 -17 -16 -17q-3 0 -46.5 1t-115.5 2t-165.5 2t-195.5 1q-1 -36 -2 -94t-1.5 -128t-1 -147.5t-0.5 -152.5q1 -343 7.5 -524.5 t6.5 -192.5q0 -16 -17 -16q-8 0 -30 1t-58 1q-37 0 -56.5 -1t-29.5 -1q-17 0 -17 16q0 11 7 188.5t7 518.5q0 156 -2 278.5t-5 208t-5 133t-2 53.5z" />
<glyph unicode="&#x3b4;" horiz-adv-x="1231" d="M606 2q-152 0 -257.5 -0.5t-173 -1.5t-99.5 -1.5t-36 -0.5q-6 0 -10 4.5t-4 9.5q0 2 10.5 32.5t29.5 82.5t44.5 122.5t55.5 154t63 176.5t67 190q103 297 160.5 456t61.5 172q3 12 19 12q6 0 12 -0.5t15 -0.5t21.5 -0.5t31.5 -0.5q20 0 33 0.5t22 0.5t14.5 0.5t11.5 0.5 q16 0 19 -12q4 -13 60 -172.5t159 -456.5q60 -173 110 -311.5t86.5 -236.5t57 -151.5t20.5 -57.5q0 -5 -4 -9.5t-10 -4.5q-5 0 -38 0.5t-103 1.5t-180 1.5t-269 0.5zM941 172q-42 136 -85 267.5t-86 264.5q-27 85 -48.5 148.5t-40.5 117t-36.5 102.5t-37.5 104h-4 q-19 -55 -36 -105t-35 -104t-38.5 -117t-47.5 -144q-60 -181 -102 -314t-68 -219q32 -2 119.5 -2.5t217.5 -0.5h113.5t96.5 0.5t73.5 1t44.5 0.5z" />
<glyph unicode="&#x394;" horiz-adv-x="1231" d="M606 2q-152 0 -257.5 -0.5t-173 -1.5t-99.5 -1.5t-36 -0.5q-6 0 -10 4.5t-4 9.5q0 2 10.5 32.5t29.5 82.5t44.5 122.5t55.5 154t63 176.5t67 190q103 297 160.5 456t61.5 172q3 12 19 12q6 0 12 -0.5t15 -0.5t21.5 -0.5t31.5 -0.5q20 0 33 0.5t22 0.5t14.5 0.5t11.5 0.5 q16 0 19 -12q4 -13 60 -172.5t159 -456.5q60 -173 110 -311.5t86.5 -236.5t57 -151.5t20.5 -57.5q0 -5 -4 -9.5t-10 -4.5q-5 0 -38 0.5t-103 1.5t-180 1.5t-269 0.5zM941 172q-42 136 -85 267.5t-86 264.5q-27 85 -48.5 148.5t-40.5 117t-36.5 102.5t-37.5 104h-4 q-19 -55 -36 -105t-35 -104t-38.5 -117t-47.5 -144q-60 -181 -102 -314t-68 -219q32 -2 119.5 -2.5t217.5 -0.5h113.5t96.5 0.5t73.5 1t44.5 0.5z" />
<glyph unicode="&#x3b5;" horiz-adv-x="1199" d="M783 123q66 0 117.5 10t88 22t57.5 22t27 10q10 0 17 -13q9 -18 17 -38t14 -37t9.5 -28.5t3.5 -14.5q0 -6 -3 -9t-9 -6q-87 -42 -179.5 -56.5t-172.5 -14.5q-144 0 -267 42t-212.5 129.5t-140.5 223t-51 322.5q0 193 54.5 334.5t149.5 234t223 137.5t275 45q73 0 153 -14 t157 -52q6 -3 9 -6t3 -10q0 -3 -5 -17t-12.5 -32.5t-15.5 -38.5t-15 -33q-3 -6 -6.5 -9.5t-9.5 -3.5t-25.5 10t-53 21.5t-81.5 21.5t-111 10q-87 0 -170.5 -23t-152 -78t-115 -145t-60.5 -225q202 0 337.5 1t218 2t119 2t40.5 1q16 0 16 -17q0 -8 -0.5 -23.5t-0.5 -42.5 t0.5 -44t0.5 -23q0 -17 -16 -17q-4 0 -42.5 1t-123 2t-220 2t-333.5 1q6 -138 45 -239t104 -167t154 -98t194 -32z" />
<glyph unicode="&#x395;" horiz-adv-x="1199" d="M783 123q66 0 117.5 10t88 22t57.5 22t27 10q10 0 17 -13q9 -18 17 -38t14 -37t9.5 -28.5t3.5 -14.5q0 -6 -3 -9t-9 -6q-87 -42 -179.5 -56.5t-172.5 -14.5q-144 0 -267 42t-212.5 129.5t-140.5 223t-51 322.5q0 193 54.5 334.5t149.5 234t223 137.5t275 45q73 0 153 -14 t157 -52q6 -3 9 -6t3 -10q0 -3 -5 -17t-12.5 -32.5t-15.5 -38.5t-15 -33q-3 -6 -6.5 -9.5t-9.5 -3.5t-25.5 10t-53 21.5t-81.5 21.5t-111 10q-87 0 -170.5 -23t-152 -78t-115 -145t-60.5 -225q202 0 337.5 1t218 2t119 2t40.5 1q16 0 16 -17q0 -8 -0.5 -23.5t-0.5 -42.5 t0.5 -44t0.5 -23q0 -17 -16 -17q-4 0 -42.5 1t-123 2t-220 2t-333.5 1q6 -138 45 -239t104 -167t154 -98t194 -32z" />
<glyph unicode="&#x3b6;" horiz-adv-x="1158" d="M584 2q-242 0 -359 -2t-124 -2q-16 0 -16 17q0 8 0.5 20t0.5 39q0 24 -0.5 34.5t-0.5 16.5t1.5 10t5.5 9q1 1 31.5 46.5t85 127t130 196t165.5 252.5q105 161 184.5 284.5t126.5 200.5h-230q-86 0 -162 -1t-133 -2t-90.5 -2t-35.5 -1q-16 0 -16 17q0 6 0.5 23t0.5 44 t-0.5 41.5t-0.5 22.5q0 17 16 17q3 0 27.5 -0.5t74.5 -1.5t129 -1.5t190 -0.5q223 0 331.5 2t114.5 2q16 0 16 -17q0 -8 -0.5 -21t-0.5 -36q0 -26 0.5 -37t0.5 -17t-1.5 -10t-5.5 -9q-1 -1 -30.5 -43t-81 -118.5t-123 -183t-155.5 -235.5q-115 -175 -201.5 -308.5 t-138.5 -217.5h262q96 0 181 1t148.5 2t101 2t39.5 1q16 0 16 -17q0 -6 -0.5 -23t-0.5 -44t0.5 -41.5t0.5 -22.5q0 -17 -16 -17q-3 0 -30 0.5t-81.5 1.5t-140 1.5t-206.5 0.5z" />
<glyph unicode="&#x396;" horiz-adv-x="1158" d="M584 2q-242 0 -359 -2t-124 -2q-16 0 -16 17q0 8 0.5 20t0.5 39q0 24 -0.5 34.5t-0.5 16.5t1.5 10t5.5 9q1 1 31.5 46.5t85 127t130 196t165.5 252.5q105 161 184.5 284.5t126.5 200.5h-230q-86 0 -162 -1t-133 -2t-90.5 -2t-35.5 -1q-16 0 -16 17q0 6 0.5 23t0.5 44 t-0.5 41.5t-0.5 22.5q0 17 16 17q3 0 27.5 -0.5t74.5 -1.5t129 -1.5t190 -0.5q223 0 331.5 2t114.5 2q16 0 16 -17q0 -8 -0.5 -21t-0.5 -36q0 -26 0.5 -37t0.5 -17t-1.5 -10t-5.5 -9q-1 -1 -30.5 -43t-81 -118.5t-123 -183t-155.5 -235.5q-115 -175 -201.5 -308.5 t-138.5 -217.5h262q96 0 181 1t148.5 2t101 2t39.5 1q16 0 16 -17q0 -6 -0.5 -23t-0.5 -44t0.5 -41.5t0.5 -22.5q0 -17 -16 -17q-3 0 -30 0.5t-81.5 1.5t-140 1.5t-206.5 0.5z" />
<glyph unicode="&#x3b7;" horiz-adv-x="1434" d="M186 1394q0 16 17 16q8 0 30 -1t58 -1q37 0 56.5 1t29.5 1q17 0 17 -16q0 -11 -6 -155t-8 -412q100 -3 342 -3q118 0 199.5 1t132.5 2q-1 131 -3 234t-4.5 175.5t-4.5 112.5t-2 45q0 16 17 16q8 0 30 -1t58 -1q37 0 56.5 1t29.5 1q17 0 17 -16q0 -6 -2 -52t-5 -130 t-5 -204.5t-2 -276.5q0 -341 7 -523.5t7 -193.5q0 -16 -17 -16q-8 0 -30 1t-58 1q-37 0 -56.5 -1t-29.5 -1q-17 0 -17 16q0 11 6.5 173.5t7.5 478.5q-101 3 -342 3q-118 0 -200.5 -1t-131.5 -3q1 -312 7.5 -476t6.5 -175q0 -16 -17 -16q-8 0 -30 1t-58 1q-37 0 -56.5 -1 t-29.5 -1q-17 0 -17 16q0 11 7 188.5t7 518.5q0 156 -2 278.5t-5 208t-5 133t-2 53.5z" />
<glyph unicode="&#x397;" horiz-adv-x="1434" d="M186 1394q0 16 17 16q8 0 30 -1t58 -1q37 0 56.5 1t29.5 1q17 0 17 -16q0 -11 -6 -155t-8 -412q100 -3 342 -3q118 0 199.5 1t132.5 2q-1 131 -3 234t-4.5 175.5t-4.5 112.5t-2 45q0 16 17 16q8 0 30 -1t58 -1q37 0 56.5 1t29.5 1q17 0 17 -16q0 -6 -2 -52t-5 -130 t-5 -204.5t-2 -276.5q0 -341 7 -523.5t7 -193.5q0 -16 -17 -16q-8 0 -30 1t-58 1q-37 0 -56.5 -1t-29.5 -1q-17 0 -17 16q0 11 6.5 173.5t7.5 478.5q-101 3 -342 3q-118 0 -200.5 -1t-131.5 -3q1 -312 7.5 -476t6.5 -175q0 -16 -17 -16q-8 0 -30 1t-58 1q-37 0 -56.5 -1 t-29.5 -1q-17 0 -17 16q0 11 7 188.5t7 518.5q0 156 -2 278.5t-5 208t-5 133t-2 53.5z" />
<glyph unicode="&#x3b8;" horiz-adv-x="1466" d="M99 696q0 177 51 315t138.5 233t204 144.5t246.5 49.5q128 0 242 -48.5t199.5 -141.5t135.5 -228t50 -308q0 -177 -51.5 -315t-139 -233t-203.5 -144.5t-246 -49.5q-128 0 -242 48.5t-199.5 141.5t-135.5 228t-50 308zM737 121q85 0 162 34.5t137 100t98.5 161.5 t46.5 219q-66 2 -181 2.5t-274 0.5q-155 0 -265.5 -1t-175.5 -3q10 -123 49.5 -218.5t100.5 -161.5t138.5 -100t163.5 -34zM727 1287q-84 0 -159 -32.5t-134 -95.5t-98 -154t-50 -208q66 -2 180.5 -2.5t272.5 -0.5q153 0 262.5 1t175.5 2q-13 117 -53.5 208.5t-100.5 154 t-136 95t-160 32.5z" />
<glyph unicode="&#x398;" horiz-adv-x="1466" d="M99 696q0 177 51 315t138.5 233t204 144.5t246.5 49.5q128 0 242 -48.5t199.5 -141.5t135.5 -228t50 -308q0 -177 -51.5 -315t-139 -233t-203.5 -144.5t-246 -49.5q-128 0 -242 48.5t-199.5 141.5t-135.5 228t-50 308zM737 121q85 0 162 34.5t137 100t98.5 161.5 t46.5 219q-66 2 -181 2.5t-274 0.5q-155 0 -265.5 -1t-175.5 -3q10 -123 49.5 -218.5t100.5 -161.5t138.5 -100t163.5 -34zM727 1287q-84 0 -159 -32.5t-134 -95.5t-98 -154t-50 -208q66 -2 180.5 -2.5t272.5 -0.5q153 0 262.5 1t175.5 2q-13 117 -53.5 208.5t-100.5 154 t-136 95t-160 32.5z" />
<glyph unicode="&#x3b9;" horiz-adv-x="580" d="M186 1394q0 16 17 16q8 0 30 -1t58 -1q37 0 56.5 1t29.5 1q17 0 17 -16q0 -6 -2 -52t-5 -130t-5 -204.5t-2 -276.5q0 -341 7 -523.5t7 -193.5q0 -16 -17 -16q-8 0 -30 1t-58 1q-37 0 -56.5 -1t-29.5 -1q-17 0 -17 16q0 11 7 188.5t7 518.5q0 156 -2 278.5t-5 208t-5 133 t-2 53.5z" />
<glyph unicode="&#x399;" horiz-adv-x="580" d="M186 1394q0 16 17 16q8 0 30 -1t58 -1q37 0 56.5 1t29.5 1q17 0 17 -16q0 -6 -2 -52t-5 -130t-5 -204.5t-2 -276.5q0 -341 7 -523.5t7 -193.5q0 -16 -17 -16q-8 0 -30 1t-58 1q-37 0 -56.5 -1t-29.5 -1q-17 0 -17 16q0 11 7 188.5t7 518.5q0 156 -2 278.5t-5 208t-5 133 t-2 53.5z" />
<glyph unicode="&#x3ba;" horiz-adv-x="1203" d="M186 1394q0 16 17 16q8 0 30 -1t58 -1q37 0 56.5 1t29.5 1q17 0 17 -16q0 -6 -2 -52t-5 -130t-5 -204.5t-2 -276.5q97 118 172 210.5t130.5 163.5t94.5 122t64.5 85.5t39 54t19.5 28.5q5 8 10.5 11.5t16.5 3.5q4 0 7.5 -0.5t11.5 -0.5t23 -0.5t43 -0.5q54 0 80.5 1 t30.5 1q9 0 12 -4t3 -9q0 -6 -29.5 -39t-94.5 -108.5t-169.5 -201t-254.5 -316.5q121 -149 212 -259.5t157.5 -189t110.5 -129.5t70 -81.5t37 -44t11 -17.5q0 -5 -3 -9t-12 -4q-4 0 -32 1t-82 1q-28 0 -46 -0.5t-29.5 -0.5t-18.5 -0.5t-11 -0.5q-11 0 -16.5 3.5t-10.5 11.5 q-9 13 -44 61t-101 133t-165.5 209t-236.5 290q0 -331 7 -506t7 -186q0 -16 -17 -16q-8 0 -30 1t-58 1q-37 0 -56.5 -1t-29.5 -1q-17 0 -17 16q0 11 7 188.5t7 518.5q0 156 -2 278.5t-5 208t-5 133t-2 53.5z" />
<glyph unicode="&#x39a;" horiz-adv-x="1203" d="M186 1394q0 16 17 16q8 0 30 -1t58 -1q37 0 56.5 1t29.5 1q17 0 17 -16q0 -6 -2 -52t-5 -130t-5 -204.5t-2 -276.5q97 118 172 210.5t130.5 163.5t94.5 122t64.5 85.5t39 54t19.5 28.5q5 8 10.5 11.5t16.5 3.5q4 0 7.5 -0.5t11.5 -0.5t23 -0.5t43 -0.5q54 0 80.5 1 t30.5 1q9 0 12 -4t3 -9q0 -6 -29.5 -39t-94.5 -108.5t-169.5 -201t-254.5 -316.5q121 -149 212 -259.5t157.5 -189t110.5 -129.5t70 -81.5t37 -44t11 -17.5q0 -5 -3 -9t-12 -4q-4 0 -32 1t-82 1q-28 0 -46 -0.5t-29.5 -0.5t-18.5 -0.5t-11 -0.5q-11 0 -16.5 3.5t-10.5 11.5 q-9 13 -44 61t-101 133t-165.5 209t-236.5 290q0 -331 7 -506t7 -186q0 -16 -17 -16q-8 0 -30 1t-58 1q-37 0 -56.5 -1t-29.5 -1q-17 0 -17 16q0 11 7 188.5t7 518.5q0 156 -2 278.5t-5 208t-5 133t-2 53.5z" />
<glyph unicode="&#x3bb;" horiz-adv-x="1215" d="M608 1408q20 0 33 0.5t22 0.5t14.5 0.5t11.5 0.5q16 0 18 -12q4 -13 58.5 -172.5t154.5 -456.5q58 -173 106 -311.5t83 -236.5t54.5 -151.5t19.5 -57.5q0 -5 -4 -9.5t-10 -4.5q-9 0 -29 1t-68 1t-66 -1t-27 -1q-14 0 -18 15q-3 13 -53.5 186t-152.5 500q-27 86 -47.5 150 t-38.5 118t-35 103.5t-36 105.5h-4q-18 -56 -34.5 -106t-34 -105t-37.5 -118.5t-46 -145.5q-103 -327 -152.5 -500.5t-52.5 -187.5q-4 -15 -19 -15q-8 0 -24 1t-57 1q-46 0 -64 -1t-26 -1q-6 0 -10 4.5t-4 9.5q0 2 10.5 32.5t28.5 82.5t43 122.5t54 154t61 176.5t64 190 q100 297 156 456t60 172q2 12 18 12q6 0 12 -0.5t15 -0.5t21.5 -0.5t31.5 -0.5z" />
<glyph unicode="&#x39b;" horiz-adv-x="1215" d="M608 1408q20 0 33 0.5t22 0.5t14.5 0.5t11.5 0.5q16 0 18 -12q4 -13 58.5 -172.5t154.5 -456.5q58 -173 106 -311.5t83 -236.5t54.5 -151.5t19.5 -57.5q0 -5 -4 -9.5t-10 -4.5q-9 0 -29 1t-68 1t-66 -1t-27 -1q-14 0 -18 15q-3 13 -53.5 186t-152.5 500q-27 86 -47.5 150 t-38.5 118t-35 103.5t-36 105.5h-4q-18 -56 -34.5 -106t-34 -105t-37.5 -118.5t-46 -145.5q-103 -327 -152.5 -500.5t-52.5 -187.5q-4 -15 -19 -15q-8 0 -24 1t-57 1q-46 0 -64 -1t-26 -1q-6 0 -10 4.5t-4 9.5q0 2 10.5 32.5t28.5 82.5t43 122.5t54 154t61 176.5t64 190 q100 297 156 456t60 172q2 12 18 12q6 0 12 -0.5t15 -0.5t21.5 -0.5t31.5 -0.5z" />
<glyph unicode="&#x3bc;" horiz-adv-x="1722" d="M810 321q-8 0 -12.5 4t-9.5 13q-9 16 -26.5 46.5t-49 83.5t-80 134t-118.5 199q-17 28 -35.5 59t-37.5 61.5t-37 59.5t-34 53l-5 -2v-301q0 -341 7 -523.5t7 -193.5q0 -16 -17 -16q-8 0 -28 1t-52 1q-34 0 -52 -1t-27 -1q-17 0 -17 16q0 11 7 188.5t7 518.5 q0 156 -2 278.5t-5 208t-5 133t-2 53.5q0 16 17 16q8 0 25 -1t49 -1q34 0 50.5 1t26.5 1q4 0 7.5 -4t13 -20t27 -48t49.5 -88.5t81 -141.5t121 -206q26 -43 55.5 -91.5t58.5 -96.5t56 -91.5t48 -77.5q38 67 83 146t100 173q75 130 126.5 221t85 151.5t52 95.5t28.5 52 t14 21.5t8 4.5q10 0 26.5 -1t50.5 -1q32 0 49 1t25 1q17 0 17 -16q0 -6 -2 -53.5t-5 -133t-5 -208t-2 -278.5q0 -341 7 -518.5t7 -188.5q0 -16 -17 -16q-10 0 -29 1t-55 1q-35 0 -56 -1t-29 -1q-17 0 -17 16q0 11 7 193.5t7 523.5v307l-4 2q-19 -33 -40 -69.5t-42 -73.5 t-41.5 -72.5t-38.5 -65.5q-66 -112 -109 -186.5t-70 -122.5t-41.5 -74.5t-22.5 -41.5q-5 -8 -8.5 -10.5t-11.5 -2.5q-7 0 -19.5 0.5t-35.5 0.5q-24 0 -36 -0.5t-17 -0.5z" />
<glyph unicode="&#x39c;" horiz-adv-x="1722" d="M810 321q-8 0 -12.5 4t-9.5 13q-9 16 -26.5 46.5t-49 83.5t-80 134t-118.5 199q-17 28 -35.5 59t-37.5 61.5t-37 59.5t-34 53l-5 -2v-301q0 -341 7 -523.5t7 -193.5q0 -16 -17 -16q-8 0 -28 1t-52 1q-34 0 -52 -1t-27 -1q-17 0 -17 16q0 11 7 188.5t7 518.5 q0 156 -2 278.5t-5 208t-5 133t-2 53.5q0 16 17 16q8 0 25 -1t49 -1q34 0 50.5 1t26.5 1q4 0 7.5 -4t13 -20t27 -48t49.5 -88.5t81 -141.5t121 -206q26 -43 55.5 -91.5t58.5 -96.5t56 -91.5t48 -77.5q38 67 83 146t100 173q75 130 126.5 221t85 151.5t52 95.5t28.5 52 t14 21.5t8 4.5q10 0 26.5 -1t50.5 -1q32 0 49 1t25 1q17 0 17 -16q0 -6 -2 -53.5t-5 -133t-5 -208t-2 -278.5q0 -341 7 -518.5t7 -188.5q0 -16 -17 -16q-10 0 -29 1t-55 1q-35 0 -56 -1t-29 -1q-17 0 -17 16q0 11 7 193.5t7 523.5v307l-4 2q-19 -33 -40 -69.5t-42 -73.5 t-41.5 -72.5t-38.5 -65.5q-66 -112 -109 -186.5t-70 -122.5t-41.5 -74.5t-22.5 -41.5q-5 -8 -8.5 -10.5t-11.5 -2.5q-7 0 -19.5 0.5t-35.5 0.5q-24 0 -36 -0.5t-17 -0.5z" />
<glyph unicode="&#x3bd;" horiz-adv-x="1452" d="M1073 1394q0 16 17 16q8 0 28 -1t52 -1q34 0 52 1t27 1q17 0 17 -16q0 -6 -2 -52t-5 -130t-5 -204.5t-2 -276.5q0 -341 7 -523.5t7 -193.5q0 -16 -17 -16q-8 0 -25 1t-49 1t-49.5 -1t-30.5 -1q-5 0 -10 5.5t-18.5 27.5t-40 65t-75 118t-123.5 187t-185 271 q-85 125 -152.5 227t-120.5 181l-5 -2v-347q0 -341 7 -523.5t7 -193.5q0 -16 -17 -16q-8 0 -28 1t-52 1q-34 0 -52 -1t-27 -1q-17 0 -17 16q0 11 7 188.5t7 518.5q0 156 -2 278.5t-5 208t-5 133t-2 53.5q0 16 17 16q8 0 25 -1t49 -1q34 0 50.5 1t26.5 1q6 0 11 -5t18 -25 t38.5 -60.5t71 -110.5t116 -175.5t173.5 -255.5q96 -139 170 -250t130 -192l4 2q1 78 1 171.5v211.5q0 156 -2 278.5t-5 208t-5 133t-2 53.5z" />
<glyph unicode="&#x39d;" horiz-adv-x="1452" d="M1073 1394q0 16 17 16q8 0 28 -1t52 -1q34 0 52 1t27 1q17 0 17 -16q0 -6 -2 -52t-5 -130t-5 -204.5t-2 -276.5q0 -341 7 -523.5t7 -193.5q0 -16 -17 -16q-8 0 -25 1t-49 1t-49.5 -1t-30.5 -1q-5 0 -10 5.5t-18.5 27.5t-40 65t-75 118t-123.5 187t-185 271 q-85 125 -152.5 227t-120.5 181l-5 -2v-347q0 -341 7 -523.5t7 -193.5q0 -16 -17 -16q-8 0 -28 1t-52 1q-34 0 -52 -1t-27 -1q-17 0 -17 16q0 11 7 188.5t7 518.5q0 156 -2 278.5t-5 208t-5 133t-2 53.5q0 16 17 16q8 0 25 -1t49 -1q34 0 50.5 1t26.5 1q6 0 11 -5t18 -25 t38.5 -60.5t71 -110.5t116 -175.5t173.5 -255.5q96 -139 170 -250t130 -192l4 2q1 78 1 171.5v211.5q0 156 -2 278.5t-5 208t-5 133t-2 53.5z" />
<glyph unicode="&#x3be;" horiz-adv-x="1211" d="M1107 1280q0 -11 -5.5 -17.5t-13.5 -11.5q-17 -13 -59.5 -46t-113 -88t-170.5 -133t-232 -180l1 -4h128q157 0 235 3t82 3q13 0 13 -17q0 -6 -0.5 -20t-0.5 -41t0.5 -35.5t0.5 -15.5q0 -9 -3 -13.5t-5 -6.5q-192 -154 -348.5 -281t-265.5 -215l1 -4h276q96 0 182.5 1 t151.5 2t104.5 2t41.5 1q16 0 16 -17q0 -6 -0.5 -22t-0.5 -43t0.5 -42t0.5 -23q0 -17 -16 -17q-7 0 -126.5 2.5t-361.5 2.5q-121 0 -217 -1t-164 -1.5t-106 -1.5t-41 -1q-16 0 -16 17q0 8 0.5 20.5t0.5 39.5q0 24 -0.5 34.5t-0.5 16.5q0 12 6 18.5t14 12.5q1 1 44 35 t122.5 96.5t192 152t252.5 201.5l-1 4h-116q-96 0 -159 -0.5t-100.5 -1.5t-53.5 -1.5t-19 -0.5q-18 0 -18 17q0 8 0.5 20t0.5 39q0 24 -0.5 34.5t-0.5 16.5q0 14 10 21q181 140 326.5 255t251.5 199l-1 4h-234q-86 0 -170 -1t-150 -2t-107.5 -2t-43.5 -1q-16 0 -16 17 q0 6 0.5 23t0.5 44t-0.5 42t-0.5 23q0 17 16 17q3 0 37 -1t95.5 -1.5t149.5 -1.5t199 -1t200.5 1t152.5 1.5t98 1.5t38 1q16 0 16 -17q0 -8 -0.5 -21.5t-0.5 -36.5q0 -26 0.5 -37t0.5 -17z" />
<glyph unicode="&#x39e;" horiz-adv-x="1211" d="M1107 1280q0 -11 -5.5 -17.5t-13.5 -11.5q-17 -13 -59.5 -46t-113 -88t-170.5 -133t-232 -180l1 -4h128q157 0 235 3t82 3q13 0 13 -17q0 -6 -0.5 -20t-0.5 -41t0.5 -35.5t0.5 -15.5q0 -9 -3 -13.5t-5 -6.5q-192 -154 -348.5 -281t-265.5 -215l1 -4h276q96 0 182.5 1 t151.5 2t104.5 2t41.5 1q16 0 16 -17q0 -6 -0.5 -22t-0.5 -43t0.5 -42t0.5 -23q0 -17 -16 -17q-7 0 -126.5 2.5t-361.5 2.5q-121 0 -217 -1t-164 -1.5t-106 -1.5t-41 -1q-16 0 -16 17q0 8 0.5 20.5t0.5 39.5q0 24 -0.5 34.5t-0.5 16.5q0 12 6 18.5t14 12.5q1 1 44 35 t122.5 96.5t192 152t252.5 201.5l-1 4h-116q-96 0 -159 -0.5t-100.5 -1.5t-53.5 -1.5t-19 -0.5q-18 0 -18 17q0 8 0.5 20t0.5 39q0 24 -0.5 34.5t-0.5 16.5q0 14 10 21q181 140 326.5 255t251.5 199l-1 4h-234q-86 0 -170 -1t-150 -2t-107.5 -2t-43.5 -1q-16 0 -16 17 q0 6 0.5 23t0.5 44t-0.5 42t-0.5 23q0 17 16 17q3 0 37 -1t95.5 -1.5t149.5 -1.5t199 -1t200.5 1t152.5 1.5t98 1.5t38 1q16 0 16 -17q0 -8 -0.5 -21.5t-0.5 -36.5q0 -26 0.5 -37t0.5 -17z" />
<glyph unicode="&#x3bf;" horiz-adv-x="1466" d="M287 711q0 -141 36 -250.5t97.5 -184.5t143.5 -114t173 -39q90 0 170 38.5t140 112t95.5 180t35.5 243.5q0 141 -36.5 250.5t-98 184.5t-143.5 114t-173 39q-90 0 -170 -38.5t-140 -112t-95 -180t-35 -243.5zM99 696q0 177 51 315t138.5 233t204 144.5t246.5 49.5 q128 0 242 -48.5t199.5 -141.5t135.5 -228t50 -308q0 -177 -51.5 -315t-139 -233t-203.5 -144.5t-246 -49.5q-128 0 -242 48.5t-199.5 141.5t-135.5 228t-50 308z" />
<glyph unicode="&#x39f;" horiz-adv-x="1466" d="M287 711q0 -141 36 -250.5t97.5 -184.5t143.5 -114t173 -39q90 0 170 38.5t140 112t95.5 180t35.5 243.5q0 141 -36.5 250.5t-98 184.5t-143.5 114t-173 39q-90 0 -170 -38.5t-140 -112t-95 -180t-35 -243.5zM99 696q0 177 51 315t138.5 233t204 144.5t246.5 49.5 q128 0 242 -48.5t199.5 -141.5t135.5 -228t50 -308q0 -177 -51.5 -315t-139 -233t-203.5 -144.5t-246 -49.5q-128 0 -242 48.5t-199.5 141.5t-135.5 228t-50 308z" />
<glyph unicode="&#x3c0;" horiz-adv-x="1396" d="M697 1406q133 0 225.5 0.5t151.5 1.5t87 1.5t32 0.5q17 0 17 -16q0 -6 -2 -52t-5 -130t-5 -204.5t-2 -276.5q0 -341 7 -523.5t7 -193.5q0 -16 -17 -16q-8 0 -30 1t-58 1q-37 0 -56.5 -1t-29.5 -1q-17 0 -17 16q0 11 7 188.5t7 518.5q0 177 -2 310t-4 219q-122 3 -320 3 q-94 0 -169.5 -0.5t-135.5 -1.5q-2 -85 -3.5 -215t-1.5 -305q0 -341 7 -523.5t7 -193.5q0 -16 -17 -16q-8 0 -30 1t-58 1q-37 0 -56.5 -1t-29.5 -1q-17 0 -17 16q0 11 7 188.5t7 518.5q0 156 -2 278.5t-5 208t-5 133t-2 53.5q0 16 17 16q4 0 31.5 -0.5t86 -1.5t151 -1.5 t225.5 -0.5z" />
<glyph unicode="&#x3a0;" horiz-adv-x="1396" d="M697 1406q133 0 225.5 0.5t151.5 1.5t87 1.5t32 0.5q17 0 17 -16q0 -6 -2 -52t-5 -130t-5 -204.5t-2 -276.5q0 -341 7 -523.5t7 -193.5q0 -16 -17 -16q-8 0 -30 1t-58 1q-37 0 -56.5 -1t-29.5 -1q-17 0 -17 16q0 11 7 188.5t7 518.5q0 177 -2 310t-4 219q-122 3 -320 3 q-94 0 -169.5 -0.5t-135.5 -1.5q-2 -85 -3.5 -215t-1.5 -305q0 -341 7 -523.5t7 -193.5q0 -16 -17 -16q-8 0 -30 1t-58 1q-37 0 -56.5 -1t-29.5 -1q-17 0 -17 16q0 11 7 188.5t7 518.5q0 156 -2 278.5t-5 208t-5 133t-2 53.5q0 16 17 16q4 0 31.5 -0.5t86 -1.5t151 -1.5 t225.5 -0.5z" />
<glyph unicode="&#x3c1;" horiz-adv-x="1094" d="M188 1392q0 2 2 5t9 5q16 4 50.5 9t78.5 9.5t94.5 8t99.5 3.5q121 0 215 -28t159 -83t99 -137t34 -190q0 -119 -40.5 -207.5t-112 -147t-170 -87.5t-214.5 -29q-30 0 -56.5 1t-55.5 3q2 -245 8 -374.5t6 -138.5q0 -16 -17 -16q-8 0 -30 1t-58 1q-37 0 -56.5 -1t-29.5 -1 q-17 0 -17 16q0 11 7 189t7 521q0 156 -2 277.5t-4 206.5t-4 131.5t-2 52.5zM380 677q25 -2 47.5 -2.5t45.5 -0.5q79 0 147 15.5t118 51.5t78.5 94.5t28.5 145.5q0 141 -82 219.5t-248 78.5q-6 0 -20 -0.5t-32 -1.5t-38.5 -2.5t-39.5 -4.5q-1 -41 -2 -95.5t-1.5 -127 t-1 -164t-0.5 -206.5z" />
<glyph unicode="&#x3a1;" horiz-adv-x="1094" d="M188 1392q0 2 2 5t9 5q16 4 50.5 9t78.5 9.5t94.5 8t99.5 3.5q121 0 215 -28t159 -83t99 -137t34 -190q0 -119 -40.5 -207.5t-112 -147t-170 -87.5t-214.5 -29q-30 0 -56.5 1t-55.5 3q2 -245 8 -374.5t6 -138.5q0 -16 -17 -16q-8 0 -30 1t-58 1q-37 0 -56.5 -1t-29.5 -1 q-17 0 -17 16q0 11 7 189t7 521q0 156 -2 277.5t-4 206.5t-4 131.5t-2 52.5zM380 677q25 -2 47.5 -2.5t45.5 -0.5q79 0 147 15.5t118 51.5t78.5 94.5t28.5 145.5q0 141 -82 219.5t-248 78.5q-6 0 -20 -0.5t-32 -1.5t-38.5 -2.5t-39.5 -4.5q-1 -41 -2 -95.5t-1.5 -127 t-1 -164t-0.5 -206.5z" />
<glyph unicode="&#x3c3;" horiz-adv-x="1174" d="M783 123q66 0 117.5 10t88 22t57.5 22t27 10q10 0 17 -13q9 -18 17 -38t14 -37t9.5 -28.5t3.5 -14.5q0 -6 -3 -9t-9 -6q-87 -42 -179.5 -56.5t-172.5 -14.5q-144 0 -267 44t-212.5 133t-140.5 223.5t-51 316.5q0 188 54.5 329t149.5 234.5t223 140.5t275 47q73 0 153 -14 t157 -52q6 -3 9 -6t3 -10q0 -3 -5 -17t-12.5 -32.5t-15.5 -38.5t-15 -33q-3 -6 -6.5 -9.5t-9.5 -3.5t-25.5 10t-53 21.5t-81.5 21.5t-111 10q-95 0 -185.5 -30t-160.5 -98t-112.5 -178t-42.5 -271q0 -146 36.5 -255.5t102 -182.5t156.5 -110t201 -37z" />
<glyph unicode="&#x3c2;" horiz-adv-x="1174" d="M783 123q66 0 117.5 10t88 22t57.5 22t27 10q10 0 17 -13q9 -18 17 -38t14 -37t9.5 -28.5t3.5 -14.5q0 -6 -3 -9t-9 -6q-87 -42 -179.5 -56.5t-172.5 -14.5q-144 0 -267 44t-212.5 133t-140.5 223.5t-51 316.5q0 188 54.5 329t149.5 234.5t223 140.5t275 47q73 0 153 -14 t157 -52q6 -3 9 -6t3 -10q0 -3 -5 -17t-12.5 -32.5t-15.5 -38.5t-15 -33q-3 -6 -6.5 -9.5t-9.5 -3.5t-25.5 10t-53 21.5t-81.5 21.5t-111 10q-95 0 -185.5 -30t-160.5 -98t-112.5 -178t-42.5 -271q0 -146 36.5 -255.5t102 -182.5t156.5 -110t201 -37z" />
<glyph unicode="&#x3a3;" horiz-adv-x="1174" d="M783 123q66 0 117.5 10t88 22t57.5 22t27 10q10 0 17 -13q9 -18 17 -38t14 -37t9.5 -28.5t3.5 -14.5q0 -6 -3 -9t-9 -6q-87 -42 -179.5 -56.5t-172.5 -14.5q-144 0 -267 44t-212.5 133t-140.5 223.5t-51 316.5q0 188 54.5 329t149.5 234.5t223 140.5t275 47q73 0 153 -14 t157 -52q6 -3 9 -6t3 -10q0 -3 -5 -17t-12.5 -32.5t-15.5 -38.5t-15 -33q-3 -6 -6.5 -9.5t-9.5 -3.5t-25.5 10t-53 21.5t-81.5 21.5t-111 10q-95 0 -185.5 -30t-160.5 -98t-112.5 -178t-42.5 -271q0 -146 36.5 -255.5t102 -182.5t156.5 -110t201 -37z" />
<glyph unicode="&#x3c4;" horiz-adv-x="1092" d="M546 1406q137 0 231.5 0.5t154 1.5t87.5 1.5t32 0.5q16 0 16 -17q0 -8 -0.5 -22.5t-0.5 -41.5t0.5 -43t0.5 -22q0 -17 -16 -17q-2 0 -35.5 1t-89.5 2t-129.5 2t-156.5 1q-2 -85 -3 -215t-1 -307q0 -341 7 -523.5t7 -193.5q0 -16 -17 -16q-8 0 -30 1t-58 1q-37 0 -56.5 -1 t-29.5 -1q-17 0 -17 16q0 11 7 188.5t7 518.5q0 179 -1 312.5t-3 219.5q-86 0 -160.5 -1t-129.5 -2t-87 -2t-34 -1q-16 0 -16 17q0 6 0.5 22t0.5 43t-0.5 41.5t-0.5 22.5q0 17 16 17q4 0 32 -0.5t87.5 -1.5t154 -1.5t231.5 -0.5z" />
<glyph unicode="&#x3a4;" horiz-adv-x="1092" d="M546 1406q137 0 231.5 0.5t154 1.5t87.5 1.5t32 0.5q16 0 16 -17q0 -8 -0.5 -22.5t-0.5 -41.5t0.5 -43t0.5 -22q0 -17 -16 -17q-2 0 -35.5 1t-89.5 2t-129.5 2t-156.5 1q-2 -85 -3 -215t-1 -307q0 -341 7 -523.5t7 -193.5q0 -16 -17 -16q-8 0 -30 1t-58 1q-37 0 -56.5 -1 t-29.5 -1q-17 0 -17 16q0 11 7 188.5t7 518.5q0 179 -1 312.5t-3 219.5q-86 0 -160.5 -1t-129.5 -2t-87 -2t-34 -1q-16 0 -16 17q0 6 0.5 22t0.5 43t-0.5 41.5t-0.5 22.5q0 17 16 17q4 0 32 -0.5t87.5 -1.5t154 -1.5t231.5 -0.5z" />
<glyph unicode="&#x3c5;" horiz-adv-x="1215" d="M607 0q-20 0 -33 -0.5t-22 -0.5t-14.5 -0.5t-11.5 -0.5q-15 0 -18 12q-4 13 -58.5 172.5t-154.5 456.5q-58 173 -106 311.5t-83 236.5t-54.5 151.5t-19.5 57.5q0 5 4 9.5t10 4.5q9 0 29 -1t68 -1t66 1t27 1q14 0 18 -15q3 -14 53.5 -186.5t152.5 -499.5 q27 -86 47.5 -150.5t38.5 -118.5t35 -103t36 -105h4q18 55 34.5 105.5t34 105.5t37.5 118.5t46 145.5q103 327 152.5 500.5t52.5 187.5q4 15 19 15q8 0 24 -1t57 -1q46 0 64 1t26 1q6 0 10 -4.5t4 -9.5q0 -3 -10.5 -33t-28.5 -82t-43 -122.5t-54 -154t-61 -176.5t-64 -190 q-100 -297 -156 -456t-60 -172q-3 -12 -18 -12q-12 0 -27.5 1t-52.5 1z" />
<glyph unicode="&#x3a5;" horiz-adv-x="1215" d="M607 0q-20 0 -33 -0.5t-22 -0.5t-14.5 -0.5t-11.5 -0.5q-15 0 -18 12q-4 13 -58.5 172.5t-154.5 456.5q-58 173 -106 311.5t-83 236.5t-54.5 151.5t-19.5 57.5q0 5 4 9.5t10 4.5q9 0 29 -1t68 -1t66 1t27 1q14 0 18 -15q3 -14 53.5 -186.5t152.5 -499.5 q27 -86 47.5 -150.5t38.5 -118.5t35 -103t36 -105h4q18 55 34.5 105.5t34 105.5t37.5 118.5t46 145.5q103 327 152.5 500.5t52.5 187.5q4 15 19 15q8 0 24 -1t57 -1q46 0 64 1t26 1q6 0 10 -4.5t4 -9.5q0 -3 -10.5 -33t-28.5 -82t-43 -122.5t-54 -154t-61 -176.5t-64 -190 q-100 -297 -156 -456t-60 -172q-3 -12 -18 -12q-12 0 -27.5 1t-52.5 1z" />
<glyph unicode="&#x3c6;" horiz-adv-x="1425" d="M70 725q0 98 41 171t114 123.5t174.5 78.5t221.5 36q-2 122 -4.5 186t-2.5 72q0 9 3.5 13.5t14.5 4.5q7 0 27 -1t55 -1q36 0 54 1t25 1q19 0 19 -17q0 -8 -3 -72.5t-5 -185.5q120 -7 221 -34t174.5 -76.5t114.5 -122t41 -169.5q0 -98 -41 -171.5t-114.5 -123.5 t-174.5 -78.5t-221 -36.5q2 -146 5 -224.5t3 -86.5q0 -14 -19 -14q-5 0 -25.5 1t-55.5 1q-36 0 -54 -1t-25 -1q-19 0 -19 14q0 6 3 86t5 224q-121 6 -222 33t-174.5 76.5t-114.5 122.5t-41 171zM252 732q0 -63 27 -109t76 -77.5t117.5 -49.5t151.5 -24q0 54 0.5 113t0.5 124 q0 78 -0.5 147.5t-1.5 129.5q-83 -5 -151 -22t-117 -48t-76 -76.5t-27 -107.5zM801 724v-133t1 -120q82 6 150.5 23t117.5 48t76 76.5t27 107.5t-27 108t-76 77.5t-117.5 49.5t-150.5 24q-1 -57 -1 -122v-139z" />
<glyph unicode="&#x3a6;" horiz-adv-x="1425" d="M70 725q0 98 41 171t114 123.5t174.5 78.5t221.5 36q-2 122 -4.5 186t-2.5 72q0 9 3.5 13.5t14.5 4.5q7 0 27 -1t55 -1q36 0 54 1t25 1q19 0 19 -17q0 -8 -3 -72.5t-5 -185.5q120 -7 221 -34t174.5 -76.5t114.5 -122t41 -169.5q0 -98 -41 -171.5t-114.5 -123.5 t-174.5 -78.5t-221 -36.5q2 -146 5 -224.5t3 -86.5q0 -14 -19 -14q-5 0 -25.5 1t-55.5 1q-36 0 -54 -1t-25 -1q-19 0 -19 14q0 6 3 86t5 224q-121 6 -222 33t-174.5 76.5t-114.5 122.5t-41 171zM252 732q0 -63 27 -109t76 -77.5t117.5 -49.5t151.5 -24q0 54 0.5 113t0.5 124 q0 78 -0.5 147.5t-1.5 129.5q-83 -5 -151 -22t-117 -48t-76 -76.5t-27 -107.5zM801 724v-133t1 -120q82 6 150.5 23t117.5 48t76 76.5t27 107.5t-27 108t-76 77.5t-117.5 49.5t-150.5 24q-1 -57 -1 -122v-139z" />
<glyph unicode="&#x3c7;" horiz-adv-x="1124" d="M292 1017q-51 88 -93 158t-73 118.5t-48 75t-17 28.5q0 5 4 9t10 4q9 0 29 -1t68 -1q47 0 66.5 1t28.5 1q7 0 10.5 -3.5t8.5 -14.5q1 -4 12.5 -27t31.5 -61.5t47.5 -89.5t61.5 -111q21 -38 38 -67t31.5 -54.5t28.5 -48.5t29 -47h3q15 24 28 46.5t27 47t30 53t37 64.5 q82 142 119 215.5t41 81.5t7.5 12t11.5 4t24.5 -1t55.5 -1q23 0 38 0.5t24.5 0.5t15.5 0.5t10 0.5q6 0 10 -4t4 -9q0 -2 -19.5 -34t-51.5 -85t-73 -121.5t-84 -143.5q-60 -105 -100.5 -175t-62.5 -107l175 -303q53 -92 99 -168t79.5 -130.5t52.5 -85.5t19 -33q0 -5 -4 -9 t-10 -4q-9 0 -29 1t-68 1q-47 0 -66.5 -1t-28.5 -1q-11 0 -18 16q-2 3 -15.5 31t-36.5 73t-54 103.5t-67 121.5q-23 39 -40.5 70.5t-33 58.5t-29.5 51.5t-30 50.5h-3q-15 -26 -29 -50t-29 -50.5t-32 -57t-39 -68.5q-88 -151 -130.5 -236t-47.5 -96q-5 -10 -8.5 -14t-11.5 -4 t-24.5 1t-55.5 1q-23 0 -38 -0.5t-25 -0.5t-15.5 -0.5t-9.5 -0.5q-6 0 -10 4t-4 9q0 2 22 38.5t57 95t79.5 133.5t88.5 153q63 110 105.5 183.5t64.5 111.5q-20 34 -62.5 106t-106.5 185z" />
<glyph unicode="&#x3a7;" horiz-adv-x="1124" d="M292 1017q-51 88 -93 158t-73 118.5t-48 75t-17 28.5q0 5 4 9t10 4q9 0 29 -1t68 -1q47 0 66.5 1t28.5 1q7 0 10.5 -3.5t8.5 -14.5q1 -4 12.5 -27t31.5 -61.5t47.5 -89.5t61.5 -111q21 -38 38 -67t31.5 -54.5t28.5 -48.5t29 -47h3q15 24 28 46.5t27 47t30 53t37 64.5 q82 142 119 215.5t41 81.5t7.5 12t11.5 4t24.5 -1t55.5 -1q23 0 38 0.5t24.5 0.5t15.5 0.5t10 0.5q6 0 10 -4t4 -9q0 -2 -19.5 -34t-51.5 -85t-73 -121.5t-84 -143.5q-60 -105 -100.5 -175t-62.5 -107l175 -303q53 -92 99 -168t79.5 -130.5t52.5 -85.5t19 -33q0 -5 -4 -9 t-10 -4q-9 0 -29 1t-68 1q-47 0 -66.5 -1t-28.5 -1q-11 0 -18 16q-2 3 -15.5 31t-36.5 73t-54 103.5t-67 121.5q-23 39 -40.5 70.5t-33 58.5t-29.5 51.5t-30 50.5h-3q-15 -26 -29 -50t-29 -50.5t-32 -57t-39 -68.5q-88 -151 -130.5 -236t-47.5 -96q-5 -10 -8.5 -14t-11.5 -4 t-24.5 1t-55.5 1q-23 0 -38 -0.5t-25 -0.5t-15.5 -0.5t-9.5 -0.5q-6 0 -10 4t-4 9q0 2 22 38.5t57 95t79.5 133.5t88.5 153q63 110 105.5 183.5t64.5 111.5q-20 34 -62.5 106t-106.5 185z" />
<glyph unicode="&#x3c8;" horiz-adv-x="1456" d="M641 782q0 133 -1 243t-2.5 190.5t-2.5 126.5t-1 51q0 9 4 13t15 4q5 0 23 -1t53 -1q36 0 51.5 1t22.5 1q11 0 15 -4t4 -12q0 -5 -1 -50.5t-2.5 -125.5t-2.5 -191t-1 -246v-4q63 4 131 24.5t125 71.5t93.5 140t36.5 231q0 13 -0.5 29t-0.5 30t-0.5 24.5t-0.5 11.5 q0 5 3.5 8t14.5 3q5 0 20 -1t47 -1q33 0 46.5 1t20.5 1q17 0 20 -14q2 -11 3.5 -37t1.5 -56q0 -162 -44 -274.5t-120 -185t-178 -109.5t-219 -46q2 -303 8 -453t6 -161q0 -8 -4 -12t-15 -4q-5 0 -26.5 1t-56.5 1q-36 0 -55 -1t-26 -1q-19 0 -19 15q0 6 1.5 45.5t4 115 t4.5 188.5t3 266q-117 9 -219 45t-177.5 109t-119.5 187t-44 279v23.5t0.5 26t1.5 23t2 15.5q3 14 20 14q7 0 20.5 -1t45.5 -1t47 1t22 1q11 0 14 -3.5t3 -9.5q0 -5 -1 -27.5t-1 -48.5q0 -84 16.5 -164t59.5 -145t118.5 -110t192.5 -60z" />
<glyph unicode="&#x3a8;" horiz-adv-x="1456" d="M641 782q0 133 -1 243t-2.5 190.5t-2.5 126.5t-1 51q0 9 4 13t15 4q5 0 23 -1t53 -1q36 0 51.5 1t22.5 1q11 0 15 -4t4 -12q0 -5 -1 -50.5t-2.5 -125.5t-2.5 -191t-1 -246v-4q63 4 131 24.5t125 71.5t93.5 140t36.5 231q0 13 -0.5 29t-0.5 30t-0.5 24.5t-0.5 11.5 q0 5 3.5 8t14.5 3q5 0 20 -1t47 -1q33 0 46.5 1t20.5 1q17 0 20 -14q2 -11 3.5 -37t1.5 -56q0 -162 -44 -274.5t-120 -185t-178 -109.5t-219 -46q2 -303 8 -453t6 -161q0 -8 -4 -12t-15 -4q-5 0 -26.5 1t-56.5 1q-36 0 -55 -1t-26 -1q-19 0 -19 15q0 6 1.5 45.5t4 115 t4.5 188.5t3 266q-117 9 -219 45t-177.5 109t-119.5 187t-44 279v23.5t0.5 26t1.5 23t2 15.5q3 14 20 14q7 0 20.5 -1t45.5 -1t47 1t22 1q11 0 14 -3.5t3 -9.5q0 -5 -1 -27.5t-1 -48.5q0 -84 16.5 -164t59.5 -145t118.5 -110t192.5 -60z" />
<glyph unicode="&#x3c9;" horiz-adv-x="1781" d="M882 213q-31 -79 -74 -126.5t-90 -73.5t-94.5 -34.5t-86.5 -8.5q-108 0 -190.5 44.5t-138.5 122.5t-84.5 183.5t-28.5 228.5q0 112 21.5 214t55 190.5t74 162t77.5 129t66.5 91t40.5 48.5q29 33 41 41.5t14 8.5q7 0 26.5 -13.5t40.5 -30.5t37.5 -32.5t16.5 -19.5t-24 -31 t-60 -75t-77.5 -116t-77.5 -153.5t-60 -186.5t-24 -216q0 -95 18 -174.5t53 -137.5t85.5 -90.5t115.5 -32.5q50 0 88 19t64.5 50.5t44 71.5t27.5 82t14 83t4 74q0 21 -1 42.5t-1 28.5q0 9 3.5 13t15.5 4q7 0 23.5 -1t52.5 -1t52.5 1t23.5 1q19 0 19 -15q0 -6 -1 -28t-1 -45 q0 -35 4 -77t14.5 -84t28 -81.5t44.5 -70t64.5 -49t87.5 -18.5q65 0 115.5 31.5t85 88.5t52.5 135.5t18 172.5q0 114 -24 215.5t-60.5 187.5t-79 154.5t-79 117.5t-60.5 76.5t-24 31.5q0 6 17 22t38.5 33t42 30t27.5 13q1 0 12 -8t41 -41q11 -13 40.5 -48t67 -90t78 -127.5 t74 -160.5t55.5 -189.5t22 -213.5q0 -122 -28.5 -228.5t-85 -186t-141.5 -125.5t-197 -46q-70 0 -125 18t-97.5 50t-73 77t-51.5 98h-4z" />
<glyph unicode="&#x3a9;" horiz-adv-x="1781" d="M882 213q-31 -79 -74 -126.5t-90 -73.5t-94.5 -34.5t-86.5 -8.5q-108 0 -190.5 44.5t-138.5 122.5t-84.5 183.5t-28.5 228.5q0 112 21.5 214t55 190.5t74 162t77.5 129t66.5 91t40.5 48.5q29 33 41 41.5t14 8.5q7 0 26.5 -13.5t40.5 -30.5t37.5 -32.5t16.5 -19.5t-24 -31 t-60 -75t-77.5 -116t-77.5 -153.5t-60 -186.5t-24 -216q0 -95 18 -174.5t53 -137.5t85.5 -90.5t115.5 -32.5q50 0 88 19t64.5 50.5t44 71.5t27.5 82t14 83t4 74q0 21 -1 42.5t-1 28.5q0 9 3.5 13t15.5 4q7 0 23.5 -1t52.5 -1t52.5 1t23.5 1q19 0 19 -15q0 -6 -1 -28t-1 -45 q0 -35 4 -77t14.5 -84t28 -81.5t44.5 -70t64.5 -49t87.5 -18.5q65 0 115.5 31.5t85 88.5t52.5 135.5t18 172.5q0 114 -24 215.5t-60.5 187.5t-79 154.5t-79 117.5t-60.5 76.5t-24 31.5q0 6 17 22t38.5 33t42 30t27.5 13q1 0 12 -8t41 -41q11 -13 40.5 -48t67 -90t78 -127.5 t74 -160.5t55.5 -189.5t22 -213.5q0 -122 -28.5 -228.5t-85 -186t-141.5 -125.5t-197 -46q-70 0 -125 18t-97.5 50t-73 77t-51.5 98h-4z" />
<glyph unicode="&#x3ca;" horiz-adv-x="580" d="M186 1394q0 16 17 16q8 0 30 -1t58 -1q37 0 56.5 1t29.5 1q17 0 17 -16q0 -6 -2 -52t-5 -130t-5 -204.5t-2 -276.5q0 -341 7 -523.5t7 -193.5q0 -16 -17 -16q-8 0 -30 1t-58 1q-37 0 -56.5 -1t-29.5 -1q-17 0 -17 16q0 11 7 188.5t7 518.5q0 156 -2 278.5t-5 208t-5 133 t-2 53.5zM-46 1669q0 58 34.5 89.5t84.5 31.5q49 0 82.5 -31t33.5 -90q0 -58 -34.5 -89.5t-83.5 -31.5t-83 31t-34 90zM391 1669q0 58 34.5 89.5t84.5 31.5q49 0 82.5 -31t33.5 -90q0 -58 -34.5 -89.5t-83.5 -31.5t-83 31t-34 90z" />
<glyph unicode="&#x3aa;" horiz-adv-x="580" d="M186 1394q0 16 17 16q8 0 30 -1t58 -1q37 0 56.5 1t29.5 1q17 0 17 -16q0 -6 -2 -52t-5 -130t-5 -204.5t-2 -276.5q0 -341 7 -523.5t7 -193.5q0 -16 -17 -16q-8 0 -30 1t-58 1q-37 0 -56.5 -1t-29.5 -1q-17 0 -17 16q0 11 7 188.5t7 518.5q0 156 -2 278.5t-5 208t-5 133 t-2 53.5zM-46 1669q0 58 34.5 89.5t84.5 31.5q49 0 82.5 -31t33.5 -90q0 -58 -34.5 -89.5t-83.5 -31.5t-83 31t-34 90zM391 1669q0 58 34.5 89.5t84.5 31.5q49 0 82.5 -31t33.5 -90q0 -58 -34.5 -89.5t-83.5 -31.5t-83 31t-34 90z" />
<glyph unicode="&#x3cb;" horiz-adv-x="1215" d="M607 0q-20 0 -33 -0.5t-22 -0.5t-14.5 -0.5t-11.5 -0.5q-15 0 -18 12q-4 13 -58.5 172.5t-154.5 456.5q-58 173 -106 311.5t-83 236.5t-54.5 151.5t-19.5 57.5q0 5 4 9.5t10 4.5q9 0 29 -1t68 -1t66 1t27 1q14 0 18 -15q3 -14 53.5 -186.5t152.5 -499.5 q27 -86 47.5 -150.5t38.5 -118.5t35 -103t36 -105h4q18 55 34.5 105.5t34 105.5t37.5 118.5t46 145.5q103 327 152.5 500.5t52.5 187.5q4 15 19 15q8 0 24 -1t57 -1q46 0 64 1t26 1q6 0 10 -4.5t4 -9.5q0 -3 -10.5 -33t-28.5 -82t-43 -122.5t-54 -154t-61 -176.5t-64 -190 q-100 -297 -156 -456t-60 -172q-3 -12 -18 -12q-12 0 -27.5 1t-52.5 1zM271 1669q0 58 34.5 89.5t84.5 31.5q49 0 82.5 -31t33.5 -90q0 -58 -34.5 -89.5t-83.5 -31.5t-83 31t-34 90zM708 1669q0 58 34.5 89.5t84.5 31.5q49 0 82.5 -31t33.5 -90q0 -58 -34.5 -89.5 t-83.5 -31.5t-83 31t-34 90z" />
<glyph unicode="&#x3ab;" horiz-adv-x="1215" d="M607 0q-20 0 -33 -0.5t-22 -0.5t-14.5 -0.5t-11.5 -0.5q-15 0 -18 12q-4 13 -58.5 172.5t-154.5 456.5q-58 173 -106 311.5t-83 236.5t-54.5 151.5t-19.5 57.5q0 5 4 9.5t10 4.5q9 0 29 -1t68 -1t66 1t27 1q14 0 18 -15q3 -14 53.5 -186.5t152.5 -499.5 q27 -86 47.5 -150.5t38.5 -118.5t35 -103t36 -105h4q18 55 34.5 105.5t34 105.5t37.5 118.5t46 145.5q103 327 152.5 500.5t52.5 187.5q4 15 19 15q8 0 24 -1t57 -1q46 0 64 1t26 1q6 0 10 -4.5t4 -9.5q0 -3 -10.5 -33t-28.5 -82t-43 -122.5t-54 -154t-61 -176.5t-64 -190 q-100 -297 -156 -456t-60 -172q-3 -12 -18 -12q-12 0 -27.5 1t-52.5 1zM271 1669q0 58 34.5 89.5t84.5 31.5q49 0 82.5 -31t33.5 -90q0 -58 -34.5 -89.5t-83.5 -31.5t-83 31t-34 90zM708 1669q0 58 34.5 89.5t84.5 31.5q49 0 82.5 -31t33.5 -90q0 -58 -34.5 -89.5 t-83.5 -31.5t-83 31t-34 90z" />
<glyph unicode="&#x1fe3;" horiz-adv-x="1215" d="M231 1669q0 54 32.5 84t79.5 30q46 0 77.5 -29.5t31.5 -84.5q0 -54 -32.5 -84t-78.5 -30t-78 29.5t-32 84.5zM762 1669q0 54 32.5 84t79.5 30q46 0 77.5 -29.5t31.5 -84.5q0 -54 -32.5 -84t-78.5 -30t-78 29.5t-32 84.5zM692 1980q3 6 6.5 7.5t6.5 1.5q9 0 20.5 -8 t35.5 -22q29 -17 44.5 -26t15.5 -18q0 -6 -4 -11l-241 -347q-9 -12 -12 -12q-6 0 -18.5 5.5t-24.5 13t-21.5 15.5t-9.5 12q0 3 7 16zM607 0q-20 0 -33 -0.5t-22 -0.5t-14.5 -0.5t-11.5 -0.5q-15 0 -18 12q-4 13 -58.5 172.5t-154.5 456.5q-58 173 -106 311.5t-83 236.5 t-54.5 151.5t-19.5 57.5q0 5 4 9.5t10 4.5q9 0 29 -1t68 -1t66 1t27 1q14 0 18 -15q3 -14 53.5 -186.5t152.5 -499.5q27 -86 47.5 -150.5t38.5 -118.5t35 -103t36 -105h4q18 55 34.5 105.5t34 105.5t37.5 118.5t46 145.5q103 327 152.5 500.5t52.5 187.5q4 15 19 15 q8 0 24 -1t57 -1q46 0 64 1t26 1q6 0 10 -4.5t4 -9.5q0 -3 -10.5 -33t-28.5 -82t-43 -122.5t-54 -154t-61 -176.5t-64 -190q-100 -297 -156 -456t-60 -172q-3 -12 -18 -12q-12 0 -27.5 1t-52.5 1z" />
<glyph unicode="&#x3b0;" horiz-adv-x="1215" d="M231 1669q0 54 32.5 84t79.5 30q46 0 77.5 -29.5t31.5 -84.5q0 -54 -32.5 -84t-78.5 -30t-78 29.5t-32 84.5zM762 1669q0 54 32.5 84t79.5 30q46 0 77.5 -29.5t31.5 -84.5q0 -54 -32.5 -84t-78.5 -30t-78 29.5t-32 84.5zM692 1980q3 6 6.5 7.5t6.5 1.5q9 0 20.5 -8 t35.5 -22q29 -17 44.5 -26t15.5 -18q0 -6 -4 -11l-241 -347q-9 -12 -12 -12q-6 0 -18.5 5.5t-24.5 13t-21.5 15.5t-9.5 12q0 3 7 16zM607 0q-20 0 -33 -0.5t-22 -0.5t-14.5 -0.5t-11.5 -0.5q-15 0 -18 12q-4 13 -58.5 172.5t-154.5 456.5q-58 173 -106 311.5t-83 236.5 t-54.5 151.5t-19.5 57.5q0 5 4 9.5t10 4.5q9 0 29 -1t68 -1t66 1t27 1q14 0 18 -15q3 -14 53.5 -186.5t152.5 -499.5q27 -86 47.5 -150.5t38.5 -118.5t35 -103t36 -105h4q18 55 34.5 105.5t34 105.5t37.5 118.5t46 145.5q103 327 152.5 500.5t52.5 187.5q4 15 19 15 q8 0 24 -1t57 -1q46 0 64 1t26 1q6 0 10 -4.5t4 -9.5q0 -3 -10.5 -33t-28.5 -82t-43 -122.5t-54 -154t-61 -176.5t-64 -190q-100 -297 -156 -456t-60 -172q-3 -12 -18 -12q-12 0 -27.5 1t-52.5 1z" />
<glyph unicode="&#x3d7;" horiz-adv-x="951" d="M146 220q4 0 27.5 -15.5t61.5 -33.5t88.5 -33.5t109.5 -15.5q60 0 108 17.5t81.5 48.5t51.5 74.5t18 95.5q0 57 -20.5 100t-56 78.5t-83 65.5t-101.5 61q-57 33 -115 69.5t-105.5 84.5t-77.5 111t-30 148q0 79 28.5 145.5t81 114.5t128 75t170.5 27q84 0 158.5 -17 t130.5 -48q12 -7 12 -15q0 -3 -5 -17t-12.5 -32.5t-16 -38t-15.5 -32.5q-3 -6 -6.5 -9.5t-9.5 -3.5q-4 0 -23 9.5t-50 21t-73 21t-93 9.5q-63 0 -106.5 -15.5t-71 -41.5t-40 -60.5t-12.5 -71.5q0 -54 22 -95.5t58.5 -76t84.5 -64t99 -59.5q59 -35 118 -73t106 -87.5t76 -114 t29 -151.5q0 -94 -34 -169t-93.5 -128t-140.5 -81.5t-174 -28.5q-94 0 -181.5 26.5t-153.5 69.5q-8 5 -11 9t-3 10q0 3 5.5 18t13 33.5t16 38t15.5 33.5q6 13 16 13z" />
<glyph unicode="&#x3d9;" horiz-adv-x="1191" d="M70 932q0 121 42.5 215.5t115.5 159t169.5 98t204.5 33.5q106 0 200 -33t165 -96t112.5 -155.5t41.5 -211.5q0 -108 -34 -194.5t-92.5 -150t-138 -103t-170.5 -52.5q1 -109 3 -187.5t4 -130.5t3.5 -79t1.5 -31q0 -16 -17 -16q-8 0 -29.5 1t-57.5 1q-37 0 -56 -1t-29 -1 q-17 0 -17 16q0 4 1.5 30.5t3.5 78t4 130t3 187.5q-92 12 -171 50t-137.5 100.5t-92 148.5t-33.5 193zM258 941q0 -85 27.5 -151t74 -111.5t109 -69.5t131.5 -24q67 0 127.5 23.5t106.5 68t72.5 109t26.5 147.5q0 85 -27.5 150.5t-74.5 110.5t-109.5 68t-131.5 23 q-68 0 -128 -22.5t-105.5 -66.5t-72 -108t-26.5 -147z" />
<glyph unicode="&#x3d8;" horiz-adv-x="1191" d="M70 932q0 121 42.5 215.5t115.5 159t169.5 98t204.5 33.5q106 0 200 -33t165 -96t112.5 -155.5t41.5 -211.5q0 -108 -34 -194.5t-92.5 -150t-138 -103t-170.5 -52.5q1 -109 3 -187.5t4 -130.5t3.5 -79t1.5 -31q0 -16 -17 -16q-8 0 -29.5 1t-57.5 1q-37 0 -56 -1t-29 -1 q-17 0 -17 16q0 4 1.5 30.5t3.5 78t4 130t3 187.5q-92 12 -171 50t-137.5 100.5t-92 148.5t-33.5 193zM258 941q0 -85 27.5 -151t74 -111.5t109 -69.5t131.5 -24q67 0 127.5 23.5t106.5 68t72.5 109t26.5 147.5q0 85 -27.5 150.5t-74.5 110.5t-109.5 68t-131.5 23 q-68 0 -128 -22.5t-105.5 -66.5t-72 -108t-26.5 -147z" />
<glyph unicode="&#x3db;" horiz-adv-x="1013" d="M633 634q44 0 76.5 4.5t55 9.5t35 9.5t16.5 4.5q14 0 14 -14q0 -13 -2.5 -98t-2.5 -224q0 -65 1.5 -120t3 -96t3 -66t1.5 -30q0 -16 -17 -16q-8 0 -28.5 1t-56.5 1q-37 0 -56 -1t-29 -1q-17 0 -17 16q0 5 1.5 34.5t4 86.5t4.5 143t4 204h-24q-117 0 -218.5 28t-176 86 t-117.5 145.5t-43 206.5q0 123 44.5 215t122.5 153t183 91.5t226 30.5q73 0 153 -14t157 -52q6 -3 9 -6t3 -10q0 -3 -5 -17t-12.5 -32.5t-15.5 -38.5t-15 -33q-3 -6 -6.5 -9.5t-9.5 -3.5t-25.5 10t-53 21.5t-81.5 21.5t-111 10q-71 0 -139 -16.5t-121 -54.5t-85 -100.5 t-32 -153.5q0 -83 29 -144t80 -101.5t121 -60.5t152 -20z" />
<glyph unicode="&#x3da;" horiz-adv-x="1013" d="M633 634q44 0 76.5 4.5t55 9.5t35 9.5t16.5 4.5q14 0 14 -14q0 -13 -2.5 -98t-2.5 -224q0 -65 1.5 -120t3 -96t3 -66t1.5 -30q0 -16 -17 -16q-8 0 -28.5 1t-56.5 1q-37 0 -56 -1t-29 -1q-17 0 -17 16q0 5 1.5 34.5t4 86.5t4.5 143t4 204h-24q-117 0 -218.5 28t-176 86 t-117.5 145.5t-43 206.5q0 123 44.5 215t122.5 153t183 91.5t226 30.5q73 0 153 -14t157 -52q6 -3 9 -6t3 -10q0 -3 -5 -17t-12.5 -32.5t-15.5 -38.5t-15 -33q-3 -6 -6.5 -9.5t-9.5 -3.5t-25.5 10t-53 21.5t-81.5 21.5t-111 10q-71 0 -139 -16.5t-121 -54.5t-85 -100.5 t-32 -153.5q0 -83 29 -144t80 -101.5t121 -60.5t152 -20z" />
<glyph unicode="&#x3e1;" horiz-adv-x="1494" d="M457 1285q-72 0 -125 -9t-90 -20t-59.5 -20t-31.5 -9q-7 0 -13 12q-9 19 -17 38t-14 35t-9 27.5t-3 16.5q0 6 13 12q78 35 176 52.5t200 17.5q137 0 256.5 -34t219 -97t177.5 -151.5t132 -196.5t82 -233.5t28 -261.5q0 -69 -7 -138.5t-17.5 -131t-23 -109t-23.5 -72.5 q-4 -8 -7.5 -11.5t-14.5 -3.5q-7 0 -22 1t-50 1t-53.5 -1t-23.5 -1q-10 0 -13.5 3t-3.5 5q0 6 11.5 39t26 89.5t26 135.5t11.5 177q0 46 -3 90t-10 87q-149 -145 -258 -254t-182.5 -184.5t-114 -118.5t-51.5 -55q-7 -8 -14 -11t-22 -3q-4 0 -9 0.5t-14.5 0.5t-25 0.5 t-40.5 0.5q-29 0 -47.5 -0.5t-30 -0.5t-18 -0.5t-10.5 -0.5q-14 0 -14 13q0 4 14.5 19.5t50 49.5t95 90t149.5 142.5t213 207t286 282.5q-43 122 -118 220q-172 -164 -313.5 -299t-246 -235.5t-170 -164.5t-85.5 -85q-9 -10 -13 -12t-8 -2t-7.5 2t-9.5 8t-15.5 16.5 t-25.5 27.5t-27 27.5t-17.5 17t-9.5 10t-3 7.5q0 5 3 8.5t11 10.5q21 18 77.5 69.5t156.5 144.5t246 232t346 331q-90 72 -203.5 110.5t-249.5 38.5z" />
<glyph unicode="&#x3e0;" horiz-adv-x="1494" d="M457 1285q-72 0 -125 -9t-90 -20t-59.5 -20t-31.5 -9q-7 0 -13 12q-9 19 -17 38t-14 35t-9 27.5t-3 16.5q0 6 13 12q78 35 176 52.5t200 17.5q137 0 256.5 -34t219 -97t177.5 -151.5t132 -196.5t82 -233.5t28 -261.5q0 -69 -7 -138.5t-17.5 -131t-23 -109t-23.5 -72.5 q-4 -8 -7.5 -11.5t-14.5 -3.5q-7 0 -22 1t-50 1t-53.5 -1t-23.5 -1q-10 0 -13.5 3t-3.5 5q0 6 11.5 39t26 89.5t26 135.5t11.5 177q0 46 -3 90t-10 87q-149 -145 -258 -254t-182.5 -184.5t-114 -118.5t-51.5 -55q-7 -8 -14 -11t-22 -3q-4 0 -9 0.5t-14.5 0.5t-25 0.5 t-40.5 0.5q-29 0 -47.5 -0.5t-30 -0.5t-18 -0.5t-10.5 -0.5q-14 0 -14 13q0 4 14.5 19.5t50 49.5t95 90t149.5 142.5t213 207t286 282.5q-43 122 -118 220q-172 -164 -313.5 -299t-246 -235.5t-170 -164.5t-85.5 -85q-9 -10 -13 -12t-8 -2t-7.5 2t-9.5 8t-15.5 16.5 t-25.5 27.5t-27 27.5t-17.5 17t-9.5 10t-3 7.5q0 5 3 8.5t11 10.5q21 18 77.5 69.5t156.5 144.5t246 232t346 331q-90 72 -203.5 110.5t-249.5 38.5z" />
<glyph unicode="&#x1f08;" horiz-adv-x="1230" d="M602 457q-161 0 -239 -3q-66 -208 -99 -319t-35 -122q-4 -15 -19 -15q-8 0 -24 1t-57 1q-46 0 -64 -1t-26 -1q-6 0 -10 4.5t-4 9.5q0 2 10.5 32.5t29.5 82.5t44.5 122.5t55.5 154t63.5 176.5t66.5 190q103 297 160.5 456t61.5 172q3 12 19 12q6 0 12 -0.5t15 -0.5 t21.5 -0.5t31.5 -0.5q20 0 33 0.5t22 0.5t14.5 0.5t11.5 0.5q16 0 19 -12q4 -13 60 -172.5t159 -456.5q60 -173 110 -311.5t86 -236.5t56 -151.5t20 -57.5q0 -5 -4 -9.5t-10 -4.5q-9 0 -29 1t-68 1t-66 -1t-27 -1q-14 0 -18 15q-2 11 -36 121t-101 321q-40 1 -101 1.5 t-145 0.5zM770 699q-28 86 -49.5 150t-40.5 118t-36.5 103.5t-37.5 105.5h-4q-19 -56 -36 -106t-35 -105t-39 -118.5t-48 -145.5l-29 -88q35 -1 83 -1h111q61 0 108 0.5t80 1.5q-7 20 -13.5 41t-13.5 44zM513 1549q-6 2 -8 7t-2 16q0 35 3 44.5t8 9.5t12.5 -1.5t23.5 -1.5 q30 0 57.5 7.5t49 22.5t34 38t12.5 53q0 23 -8 42t-26.5 33t-48 21.5t-71.5 7.5q-20 0 -31 -1t-14 -1q-2 0 -3.5 1.5t-3 9t-2.5 23t-1 42.5q0 32 2.5 41.5t13.5 11.5q8 2 23.5 3t31.5 1q121 0 185.5 -55.5t64.5 -152.5q0 -51 -18 -92.5t-50.5 -71.5t-77 -46.5t-97.5 -16.5 q-15 0 -33.5 1.5t-25.5 3.5z" />
<glyph unicode="&#x1f00;" horiz-adv-x="1230" d="M602 457q-161 0 -239 -3q-66 -208 -99 -319t-35 -122q-4 -15 -19 -15q-8 0 -24 1t-57 1q-46 0 -64 -1t-26 -1q-6 0 -10 4.5t-4 9.5q0 2 10.5 32.5t29.5 82.5t44.5 122.5t55.5 154t63.5 176.5t66.5 190q103 297 160.5 456t61.5 172q3 12 19 12q6 0 12 -0.5t15 -0.5 t21.5 -0.5t31.5 -0.5q20 0 33 0.5t22 0.5t14.5 0.5t11.5 0.5q16 0 19 -12q4 -13 60 -172.5t159 -456.5q60 -173 110 -311.5t86 -236.5t56 -151.5t20 -57.5q0 -5 -4 -9.5t-10 -4.5q-9 0 -29 1t-68 1t-66 -1t-27 -1q-14 0 -18 15q-2 11 -36 121t-101 321q-40 1 -101 1.5 t-145 0.5zM770 699q-28 86 -49.5 150t-40.5 118t-36.5 103.5t-37.5 105.5h-4q-19 -56 -36 -106t-35 -105t-39 -118.5t-48 -145.5l-29 -88q35 -1 83 -1h111q61 0 108 0.5t80 1.5q-7 20 -13.5 41t-13.5 44zM513 1549q-6 2 -8 7t-2 16q0 35 3 44.5t8 9.5t12.5 -1.5t23.5 -1.5 q30 0 57.5 7.5t49 22.5t34 38t12.5 53q0 23 -8 42t-26.5 33t-48 21.5t-71.5 7.5q-20 0 -31 -1t-14 -1q-2 0 -3.5 1.5t-3 9t-2.5 23t-1 42.5q0 32 2.5 41.5t13.5 11.5q8 2 23.5 3t31.5 1q121 0 185.5 -55.5t64.5 -152.5q0 -51 -18 -92.5t-50.5 -71.5t-77 -46.5t-97.5 -16.5 q-15 0 -33.5 1.5t-25.5 3.5z" />
<glyph unicode="&#x1f09;" horiz-adv-x="1230" d="M602 457q-161 0 -239 -3q-66 -208 -99 -319t-35 -122q-4 -15 -19 -15q-8 0 -24 1t-57 1q-46 0 -64 -1t-26 -1q-6 0 -10 4.5t-4 9.5q0 2 10.5 32.5t29.5 82.5t44.5 122.5t55.5 154t63.5 176.5t66.5 190q103 297 160.5 456t61.5 172q3 12 19 12q6 0 12 -0.5t15 -0.5 t21.5 -0.5t31.5 -0.5q20 0 33 0.5t22 0.5t14.5 0.5t11.5 0.5q16 0 19 -12q4 -13 60 -172.5t159 -456.5q60 -173 110 -311.5t86 -236.5t56 -151.5t20 -57.5q0 -5 -4 -9.5t-10 -4.5q-9 0 -29 1t-68 1t-66 -1t-27 -1q-14 0 -18 15q-2 11 -36 121t-101 321q-40 1 -101 1.5 t-145 0.5zM770 699q-28 86 -49.5 150t-40.5 118t-36.5 103.5t-37.5 105.5h-4q-19 -56 -36 -106t-35 -105t-39 -118.5t-48 -145.5l-29 -88q35 -1 83 -1h111q61 0 108 0.5t80 1.5q-7 20 -13.5 41t-13.5 44zM719 1549q-7 -2 -25.5 -3.5t-33.5 -1.5q-54 0 -99 16.5t-77 45.5 t-49.5 70t-17.5 91q0 45 15.5 84t47 67.5t78.5 44.5t109 16q16 0 31.5 -1t23.5 -3q11 -2 13.5 -11.5t2.5 -41.5q0 -27 -1 -42.5t-2.5 -23t-3 -9t-3.5 -1.5q-3 0 -14 1t-31 1q-42 0 -71.5 -7.5t-48 -21.5t-26.5 -33t-8 -42q0 -30 12.5 -53t34 -38t49 -22.5t57.5 -7.5 q16 0 23.5 1.5t12.5 1.5t8 -9.5t3 -44.5q0 -11 -2 -16t-8 -7z" />
<glyph unicode="&#x1f01;" horiz-adv-x="1230" d="M602 457q-161 0 -239 -3q-66 -208 -99 -319t-35 -122q-4 -15 -19 -15q-8 0 -24 1t-57 1q-46 0 -64 -1t-26 -1q-6 0 -10 4.5t-4 9.5q0 2 10.5 32.5t29.5 82.5t44.5 122.5t55.5 154t63.5 176.5t66.5 190q103 297 160.5 456t61.5 172q3 12 19 12q6 0 12 -0.5t15 -0.5 t21.5 -0.5t31.5 -0.5q20 0 33 0.5t22 0.5t14.5 0.5t11.5 0.5q16 0 19 -12q4 -13 60 -172.5t159 -456.5q60 -173 110 -311.5t86 -236.5t56 -151.5t20 -57.5q0 -5 -4 -9.5t-10 -4.5q-9 0 -29 1t-68 1t-66 -1t-27 -1q-14 0 -18 15q-2 11 -36 121t-101 321q-40 1 -101 1.5 t-145 0.5zM770 699q-28 86 -49.5 150t-40.5 118t-36.5 103.5t-37.5 105.5h-4q-19 -56 -36 -106t-35 -105t-39 -118.5t-48 -145.5l-29 -88q35 -1 83 -1h111q61 0 108 0.5t80 1.5q-7 20 -13.5 41t-13.5 44zM719 1549q-7 -2 -25.5 -3.5t-33.5 -1.5q-54 0 -99 16.5t-77 45.5 t-49.5 70t-17.5 91q0 45 15.5 84t47 67.5t78.5 44.5t109 16q16 0 31.5 -1t23.5 -3q11 -2 13.5 -11.5t2.5 -41.5q0 -27 -1 -42.5t-2.5 -23t-3 -9t-3.5 -1.5q-3 0 -14 1t-31 1q-42 0 -71.5 -7.5t-48 -21.5t-26.5 -33t-8 -42q0 -30 12.5 -53t34 -38t49 -22.5t57.5 -7.5 q16 0 23.5 1.5t12.5 1.5t8 -9.5t3 -44.5q0 -11 -2 -16t-8 -7z" />
<glyph unicode="&#x1f0a;" horiz-adv-x="1230" d="M316 1549q-6 2 -8 7t-2 16q0 35 3 44.5t8 9.5t12.5 -1.5t23.5 -1.5q27 0 52 7.5t44 22.5t30.5 38t11.5 53q0 46 -31.5 75t-107.5 29q-20 0 -31 -1t-14 -1q-2 0 -3.5 1.5t-3 9t-2.5 23t-1 42.5q0 32 2.5 41.5t13.5 11.5q8 2 23.5 3t31.5 1q111 0 170.5 -55.5t59.5 -152.5 q0 -51 -17 -92.5t-47 -71.5t-72 -46.5t-91 -16.5q-14 0 -31.5 1.5t-23.5 3.5zM962 1610q8 -14 8 -15q0 -4 -10 -12.5t-23 -16.5t-26 -14.5t-19 -6.5q-3 0 -12 12l-240 339q-4 5 -4 11q0 9 17.5 19.5t46.5 28.5q23 15 37.5 24.5t23.5 9.5q3 0 6.5 -1.5t6.5 -7.5zM602 457 q-161 0 -239 -3q-66 -208 -99 -319t-35 -122q-4 -15 -19 -15q-8 0 -24 1t-57 1q-46 0 -64 -1t-26 -1q-6 0 -10 4.5t-4 9.5q0 2 10.5 32.5t29.5 82.5t44.5 122.5t55.5 154t63.5 176.5t66.5 190q103 297 160.5 456t61.5 172q3 12 19 12q6 0 12 -0.5t15 -0.5t21.5 -0.5 t31.5 -0.5q20 0 33 0.5t22 0.5t14.5 0.5t11.5 0.5q16 0 19 -12q4 -13 60 -172.5t159 -456.5q60 -173 110 -311.5t86 -236.5t56 -151.5t20 -57.5q0 -5 -4 -9.5t-10 -4.5q-9 0 -29 1t-68 1t-66 -1t-27 -1q-14 0 -18 15q-2 11 -36 121t-101 321q-40 1 -101 1.5t-145 0.5z M770 699q-28 86 -49.5 150t-40.5 118t-36.5 103.5t-37.5 105.5h-4q-19 -56 -36 -106t-35 -105t-39 -118.5t-48 -145.5l-29 -88q35 -1 83 -1h111q61 0 108 0.5t80 1.5q-7 20 -13.5 41t-13.5 44z" />
<glyph unicode="&#x1f02;" horiz-adv-x="1230" d="M316 1549q-6 2 -8 7t-2 16q0 35 3 44.5t8 9.5t12.5 -1.5t23.5 -1.5q27 0 52 7.5t44 22.5t30.5 38t11.5 53q0 46 -31.5 75t-107.5 29q-20 0 -31 -1t-14 -1q-2 0 -3.5 1.5t-3 9t-2.5 23t-1 42.5q0 32 2.5 41.5t13.5 11.5q8 2 23.5 3t31.5 1q111 0 170.5 -55.5t59.5 -152.5 q0 -51 -17 -92.5t-47 -71.5t-72 -46.5t-91 -16.5q-14 0 -31.5 1.5t-23.5 3.5zM962 1610q8 -14 8 -15q0 -4 -10 -12.5t-23 -16.5t-26 -14.5t-19 -6.5q-3 0 -12 12l-240 339q-4 5 -4 11q0 9 17.5 19.5t46.5 28.5q23 15 37.5 24.5t23.5 9.5q3 0 6.5 -1.5t6.5 -7.5zM602 457 q-161 0 -239 -3q-66 -208 -99 -319t-35 -122q-4 -15 -19 -15q-8 0 -24 1t-57 1q-46 0 -64 -1t-26 -1q-6 0 -10 4.5t-4 9.5q0 2 10.5 32.5t29.5 82.5t44.5 122.5t55.5 154t63.5 176.5t66.5 190q103 297 160.5 456t61.5 172q3 12 19 12q6 0 12 -0.5t15 -0.5t21.5 -0.5 t31.5 -0.5q20 0 33 0.5t22 0.5t14.5 0.5t11.5 0.5q16 0 19 -12q4 -13 60 -172.5t159 -456.5q60 -173 110 -311.5t86 -236.5t56 -151.5t20 -57.5q0 -5 -4 -9.5t-10 -4.5q-9 0 -29 1t-68 1t-66 -1t-27 -1q-14 0 -18 15q-2 11 -36 121t-101 321q-40 1 -101 1.5t-145 0.5z M770 699q-28 86 -49.5 150t-40.5 118t-36.5 103.5t-37.5 105.5h-4q-19 -56 -36 -106t-35 -105t-39 -118.5t-48 -145.5l-29 -88q35 -1 83 -1h111q61 0 108 0.5t80 1.5q-7 20 -13.5 41t-13.5 44z" />
<glyph unicode="&#x1f0b;" horiz-adv-x="1230" d="M937 1610q8 -14 8 -15q0 -4 -10 -12.5t-23 -16.5t-26 -14.5t-19 -6.5q-3 0 -12 12l-240 339q-4 5 -4 11q0 9 17.5 19.5t46.5 28.5q23 15 37.5 24.5t23.5 9.5q3 0 6.5 -1.5t6.5 -7.5zM537 1548q-6 -2 -23.5 -3.5t-31.5 -1.5q-53 0 -94.5 17t-71 47t-45 70.5t-15.5 88.5 q0 44 14 82.5t42.5 67.5t71.5 45.5t101 16.5q16 0 31.5 -1t23.5 -3q11 -2 13.5 -11.5t2.5 -41.5q0 -27 -1 -42.5t-2.5 -23t-3 -9t-3.5 -1.5q-3 0 -14 1t-31 1q-38 0 -64.5 -7.5t-43 -21.5t-24 -33t-7.5 -42q0 -30 11.5 -53t30.5 -38t44 -22.5t52 -7.5q16 0 23.5 1.5 t12.5 1.5t8 -9.5t3 -44.5q0 -11 -2 -16t-8 -7zM602 457q-161 0 -239 -3q-66 -208 -99 -319t-35 -122q-4 -15 -19 -15q-8 0 -24 1t-57 1q-46 0 -64 -1t-26 -1q-6 0 -10 4.5t-4 9.5q0 2 10.5 32.5t29.5 82.5t44.5 122.5t55.5 154t63.5 176.5t66.5 190q103 297 160.5 456 t61.5 172q3 12 19 12q6 0 12 -0.5t15 -0.5t21.5 -0.5t31.5 -0.5q20 0 33 0.5t22 0.5t14.5 0.5t11.5 0.5q16 0 19 -12q4 -13 60 -172.5t159 -456.5q60 -173 110 -311.5t86 -236.5t56 -151.5t20 -57.5q0 -5 -4 -9.5t-10 -4.5q-9 0 -29 1t-68 1t-66 -1t-27 -1q-14 0 -18 15 q-2 11 -36 121t-101 321q-40 1 -101 1.5t-145 0.5zM770 699q-28 86 -49.5 150t-40.5 118t-36.5 103.5t-37.5 105.5h-4q-19 -56 -36 -106t-35 -105t-39 -118.5t-48 -145.5l-29 -88q35 -1 83 -1h111q61 0 108 0.5t80 1.5q-7 20 -13.5 41t-13.5 44z" />
<glyph unicode="&#x1f03;" horiz-adv-x="1230" d="M937 1610q8 -14 8 -15q0 -4 -10 -12.5t-23 -16.5t-26 -14.5t-19 -6.5q-3 0 -12 12l-240 339q-4 5 -4 11q0 9 17.5 19.5t46.5 28.5q23 15 37.5 24.5t23.5 9.5q3 0 6.5 -1.5t6.5 -7.5zM537 1548q-6 -2 -23.5 -3.5t-31.5 -1.5q-53 0 -94.5 17t-71 47t-45 70.5t-15.5 88.5 q0 44 14 82.5t42.5 67.5t71.5 45.5t101 16.5q16 0 31.5 -1t23.5 -3q11 -2 13.5 -11.5t2.5 -41.5q0 -27 -1 -42.5t-2.5 -23t-3 -9t-3.5 -1.5q-3 0 -14 1t-31 1q-38 0 -64.5 -7.5t-43 -21.5t-24 -33t-7.5 -42q0 -30 11.5 -53t30.5 -38t44 -22.5t52 -7.5q16 0 23.5 1.5 t12.5 1.5t8 -9.5t3 -44.5q0 -11 -2 -16t-8 -7zM602 457q-161 0 -239 -3q-66 -208 -99 -319t-35 -122q-4 -15 -19 -15q-8 0 -24 1t-57 1q-46 0 -64 -1t-26 -1q-6 0 -10 4.5t-4 9.5q0 2 10.5 32.5t29.5 82.5t44.5 122.5t55.5 154t63.5 176.5t66.5 190q103 297 160.5 456 t61.5 172q3 12 19 12q6 0 12 -0.5t15 -0.5t21.5 -0.5t31.5 -0.5q20 0 33 0.5t22 0.5t14.5 0.5t11.5 0.5q16 0 19 -12q4 -13 60 -172.5t159 -456.5q60 -173 110 -311.5t86 -236.5t56 -151.5t20 -57.5q0 -5 -4 -9.5t-10 -4.5q-9 0 -29 1t-68 1t-66 -1t-27 -1q-14 0 -18 15 q-2 11 -36 121t-101 321q-40 1 -101 1.5t-145 0.5zM770 699q-28 86 -49.5 150t-40.5 118t-36.5 103.5t-37.5 105.5h-4q-19 -56 -36 -106t-35 -105t-39 -118.5t-48 -145.5l-29 -88q35 -1 83 -1h111q61 0 108 0.5t80 1.5q-7 20 -13.5 41t-13.5 44z" />
<glyph unicode="&#x1f0c;" horiz-adv-x="1230" d="M363 1549q-6 2 -8 7t-2 16q0 35 3 44.5t8 9.5t12.5 -1.5t23.5 -1.5q27 0 52 7.5t44 22.5t30.5 38t11.5 53q0 46 -31.5 75t-107.5 29q-20 0 -31 -1t-14 -1q-2 0 -3.5 1.5t-3 9t-2.5 23t-1 42.5q0 32 2.5 41.5t13.5 11.5q8 2 23.5 3t31.5 1q111 0 170.5 -55.5t59.5 -152.5 q0 -51 -17 -92.5t-47 -71.5t-72 -46.5t-91 -16.5q-14 0 -31.5 1.5t-23.5 3.5zM881 1980q3 6 6.5 7.5t6.5 1.5q9 0 23.5 -9.5t37.5 -24.5q29 -18 46.5 -28.5t17.5 -19.5q0 -6 -4 -11l-250 -339q-9 -12 -12 -12q-6 0 -19.5 6.5t-27 14.5t-23.5 16.5t-10 12.5q0 1 8 15z M602 457q-161 0 -239 -3q-66 -208 -99 -319t-35 -122q-4 -15 -19 -15q-8 0 -24 1t-57 1q-46 0 -64 -1t-26 -1q-6 0 -10 4.5t-4 9.5q0 2 10.5 32.5t29.5 82.5t44.5 122.5t55.5 154t63.5 176.5t66.5 190q103 297 160.5 456t61.5 172q3 12 19 12q6 0 12 -0.5t15 -0.5t21.5 -0.5 t31.5 -0.5q20 0 33 0.5t22 0.5t14.5 0.5t11.5 0.5q16 0 19 -12q4 -13 60 -172.5t159 -456.5q60 -173 110 -311.5t86 -236.5t56 -151.5t20 -57.5q0 -5 -4 -9.5t-10 -4.5q-9 0 -29 1t-68 1t-66 -1t-27 -1q-14 0 -18 15q-2 11 -36 121t-101 321q-40 1 -101 1.5t-145 0.5z M770 699q-28 86 -49.5 150t-40.5 118t-36.5 103.5t-37.5 105.5h-4q-19 -56 -36 -106t-35 -105t-39 -118.5t-48 -145.5l-29 -88q35 -1 83 -1h111q61 0 108 0.5t80 1.5q-7 20 -13.5 41t-13.5 44z" />
<glyph unicode="&#x1f04;" horiz-adv-x="1230" d="M363 1549q-6 2 -8 7t-2 16q0 35 3 44.5t8 9.5t12.5 -1.5t23.5 -1.5q27 0 52 7.5t44 22.5t30.5 38t11.5 53q0 46 -31.5 75t-107.5 29q-20 0 -31 -1t-14 -1q-2 0 -3.5 1.5t-3 9t-2.5 23t-1 42.5q0 32 2.5 41.5t13.5 11.5q8 2 23.5 3t31.5 1q111 0 170.5 -55.5t59.5 -152.5 q0 -51 -17 -92.5t-47 -71.5t-72 -46.5t-91 -16.5q-14 0 -31.5 1.5t-23.5 3.5zM881 1980q3 6 6.5 7.5t6.5 1.5q9 0 23.5 -9.5t37.5 -24.5q29 -18 46.5 -28.5t17.5 -19.5q0 -6 -4 -11l-250 -339q-9 -12 -12 -12q-6 0 -19.5 6.5t-27 14.5t-23.5 16.5t-10 12.5q0 1 8 15z M602 457q-161 0 -239 -3q-66 -208 -99 -319t-35 -122q-4 -15 -19 -15q-8 0 -24 1t-57 1q-46 0 -64 -1t-26 -1q-6 0 -10 4.5t-4 9.5q0 2 10.5 32.5t29.5 82.5t44.5 122.5t55.5 154t63.5 176.5t66.5 190q103 297 160.5 456t61.5 172q3 12 19 12q6 0 12 -0.5t15 -0.5t21.5 -0.5 t31.5 -0.5q20 0 33 0.5t22 0.5t14.5 0.5t11.5 0.5q16 0 19 -12q4 -13 60 -172.5t159 -456.5q60 -173 110 -311.5t86 -236.5t56 -151.5t20 -57.5q0 -5 -4 -9.5t-10 -4.5q-9 0 -29 1t-68 1t-66 -1t-27 -1q-14 0 -18 15q-2 11 -36 121t-101 321q-40 1 -101 1.5t-145 0.5z M770 699q-28 86 -49.5 150t-40.5 118t-36.5 103.5t-37.5 105.5h-4q-19 -56 -36 -106t-35 -105t-39 -118.5t-48 -145.5l-29 -88q35 -1 83 -1h111q61 0 108 0.5t80 1.5q-7 20 -13.5 41t-13.5 44z" />
<glyph unicode="&#x1f0d;" horiz-adv-x="1230" d="M597 1553q-6 -2 -23.5 -3.5t-31.5 -1.5q-53 0 -94.5 16.5t-71 45.5t-45 69t-15.5 88q0 44 14 82.5t42.5 67.5t71.5 45.5t101 16.5q16 0 31.5 -1t23.5 -3q11 -2 13.5 -11.5t2.5 -41.5q0 -27 -1 -42.5t-2.5 -23t-3 -9t-3.5 -1.5q-3 0 -14 1t-31 1q-38 0 -64.5 -7.5 t-43 -21.5t-24 -33t-7.5 -42q0 -30 11.5 -52.5t30.5 -36.5t44 -21t52 -7q16 0 23.5 1.5t12.5 1.5t8 -9.5t3 -44.5q0 -11 -2 -16t-8 -7zM881 1980q3 6 6.5 7.5t6.5 1.5q9 0 23.5 -9.5t37.5 -24.5q29 -18 46.5 -28.5t17.5 -19.5q0 -6 -4 -11l-250 -339q-9 -12 -12 -12 q-6 0 -19.5 6.5t-27 14.5t-23.5 16.5t-10 12.5q0 1 8 15zM602 457q-161 0 -239 -3q-66 -208 -99 -319t-35 -122q-4 -15 -19 -15q-8 0 -24 1t-57 1q-46 0 -64 -1t-26 -1q-6 0 -10 4.5t-4 9.5q0 2 10.5 32.5t29.5 82.5t44.5 122.5t55.5 154t63.5 176.5t66.5 190 q103 297 160.5 456t61.5 172q3 12 19 12q6 0 12 -0.5t15 -0.5t21.5 -0.5t31.5 -0.5q20 0 33 0.5t22 0.5t14.5 0.5t11.5 0.5q16 0 19 -12q4 -13 60 -172.5t159 -456.5q60 -173 110 -311.5t86 -236.5t56 -151.5t20 -57.5q0 -5 -4 -9.5t-10 -4.5q-9 0 -29 1t-68 1t-66 -1 t-27 -1q-14 0 -18 15q-2 11 -36 121t-101 321q-40 1 -101 1.5t-145 0.5zM770 699q-28 86 -49.5 150t-40.5 118t-36.5 103.5t-37.5 105.5h-4q-19 -56 -36 -106t-35 -105t-39 -118.5t-48 -145.5l-29 -88q35 -1 83 -1h111q61 0 108 0.5t80 1.5q-7 20 -13.5 41t-13.5 44z" />
<glyph unicode="&#x1f05;" horiz-adv-x="1230" d="M597 1553q-6 -2 -23.5 -3.5t-31.5 -1.5q-53 0 -94.5 16.5t-71 45.5t-45 69t-15.5 88q0 44 14 82.5t42.5 67.5t71.5 45.5t101 16.5q16 0 31.5 -1t23.5 -3q11 -2 13.5 -11.5t2.5 -41.5q0 -27 -1 -42.5t-2.5 -23t-3 -9t-3.5 -1.5q-3 0 -14 1t-31 1q-38 0 -64.5 -7.5 t-43 -21.5t-24 -33t-7.5 -42q0 -30 11.5 -52.5t30.5 -36.5t44 -21t52 -7q16 0 23.5 1.5t12.5 1.5t8 -9.5t3 -44.5q0 -11 -2 -16t-8 -7zM881 1980q3 6 6.5 7.5t6.5 1.5q9 0 23.5 -9.5t37.5 -24.5q29 -18 46.5 -28.5t17.5 -19.5q0 -6 -4 -11l-250 -339q-9 -12 -12 -12 q-6 0 -19.5 6.5t-27 14.5t-23.5 16.5t-10 12.5q0 1 8 15zM602 457q-161 0 -239 -3q-66 -208 -99 -319t-35 -122q-4 -15 -19 -15q-8 0 -24 1t-57 1q-46 0 -64 -1t-26 -1q-6 0 -10 4.5t-4 9.5q0 2 10.5 32.5t29.5 82.5t44.5 122.5t55.5 154t63.5 176.5t66.5 190 q103 297 160.5 456t61.5 172q3 12 19 12q6 0 12 -0.5t15 -0.5t21.5 -0.5t31.5 -0.5q20 0 33 0.5t22 0.5t14.5 0.5t11.5 0.5q16 0 19 -12q4 -13 60 -172.5t159 -456.5q60 -173 110 -311.5t86 -236.5t56 -151.5t20 -57.5q0 -5 -4 -9.5t-10 -4.5q-9 0 -29 1t-68 1t-66 -1 t-27 -1q-14 0 -18 15q-2 11 -36 121t-101 321q-40 1 -101 1.5t-145 0.5zM770 699q-28 86 -49.5 150t-40.5 118t-36.5 103.5t-37.5 105.5h-4q-19 -56 -36 -106t-35 -105t-39 -118.5t-48 -145.5l-29 -88q35 -1 83 -1h111q61 0 108 0.5t80 1.5q-7 20 -13.5 41t-13.5 44z" />
<glyph unicode="&#x1f0e;" horiz-adv-x="1230" d="M518 1549q-6 2 -8 7t-2 16q0 35 3 44.5t8 9.5t12.5 -1.5t23.5 -1.5q28 0 54 7t45.5 21.5t31.5 36t12 50.5q0 21 -7 38.5t-23 30t-42.5 19.5t-66.5 7q-20 0 -31 -1t-14 -1q-2 0 -3.5 1.5t-3 8.5t-2.5 21t-1 40q0 31 2.5 39.5t13.5 10.5q10 2 26.5 4t41.5 2q38 0 77.5 -9.5 t71.5 -32.5t52.5 -61t20.5 -94q0 -48 -17.5 -88t-48.5 -68.5t-73.5 -44.5t-93.5 -16q-15 0 -33.5 1.5t-25.5 3.5zM911 1874q-2 0 -5 1.5t-7 9.5q-9 19 -26 49.5t-48.5 59t-81.5 49t-126 20.5q-75 0 -125.5 -20t-82.5 -48.5t-49.5 -59t-26.5 -50.5q-4 -8 -7 -9.5t-5 -1.5 q-6 0 -19.5 4t-27.5 10t-25 12.5t-11 11.5q0 2 1.5 7t3.5 10q8 21 20 49.5t31.5 59t47.5 59.5t68 52t92.5 37t120.5 14q69 0 121 -14t90.5 -37t65 -52.5t44 -59.5t28.5 -58.5t18 -50.5q2 -5 3 -9t1 -6q0 -5 -11 -12t-25 -13t-27.5 -10t-19.5 -4zM602 457q-161 0 -239 -3 q-66 -208 -99 -319t-35 -122q-4 -15 -19 -15q-8 0 -24 1t-57 1q-46 0 -64 -1t-26 -1q-6 0 -10 4.5t-4 9.5q0 2 10.5 32.5t29.5 82.5t44.5 122.5t55.5 154t63.5 176.5t66.5 190q103 297 160.5 456t61.5 172q3 12 19 12q6 0 12 -0.5t15 -0.5t21.5 -0.5t31.5 -0.5q20 0 33 0.5 t22 0.5t14.5 0.5t11.5 0.5q16 0 19 -12q4 -13 60 -172.5t159 -456.5q60 -173 110 -311.5t86 -236.5t56 -151.5t20 -57.5q0 -5 -4 -9.5t-10 -4.5q-9 0 -29 1t-68 1t-66 -1t-27 -1q-14 0 -18 15q-2 11 -36 121t-101 321q-40 1 -101 1.5t-145 0.5zM770 699q-28 86 -49.5 150 t-40.5 118t-36.5 103.5t-37.5 105.5h-4q-19 -56 -36 -106t-35 -105t-39 -118.5t-48 -145.5l-29 -88q35 -1 83 -1h111q61 0 108 0.5t80 1.5q-7 20 -13.5 41t-13.5 44z" />
<glyph unicode="&#x1f06;" horiz-adv-x="1230" d="M518 1549q-6 2 -8 7t-2 16q0 35 3 44.5t8 9.5t12.5 -1.5t23.5 -1.5q28 0 54 7t45.5 21.5t31.5 36t12 50.5q0 21 -7 38.5t-23 30t-42.5 19.5t-66.5 7q-20 0 -31 -1t-14 -1q-2 0 -3.5 1.5t-3 8.5t-2.5 21t-1 40q0 31 2.5 39.5t13.5 10.5q10 2 26.5 4t41.5 2q38 0 77.5 -9.5 t71.5 -32.5t52.5 -61t20.5 -94q0 -48 -17.5 -88t-48.5 -68.5t-73.5 -44.5t-93.5 -16q-15 0 -33.5 1.5t-25.5 3.5zM911 1874q-2 0 -5 1.5t-7 9.5q-9 19 -26 49.5t-48.5 59t-81.5 49t-126 20.5q-75 0 -125.5 -20t-82.5 -48.5t-49.5 -59t-26.5 -50.5q-4 -8 -7 -9.5t-5 -1.5 q-6 0 -19.5 4t-27.5 10t-25 12.5t-11 11.5q0 2 1.5 7t3.5 10q8 21 20 49.5t31.5 59t47.5 59.5t68 52t92.5 37t120.5 14q69 0 121 -14t90.5 -37t65 -52.5t44 -59.5t28.5 -58.5t18 -50.5q2 -5 3 -9t1 -6q0 -5 -11 -12t-25 -13t-27.5 -10t-19.5 -4zM602 457q-161 0 -239 -3 q-66 -208 -99 -319t-35 -122q-4 -15 -19 -15q-8 0 -24 1t-57 1q-46 0 -64 -1t-26 -1q-6 0 -10 4.5t-4 9.5q0 2 10.5 32.5t29.5 82.5t44.5 122.5t55.5 154t63.5 176.5t66.5 190q103 297 160.5 456t61.5 172q3 12 19 12q6 0 12 -0.5t15 -0.5t21.5 -0.5t31.5 -0.5q20 0 33 0.5 t22 0.5t14.5 0.5t11.5 0.5q16 0 19 -12q4 -13 60 -172.5t159 -456.5q60 -173 110 -311.5t86 -236.5t56 -151.5t20 -57.5q0 -5 -4 -9.5t-10 -4.5q-9 0 -29 1t-68 1t-66 -1t-27 -1q-14 0 -18 15q-2 11 -36 121t-101 321q-40 1 -101 1.5t-145 0.5zM770 699q-28 86 -49.5 150 t-40.5 118t-36.5 103.5t-37.5 105.5h-4q-19 -56 -36 -106t-35 -105t-39 -118.5t-48 -145.5l-29 -88q35 -1 83 -1h111q61 0 108 0.5t80 1.5q-7 20 -13.5 41t-13.5 44z" />
<glyph unicode="&#x1f0f;" horiz-adv-x="1230" d="M714 1549q-7 -2 -25.5 -3.5t-33.5 -1.5q-50 0 -92.5 15t-73.5 42t-49 65.5t-18 85.5q0 49 17 87.5t48 64.5t74.5 40t95.5 14q37 0 55 -5q11 -2 13.5 -11t2.5 -40q0 -26 -1 -40t-2.5 -21t-3 -8.5t-3.5 -1.5q-3 0 -14 1t-31 1q-40 0 -66.5 -7t-42.5 -19.5t-23 -30t-7 -38.5 q0 -29 12 -50.5t31.5 -36t45.5 -21.5t54 -7q16 0 23.5 1.5t12.5 1.5t8 -9.5t3 -44.5q0 -11 -2 -16t-8 -7zM913 1874q-2 0 -5 1.5t-7 9.5q-9 19 -26 49.5t-48.5 59t-81.5 49t-126 20.5q-75 0 -125.5 -20t-82.5 -48.5t-49.5 -59t-26.5 -50.5q-4 -8 -7 -9.5t-5 -1.5 q-6 0 -19.5 4t-27.5 10t-25 12.5t-11 11.5q0 2 1.5 7t3.5 10q8 21 20 49.5t31.5 59t47.5 59.5t68 52t92.5 37t120.5 14q69 0 121 -14t90.5 -37t65 -52.5t44 -59.5t28.5 -58.5t18 -50.5q2 -5 3 -9t1 -6q0 -5 -11 -12t-25 -13t-27.5 -10t-19.5 -4zM602 457q-161 0 -239 -3 q-66 -208 -99 -319t-35 -122q-4 -15 -19 -15q-8 0 -24 1t-57 1q-46 0 -64 -1t-26 -1q-6 0 -10 4.5t-4 9.5q0 2 10.5 32.5t29.5 82.5t44.5 122.5t55.5 154t63.5 176.5t66.5 190q103 297 160.5 456t61.5 172q3 12 19 12q6 0 12 -0.5t15 -0.5t21.5 -0.5t31.5 -0.5q20 0 33 0.5 t22 0.5t14.5 0.5t11.5 0.5q16 0 19 -12q4 -13 60 -172.5t159 -456.5q60 -173 110 -311.5t86 -236.5t56 -151.5t20 -57.5q0 -5 -4 -9.5t-10 -4.5q-9 0 -29 1t-68 1t-66 -1t-27 -1q-14 0 -18 15q-2 11 -36 121t-101 321q-40 1 -101 1.5t-145 0.5zM770 699q-28 86 -49.5 150 t-40.5 118t-36.5 103.5t-37.5 105.5h-4q-19 -56 -36 -106t-35 -105t-39 -118.5t-48 -145.5l-29 -88q35 -1 83 -1h111q61 0 108 0.5t80 1.5q-7 20 -13.5 41t-13.5 44z" />
<glyph unicode="&#x1f07;" horiz-adv-x="1230" d="M714 1549q-7 -2 -25.5 -3.5t-33.5 -1.5q-50 0 -92.5 15t-73.5 42t-49 65.5t-18 85.5q0 49 17 87.5t48 64.5t74.5 40t95.5 14q37 0 55 -5q11 -2 13.5 -11t2.5 -40q0 -26 -1 -40t-2.5 -21t-3 -8.5t-3.5 -1.5q-3 0 -14 1t-31 1q-40 0 -66.5 -7t-42.5 -19.5t-23 -30t-7 -38.5 q0 -29 12 -50.5t31.5 -36t45.5 -21.5t54 -7q16 0 23.5 1.5t12.5 1.5t8 -9.5t3 -44.5q0 -11 -2 -16t-8 -7zM913 1874q-2 0 -5 1.5t-7 9.5q-9 19 -26 49.5t-48.5 59t-81.5 49t-126 20.5q-75 0 -125.5 -20t-82.5 -48.5t-49.5 -59t-26.5 -50.5q-4 -8 -7 -9.5t-5 -1.5 q-6 0 -19.5 4t-27.5 10t-25 12.5t-11 11.5q0 2 1.5 7t3.5 10q8 21 20 49.5t31.5 59t47.5 59.5t68 52t92.5 37t120.5 14q69 0 121 -14t90.5 -37t65 -52.5t44 -59.5t28.5 -58.5t18 -50.5q2 -5 3 -9t1 -6q0 -5 -11 -12t-25 -13t-27.5 -10t-19.5 -4zM602 457q-161 0 -239 -3 q-66 -208 -99 -319t-35 -122q-4 -15 -19 -15q-8 0 -24 1t-57 1q-46 0 -64 -1t-26 -1q-6 0 -10 4.5t-4 9.5q0 2 10.5 32.5t29.5 82.5t44.5 122.5t55.5 154t63.5 176.5t66.5 190q103 297 160.5 456t61.5 172q3 12 19 12q6 0 12 -0.5t15 -0.5t21.5 -0.5t31.5 -0.5q20 0 33 0.5 t22 0.5t14.5 0.5t11.5 0.5q16 0 19 -12q4 -13 60 -172.5t159 -456.5q60 -173 110 -311.5t86 -236.5t56 -151.5t20 -57.5q0 -5 -4 -9.5t-10 -4.5q-9 0 -29 1t-68 1t-66 -1t-27 -1q-14 0 -18 15q-2 11 -36 121t-101 321q-40 1 -101 1.5t-145 0.5zM770 699q-28 86 -49.5 150 t-40.5 118t-36.5 103.5t-37.5 105.5h-4q-19 -56 -36 -106t-35 -105t-39 -118.5t-48 -145.5l-29 -88q35 -1 83 -1h111q61 0 108 0.5t80 1.5q-7 20 -13.5 41t-13.5 44z" />
<glyph unicode="&#x1f18;" horiz-adv-x="1199" d="M783 123q66 0 117.5 10t88 22t57.5 22t27 10q10 0 17 -13q9 -18 17 -38t14 -37t9.5 -28.5t3.5 -14.5q0 -6 -3 -9t-9 -6q-87 -42 -179.5 -56.5t-172.5 -14.5q-144 0 -267 42t-212.5 129.5t-140.5 223t-51 322.5q0 193 54.5 334.5t149.5 234t223 137.5t275 45q73 0 153 -14 t157 -52q6 -3 9 -6t3 -10q0 -3 -5 -17t-12.5 -32.5t-15.5 -38.5t-15 -33q-3 -6 -6.5 -9.5t-9.5 -3.5t-25.5 10t-53 21.5t-81.5 21.5t-111 10q-87 0 -170.5 -23t-152 -78t-115 -145t-60.5 -225q202 0 337.5 1t218 2t119 2t40.5 1q16 0 16 -17q0 -8 -0.5 -23.5t-0.5 -42.5 t0.5 -44t0.5 -23q0 -17 -16 -17q-4 0 -42.5 1t-123 2t-220 2t-333.5 1q6 -138 45 -239t104 -167t154 -98t194 -32zM625 1549q-6 2 -8 7t-2 16q0 35 3 44.5t8 9.5t12.5 -1.5t23.5 -1.5q30 0 57.5 7.5t49 22.5t34 38t12.5 53q0 23 -8 42t-26.5 33t-48 21.5t-71.5 7.5 q-20 0 -31 -1t-14 -1q-2 0 -3.5 1.5t-3 9t-2.5 23t-1 42.5q0 32 2.5 41.5t13.5 11.5q8 2 23.5 3t31.5 1q121 0 185.5 -55.5t64.5 -152.5q0 -51 -18 -92.5t-50.5 -71.5t-77 -46.5t-97.5 -16.5q-15 0 -33.5 1.5t-25.5 3.5z" />
<glyph unicode="&#x1f10;" horiz-adv-x="1199" d="M783 123q66 0 117.5 10t88 22t57.5 22t27 10q10 0 17 -13q9 -18 17 -38t14 -37t9.5 -28.5t3.5 -14.5q0 -6 -3 -9t-9 -6q-87 -42 -179.5 -56.5t-172.5 -14.5q-144 0 -267 42t-212.5 129.5t-140.5 223t-51 322.5q0 193 54.5 334.5t149.5 234t223 137.5t275 45q73 0 153 -14 t157 -52q6 -3 9 -6t3 -10q0 -3 -5 -17t-12.5 -32.5t-15.5 -38.5t-15 -33q-3 -6 -6.5 -9.5t-9.5 -3.5t-25.5 10t-53 21.5t-81.5 21.5t-111 10q-87 0 -170.5 -23t-152 -78t-115 -145t-60.5 -225q202 0 337.5 1t218 2t119 2t40.5 1q16 0 16 -17q0 -8 -0.5 -23.5t-0.5 -42.5 t0.5 -44t0.5 -23q0 -17 -16 -17q-4 0 -42.5 1t-123 2t-220 2t-333.5 1q6 -138 45 -239t104 -167t154 -98t194 -32zM625 1549q-6 2 -8 7t-2 16q0 35 3 44.5t8 9.5t12.5 -1.5t23.5 -1.5q30 0 57.5 7.5t49 22.5t34 38t12.5 53q0 23 -8 42t-26.5 33t-48 21.5t-71.5 7.5 q-20 0 -31 -1t-14 -1q-2 0 -3.5 1.5t-3 9t-2.5 23t-1 42.5q0 32 2.5 41.5t13.5 11.5q8 2 23.5 3t31.5 1q121 0 185.5 -55.5t64.5 -152.5q0 -51 -18 -92.5t-50.5 -71.5t-77 -46.5t-97.5 -16.5q-15 0 -33.5 1.5t-25.5 3.5z" />
<glyph unicode="&#x1f19;" horiz-adv-x="1199" d="M783 123q66 0 117.5 10t88 22t57.5 22t27 10q10 0 17 -13q9 -18 17 -38t14 -37t9.5 -28.5t3.5 -14.5q0 -6 -3 -9t-9 -6q-87 -42 -179.5 -56.5t-172.5 -14.5q-144 0 -267 42t-212.5 129.5t-140.5 223t-51 322.5q0 193 54.5 334.5t149.5 234t223 137.5t275 45q73 0 153 -14 t157 -52q6 -3 9 -6t3 -10q0 -3 -5 -17t-12.5 -32.5t-15.5 -38.5t-15 -33q-3 -6 -6.5 -9.5t-9.5 -3.5t-25.5 10t-53 21.5t-81.5 21.5t-111 10q-87 0 -170.5 -23t-152 -78t-115 -145t-60.5 -225q202 0 337.5 1t218 2t119 2t40.5 1q16 0 16 -17q0 -8 -0.5 -23.5t-0.5 -42.5 t0.5 -44t0.5 -23q0 -17 -16 -17q-4 0 -42.5 1t-123 2t-220 2t-333.5 1q6 -138 45 -239t104 -167t154 -98t194 -32zM831 1549q-7 -2 -25.5 -3.5t-33.5 -1.5q-54 0 -99 16.5t-77 45.5t-49.5 70t-17.5 91q0 45 15.5 84t47 67.5t78.5 44.5t109 16q16 0 31.5 -1t23.5 -3 q11 -2 13.5 -11.5t2.5 -41.5q0 -27 -1 -42.5t-2.5 -23t-3 -9t-3.5 -1.5q-3 0 -14 1t-31 1q-42 0 -71.5 -7.5t-48 -21.5t-26.5 -33t-8 -42q0 -30 12.5 -53t34 -38t49 -22.5t57.5 -7.5q16 0 23.5 1.5t12.5 1.5t8 -9.5t3 -44.5q0 -11 -2 -16t-8 -7z" />
<glyph unicode="&#x1f11;" horiz-adv-x="1199" d="M783 123q66 0 117.5 10t88 22t57.5 22t27 10q10 0 17 -13q9 -18 17 -38t14 -37t9.5 -28.5t3.5 -14.5q0 -6 -3 -9t-9 -6q-87 -42 -179.5 -56.5t-172.5 -14.5q-144 0 -267 42t-212.5 129.5t-140.5 223t-51 322.5q0 193 54.5 334.5t149.5 234t223 137.5t275 45q73 0 153 -14 t157 -52q6 -3 9 -6t3 -10q0 -3 -5 -17t-12.5 -32.5t-15.5 -38.5t-15 -33q-3 -6 -6.5 -9.5t-9.5 -3.5t-25.5 10t-53 21.5t-81.5 21.5t-111 10q-87 0 -170.5 -23t-152 -78t-115 -145t-60.5 -225q202 0 337.5 1t218 2t119 2t40.5 1q16 0 16 -17q0 -8 -0.5 -23.5t-0.5 -42.5 t0.5 -44t0.5 -23q0 -17 -16 -17q-4 0 -42.5 1t-123 2t-220 2t-333.5 1q6 -138 45 -239t104 -167t154 -98t194 -32zM831 1549q-7 -2 -25.5 -3.5t-33.5 -1.5q-54 0 -99 16.5t-77 45.5t-49.5 70t-17.5 91q0 45 15.5 84t47 67.5t78.5 44.5t109 16q16 0 31.5 -1t23.5 -3 q11 -2 13.5 -11.5t2.5 -41.5q0 -27 -1 -42.5t-2.5 -23t-3 -9t-3.5 -1.5q-3 0 -14 1t-31 1q-42 0 -71.5 -7.5t-48 -21.5t-26.5 -33t-8 -42q0 -30 12.5 -53t34 -38t49 -22.5t57.5 -7.5q16 0 23.5 1.5t12.5 1.5t8 -9.5t3 -44.5q0 -11 -2 -16t-8 -7z" />
<glyph unicode="&#x1f1a;" horiz-adv-x="1199" d="M428 1549q-6 2 -8 7t-2 16q0 35 3 44.5t8 9.5t12.5 -1.5t23.5 -1.5q27 0 52 7.5t44 22.5t30.5 38t11.5 53q0 46 -31.5 75t-107.5 29q-20 0 -31 -1t-14 -1q-2 0 -3.5 1.5t-3 9t-2.5 23t-1 42.5q0 32 2.5 41.5t13.5 11.5q8 2 23.5 3t31.5 1q111 0 170.5 -55.5t59.5 -152.5 q0 -51 -17 -92.5t-47 -71.5t-72 -46.5t-91 -16.5q-14 0 -31.5 1.5t-23.5 3.5zM1074 1610q8 -14 8 -15q0 -4 -10 -12.5t-23 -16.5t-26 -14.5t-19 -6.5q-3 0 -12 12l-240 339q-4 5 -4 11q0 9 17.5 19.5t46.5 28.5q23 15 37.5 24.5t23.5 9.5q3 0 6.5 -1.5t6.5 -7.5zM783 123 q66 0 117.5 10t88 22t57.5 22t27 10q10 0 17 -13q9 -18 17 -38t14 -37t9.5 -28.5t3.5 -14.5q0 -6 -3 -9t-9 -6q-87 -42 -179.5 -56.5t-172.5 -14.5q-144 0 -267 42t-212.5 129.5t-140.5 223t-51 322.5q0 193 54.5 334.5t149.5 234t223 137.5t275 45q73 0 153 -14t157 -52 q6 -3 9 -6t3 -10q0 -3 -5 -17t-12.5 -32.5t-15.5 -38.5t-15 -33q-3 -6 -6.5 -9.5t-9.5 -3.5t-25.5 10t-53 21.5t-81.5 21.5t-111 10q-87 0 -170.5 -23t-152 -78t-115 -145t-60.5 -225q202 0 337.5 1t218 2t119 2t40.5 1q16 0 16 -17q0 -8 -0.5 -23.5t-0.5 -42.5t0.5 -44 t0.5 -23q0 -17 -16 -17q-4 0 -42.5 1t-123 2t-220 2t-333.5 1q6 -138 45 -239t104 -167t154 -98t194 -32z" />
<glyph unicode="&#x1f12;" horiz-adv-x="1199" d="M428 1549q-6 2 -8 7t-2 16q0 35 3 44.5t8 9.5t12.5 -1.5t23.5 -1.5q27 0 52 7.5t44 22.5t30.5 38t11.5 53q0 46 -31.5 75t-107.5 29q-20 0 -31 -1t-14 -1q-2 0 -3.5 1.5t-3 9t-2.5 23t-1 42.5q0 32 2.5 41.5t13.5 11.5q8 2 23.5 3t31.5 1q111 0 170.5 -55.5t59.5 -152.5 q0 -51 -17 -92.5t-47 -71.5t-72 -46.5t-91 -16.5q-14 0 -31.5 1.5t-23.5 3.5zM1074 1610q8 -14 8 -15q0 -4 -10 -12.5t-23 -16.5t-26 -14.5t-19 -6.5q-3 0 -12 12l-240 339q-4 5 -4 11q0 9 17.5 19.5t46.5 28.5q23 15 37.5 24.5t23.5 9.5q3 0 6.5 -1.5t6.5 -7.5zM783 123 q66 0 117.5 10t88 22t57.5 22t27 10q10 0 17 -13q9 -18 17 -38t14 -37t9.5 -28.5t3.5 -14.5q0 -6 -3 -9t-9 -6q-87 -42 -179.5 -56.5t-172.5 -14.5q-144 0 -267 42t-212.5 129.5t-140.5 223t-51 322.5q0 193 54.5 334.5t149.5 234t223 137.5t275 45q73 0 153 -14t157 -52 q6 -3 9 -6t3 -10q0 -3 -5 -17t-12.5 -32.5t-15.5 -38.5t-15 -33q-3 -6 -6.5 -9.5t-9.5 -3.5t-25.5 10t-53 21.5t-81.5 21.5t-111 10q-87 0 -170.5 -23t-152 -78t-115 -145t-60.5 -225q202 0 337.5 1t218 2t119 2t40.5 1q16 0 16 -17q0 -8 -0.5 -23.5t-0.5 -42.5t0.5 -44 t0.5 -23q0 -17 -16 -17q-4 0 -42.5 1t-123 2t-220 2t-333.5 1q6 -138 45 -239t104 -167t154 -98t194 -32z" />
<glyph unicode="&#x1f1b;" horiz-adv-x="1199" d="M1049 1610q8 -14 8 -15q0 -4 -10 -12.5t-23 -16.5t-26 -14.5t-19 -6.5q-3 0 -12 12l-240 339q-4 5 -4 11q0 9 17.5 19.5t46.5 28.5q23 15 37.5 24.5t23.5 9.5q3 0 6.5 -1.5t6.5 -7.5zM649 1548q-6 -2 -23.5 -3.5t-31.5 -1.5q-53 0 -94.5 17t-71 47t-45 70.5t-15.5 88.5 q0 44 14 82.5t42.5 67.5t71.5 45.5t101 16.5q16 0 31.5 -1t23.5 -3q11 -2 13.5 -11.5t2.5 -41.5q0 -27 -1 -42.5t-2.5 -23t-3 -9t-3.5 -1.5q-3 0 -14 1t-31 1q-38 0 -64.5 -7.5t-43 -21.5t-24 -33t-7.5 -42q0 -30 11.5 -53t30.5 -38t44 -22.5t52 -7.5q16 0 23.5 1.5 t12.5 1.5t8 -9.5t3 -44.5q0 -11 -2 -16t-8 -7zM783 123q66 0 117.5 10t88 22t57.5 22t27 10q10 0 17 -13q9 -18 17 -38t14 -37t9.5 -28.5t3.5 -14.5q0 -6 -3 -9t-9 -6q-87 -42 -179.5 -56.5t-172.5 -14.5q-144 0 -267 42t-212.5 129.5t-140.5 223t-51 322.5 q0 193 54.5 334.5t149.5 234t223 137.5t275 45q73 0 153 -14t157 -52q6 -3 9 -6t3 -10q0 -3 -5 -17t-12.5 -32.5t-15.5 -38.5t-15 -33q-3 -6 -6.5 -9.5t-9.5 -3.5t-25.5 10t-53 21.5t-81.5 21.5t-111 10q-87 0 -170.5 -23t-152 -78t-115 -145t-60.5 -225q202 0 337.5 1 t218 2t119 2t40.5 1q16 0 16 -17q0 -8 -0.5 -23.5t-0.5 -42.5t0.5 -44t0.5 -23q0 -17 -16 -17q-4 0 -42.5 1t-123 2t-220 2t-333.5 1q6 -138 45 -239t104 -167t154 -98t194 -32z" />
<glyph unicode="&#x1f13;" horiz-adv-x="1199" d="M1049 1610q8 -14 8 -15q0 -4 -10 -12.5t-23 -16.5t-26 -14.5t-19 -6.5q-3 0 -12 12l-240 339q-4 5 -4 11q0 9 17.5 19.5t46.5 28.5q23 15 37.5 24.5t23.5 9.5q3 0 6.5 -1.5t6.5 -7.5zM649 1548q-6 -2 -23.5 -3.5t-31.5 -1.5q-53 0 -94.5 17t-71 47t-45 70.5t-15.5 88.5 q0 44 14 82.5t42.5 67.5t71.5 45.5t101 16.5q16 0 31.5 -1t23.5 -3q11 -2 13.5 -11.5t2.5 -41.5q0 -27 -1 -42.5t-2.5 -23t-3 -9t-3.5 -1.5q-3 0 -14 1t-31 1q-38 0 -64.5 -7.5t-43 -21.5t-24 -33t-7.5 -42q0 -30 11.5 -53t30.5 -38t44 -22.5t52 -7.5q16 0 23.5 1.5 t12.5 1.5t8 -9.5t3 -44.5q0 -11 -2 -16t-8 -7zM783 123q66 0 117.5 10t88 22t57.5 22t27 10q10 0 17 -13q9 -18 17 -38t14 -37t9.5 -28.5t3.5 -14.5q0 -6 -3 -9t-9 -6q-87 -42 -179.5 -56.5t-172.5 -14.5q-144 0 -267 42t-212.5 129.5t-140.5 223t-51 322.5 q0 193 54.5 334.5t149.5 234t223 137.5t275 45q73 0 153 -14t157 -52q6 -3 9 -6t3 -10q0 -3 -5 -17t-12.5 -32.5t-15.5 -38.5t-15 -33q-3 -6 -6.5 -9.5t-9.5 -3.5t-25.5 10t-53 21.5t-81.5 21.5t-111 10q-87 0 -170.5 -23t-152 -78t-115 -145t-60.5 -225q202 0 337.5 1 t218 2t119 2t40.5 1q16 0 16 -17q0 -8 -0.5 -23.5t-0.5 -42.5t0.5 -44t0.5 -23q0 -17 -16 -17q-4 0 -42.5 1t-123 2t-220 2t-333.5 1q6 -138 45 -239t104 -167t154 -98t194 -32z" />
<glyph unicode="&#x1f1c;" horiz-adv-x="1199" d="M475 1549q-6 2 -8 7t-2 16q0 35 3 44.5t8 9.5t12.5 -1.5t23.5 -1.5q27 0 52 7.5t44 22.5t30.5 38t11.5 53q0 46 -31.5 75t-107.5 29q-20 0 -31 -1t-14 -1q-2 0 -3.5 1.5t-3 9t-2.5 23t-1 42.5q0 32 2.5 41.5t13.5 11.5q8 2 23.5 3t31.5 1q111 0 170.5 -55.5t59.5 -152.5 q0 -51 -17 -92.5t-47 -71.5t-72 -46.5t-91 -16.5q-14 0 -31.5 1.5t-23.5 3.5zM993 1980q3 6 6.5 7.5t6.5 1.5q9 0 23.5 -9.5t37.5 -24.5q29 -18 46.5 -28.5t17.5 -19.5q0 -6 -4 -11l-250 -339q-9 -12 -12 -12q-6 0 -19.5 6.5t-27 14.5t-23.5 16.5t-10 12.5q0 1 8 15z M783 123q66 0 117.5 10t88 22t57.5 22t27 10q10 0 17 -13q9 -18 17 -38t14 -37t9.5 -28.5t3.5 -14.5q0 -6 -3 -9t-9 -6q-87 -42 -179.5 -56.5t-172.5 -14.5q-144 0 -267 42t-212.5 129.5t-140.5 223t-51 322.5q0 193 54.5 334.5t149.5 234t223 137.5t275 45q73 0 153 -14 t157 -52q6 -3 9 -6t3 -10q0 -3 -5 -17t-12.5 -32.5t-15.5 -38.5t-15 -33q-3 -6 -6.5 -9.5t-9.5 -3.5t-25.5 10t-53 21.5t-81.5 21.5t-111 10q-87 0 -170.5 -23t-152 -78t-115 -145t-60.5 -225q202 0 337.5 1t218 2t119 2t40.5 1q16 0 16 -17q0 -8 -0.5 -23.5t-0.5 -42.5 t0.5 -44t0.5 -23q0 -17 -16 -17q-4 0 -42.5 1t-123 2t-220 2t-333.5 1q6 -138 45 -239t104 -167t154 -98t194 -32z" />
<glyph unicode="&#x1f14;" horiz-adv-x="1199" d="M475 1549q-6 2 -8 7t-2 16q0 35 3 44.5t8 9.5t12.5 -1.5t23.5 -1.5q27 0 52 7.5t44 22.5t30.5 38t11.5 53q0 46 -31.5 75t-107.5 29q-20 0 -31 -1t-14 -1q-2 0 -3.5 1.5t-3 9t-2.5 23t-1 42.5q0 32 2.5 41.5t13.5 11.5q8 2 23.5 3t31.5 1q111 0 170.5 -55.5t59.5 -152.5 q0 -51 -17 -92.5t-47 -71.5t-72 -46.5t-91 -16.5q-14 0 -31.5 1.5t-23.5 3.5zM993 1980q3 6 6.5 7.5t6.5 1.5q9 0 23.5 -9.5t37.5 -24.5q29 -18 46.5 -28.5t17.5 -19.5q0 -6 -4 -11l-250 -339q-9 -12 -12 -12q-6 0 -19.5 6.5t-27 14.5t-23.5 16.5t-10 12.5q0 1 8 15z M783 123q66 0 117.5 10t88 22t57.5 22t27 10q10 0 17 -13q9 -18 17 -38t14 -37t9.5 -28.5t3.5 -14.5q0 -6 -3 -9t-9 -6q-87 -42 -179.5 -56.5t-172.5 -14.5q-144 0 -267 42t-212.5 129.5t-140.5 223t-51 322.5q0 193 54.5 334.5t149.5 234t223 137.5t275 45q73 0 153 -14 t157 -52q6 -3 9 -6t3 -10q0 -3 -5 -17t-12.5 -32.5t-15.5 -38.5t-15 -33q-3 -6 -6.5 -9.5t-9.5 -3.5t-25.5 10t-53 21.5t-81.5 21.5t-111 10q-87 0 -170.5 -23t-152 -78t-115 -145t-60.5 -225q202 0 337.5 1t218 2t119 2t40.5 1q16 0 16 -17q0 -8 -0.5 -23.5t-0.5 -42.5 t0.5 -44t0.5 -23q0 -17 -16 -17q-4 0 -42.5 1t-123 2t-220 2t-333.5 1q6 -138 45 -239t104 -167t154 -98t194 -32z" />
<glyph unicode="&#x1f1d;" horiz-adv-x="1199" d="M709 1553q-6 -2 -23.5 -3.5t-31.5 -1.5q-53 0 -94.5 16.5t-71 45.5t-45 69t-15.5 88q0 44 14 82.5t42.5 67.5t71.5 45.5t101 16.5q16 0 31.5 -1t23.5 -3q11 -2 13.5 -11.5t2.5 -41.5q0 -27 -1 -42.5t-2.5 -23t-3 -9t-3.5 -1.5q-3 0 -14 1t-31 1q-38 0 -64.5 -7.5 t-43 -21.5t-24 -33t-7.5 -42q0 -30 11.5 -52.5t30.5 -36.5t44 -21t52 -7q16 0 23.5 1.5t12.5 1.5t8 -9.5t3 -44.5q0 -11 -2 -16t-8 -7zM993 1980q3 6 6.5 7.5t6.5 1.5q9 0 23.5 -9.5t37.5 -24.5q29 -18 46.5 -28.5t17.5 -19.5q0 -6 -4 -11l-250 -339q-9 -12 -12 -12 q-6 0 -19.5 6.5t-27 14.5t-23.5 16.5t-10 12.5q0 1 8 15zM783 123q66 0 117.5 10t88 22t57.5 22t27 10q10 0 17 -13q9 -18 17 -38t14 -37t9.5 -28.5t3.5 -14.5q0 -6 -3 -9t-9 -6q-87 -42 -179.5 -56.5t-172.5 -14.5q-144 0 -267 42t-212.5 129.5t-140.5 223t-51 322.5 q0 193 54.5 334.5t149.5 234t223 137.5t275 45q73 0 153 -14t157 -52q6 -3 9 -6t3 -10q0 -3 -5 -17t-12.5 -32.5t-15.5 -38.5t-15 -33q-3 -6 -6.5 -9.5t-9.5 -3.5t-25.5 10t-53 21.5t-81.5 21.5t-111 10q-87 0 -170.5 -23t-152 -78t-115 -145t-60.5 -225q202 0 337.5 1 t218 2t119 2t40.5 1q16 0 16 -17q0 -8 -0.5 -23.5t-0.5 -42.5t0.5 -44t0.5 -23q0 -17 -16 -17q-4 0 -42.5 1t-123 2t-220 2t-333.5 1q6 -138 45 -239t104 -167t154 -98t194 -32z" />
<glyph unicode="&#x1f15;" horiz-adv-x="1199" d="M709 1553q-6 -2 -23.5 -3.5t-31.5 -1.5q-53 0 -94.5 16.5t-71 45.5t-45 69t-15.5 88q0 44 14 82.5t42.5 67.5t71.5 45.5t101 16.5q16 0 31.5 -1t23.5 -3q11 -2 13.5 -11.5t2.5 -41.5q0 -27 -1 -42.5t-2.5 -23t-3 -9t-3.5 -1.5q-3 0 -14 1t-31 1q-38 0 -64.5 -7.5 t-43 -21.5t-24 -33t-7.5 -42q0 -30 11.5 -52.5t30.5 -36.5t44 -21t52 -7q16 0 23.5 1.5t12.5 1.5t8 -9.5t3 -44.5q0 -11 -2 -16t-8 -7zM993 1980q3 6 6.5 7.5t6.5 1.5q9 0 23.5 -9.5t37.5 -24.5q29 -18 46.5 -28.5t17.5 -19.5q0 -6 -4 -11l-250 -339q-9 -12 -12 -12 q-6 0 -19.5 6.5t-27 14.5t-23.5 16.5t-10 12.5q0 1 8 15zM783 123q66 0 117.5 10t88 22t57.5 22t27 10q10 0 17 -13q9 -18 17 -38t14 -37t9.5 -28.5t3.5 -14.5q0 -6 -3 -9t-9 -6q-87 -42 -179.5 -56.5t-172.5 -14.5q-144 0 -267 42t-212.5 129.5t-140.5 223t-51 322.5 q0 193 54.5 334.5t149.5 234t223 137.5t275 45q73 0 153 -14t157 -52q6 -3 9 -6t3 -10q0 -3 -5 -17t-12.5 -32.5t-15.5 -38.5t-15 -33q-3 -6 -6.5 -9.5t-9.5 -3.5t-25.5 10t-53 21.5t-81.5 21.5t-111 10q-87 0 -170.5 -23t-152 -78t-115 -145t-60.5 -225q202 0 337.5 1 t218 2t119 2t40.5 1q16 0 16 -17q0 -8 -0.5 -23.5t-0.5 -42.5t0.5 -44t0.5 -23q0 -17 -16 -17q-4 0 -42.5 1t-123 2t-220 2t-333.5 1q6 -138 45 -239t104 -167t154 -98t194 -32z" />
<glyph unicode="&#x1f28;" horiz-adv-x="1434" d="M186 1394q0 16 17 16q8 0 30 -1t58 -1q37 0 56.5 1t29.5 1q17 0 17 -16q0 -11 -6 -155t-8 -412q100 -3 342 -3q118 0 199.5 1t132.5 2q-1 131 -3 234t-4.5 175.5t-4.5 112.5t-2 45q0 16 17 16q8 0 30 -1t58 -1q37 0 56.5 1t29.5 1q17 0 17 -16q0 -6 -2 -52t-5 -130 t-5 -204.5t-2 -276.5q0 -341 7 -523.5t7 -193.5q0 -16 -17 -16q-8 0 -30 1t-58 1q-37 0 -56.5 -1t-29.5 -1q-17 0 -17 16q0 11 6.5 173.5t7.5 478.5q-101 3 -342 3q-118 0 -200.5 -1t-131.5 -3q1 -312 7.5 -476t6.5 -175q0 -16 -17 -16q-8 0 -30 1t-58 1q-37 0 -56.5 -1 t-29.5 -1q-17 0 -17 16q0 11 7 188.5t7 518.5q0 156 -2 278.5t-5 208t-5 133t-2 53.5zM614 1549q-6 2 -8 7t-2 16q0 35 3 44.5t8 9.5t12.5 -1.5t23.5 -1.5q30 0 57.5 7.5t49 22.5t34 38t12.5 53q0 23 -8 42t-26.5 33t-48 21.5t-71.5 7.5q-20 0 -31 -1t-14 -1q-2 0 -3.5 1.5 t-3 9t-2.5 23t-1 42.5q0 32 2.5 41.5t13.5 11.5q8 2 23.5 3t31.5 1q121 0 185.5 -55.5t64.5 -152.5q0 -51 -18 -92.5t-50.5 -71.5t-77 -46.5t-97.5 -16.5q-15 0 -33.5 1.5t-25.5 3.5z" />
<glyph unicode="&#x1f20;" horiz-adv-x="1434" d="M186 1394q0 16 17 16q8 0 30 -1t58 -1q37 0 56.5 1t29.5 1q17 0 17 -16q0 -11 -6 -155t-8 -412q100 -3 342 -3q118 0 199.5 1t132.5 2q-1 131 -3 234t-4.5 175.5t-4.5 112.5t-2 45q0 16 17 16q8 0 30 -1t58 -1q37 0 56.5 1t29.5 1q17 0 17 -16q0 -6 -2 -52t-5 -130 t-5 -204.5t-2 -276.5q0 -341 7 -523.5t7 -193.5q0 -16 -17 -16q-8 0 -30 1t-58 1q-37 0 -56.5 -1t-29.5 -1q-17 0 -17 16q0 11 6.5 173.5t7.5 478.5q-101 3 -342 3q-118 0 -200.5 -1t-131.5 -3q1 -312 7.5 -476t6.5 -175q0 -16 -17 -16q-8 0 -30 1t-58 1q-37 0 -56.5 -1 t-29.5 -1q-17 0 -17 16q0 11 7 188.5t7 518.5q0 156 -2 278.5t-5 208t-5 133t-2 53.5zM614 1549q-6 2 -8 7t-2 16q0 35 3 44.5t8 9.5t12.5 -1.5t23.5 -1.5q30 0 57.5 7.5t49 22.5t34 38t12.5 53q0 23 -8 42t-26.5 33t-48 21.5t-71.5 7.5q-20 0 -31 -1t-14 -1q-2 0 -3.5 1.5 t-3 9t-2.5 23t-1 42.5q0 32 2.5 41.5t13.5 11.5q8 2 23.5 3t31.5 1q121 0 185.5 -55.5t64.5 -152.5q0 -51 -18 -92.5t-50.5 -71.5t-77 -46.5t-97.5 -16.5q-15 0 -33.5 1.5t-25.5 3.5z" />
<glyph unicode="&#x1f29;" horiz-adv-x="1434" d="M186 1394q0 16 17 16q8 0 30 -1t58 -1q37 0 56.5 1t29.5 1q17 0 17 -16q0 -11 -6 -155t-8 -412q100 -3 342 -3q118 0 199.5 1t132.5 2q-1 131 -3 234t-4.5 175.5t-4.5 112.5t-2 45q0 16 17 16q8 0 30 -1t58 -1q37 0 56.5 1t29.5 1q17 0 17 -16q0 -6 -2 -52t-5 -130 t-5 -204.5t-2 -276.5q0 -341 7 -523.5t7 -193.5q0 -16 -17 -16q-8 0 -30 1t-58 1q-37 0 -56.5 -1t-29.5 -1q-17 0 -17 16q0 11 6.5 173.5t7.5 478.5q-101 3 -342 3q-118 0 -200.5 -1t-131.5 -3q1 -312 7.5 -476t6.5 -175q0 -16 -17 -16q-8 0 -30 1t-58 1q-37 0 -56.5 -1 t-29.5 -1q-17 0 -17 16q0 11 7 188.5t7 518.5q0 156 -2 278.5t-5 208t-5 133t-2 53.5zM820 1549q-7 -2 -25.5 -3.5t-33.5 -1.5q-54 0 -99 16.5t-77 45.5t-49.5 70t-17.5 91q0 45 15.5 84t47 67.5t78.5 44.5t109 16q16 0 31.5 -1t23.5 -3q11 -2 13.5 -11.5t2.5 -41.5 q0 -27 -1 -42.5t-2.5 -23t-3 -9t-3.5 -1.5q-3 0 -14 1t-31 1q-42 0 -71.5 -7.5t-48 -21.5t-26.5 -33t-8 -42q0 -30 12.5 -53t34 -38t49 -22.5t57.5 -7.5q16 0 23.5 1.5t12.5 1.5t8 -9.5t3 -44.5q0 -11 -2 -16t-8 -7z" />
<glyph unicode="&#x1f21;" horiz-adv-x="1434" d="M186 1394q0 16 17 16q8 0 30 -1t58 -1q37 0 56.5 1t29.5 1q17 0 17 -16q0 -11 -6 -155t-8 -412q100 -3 342 -3q118 0 199.5 1t132.5 2q-1 131 -3 234t-4.5 175.5t-4.5 112.5t-2 45q0 16 17 16q8 0 30 -1t58 -1q37 0 56.5 1t29.5 1q17 0 17 -16q0 -6 -2 -52t-5 -130 t-5 -204.5t-2 -276.5q0 -341 7 -523.5t7 -193.5q0 -16 -17 -16q-8 0 -30 1t-58 1q-37 0 -56.5 -1t-29.5 -1q-17 0 -17 16q0 11 6.5 173.5t7.5 478.5q-101 3 -342 3q-118 0 -200.5 -1t-131.5 -3q1 -312 7.5 -476t6.5 -175q0 -16 -17 -16q-8 0 -30 1t-58 1q-37 0 -56.5 -1 t-29.5 -1q-17 0 -17 16q0 11 7 188.5t7 518.5q0 156 -2 278.5t-5 208t-5 133t-2 53.5zM820 1549q-7 -2 -25.5 -3.5t-33.5 -1.5q-54 0 -99 16.5t-77 45.5t-49.5 70t-17.5 91q0 45 15.5 84t47 67.5t78.5 44.5t109 16q16 0 31.5 -1t23.5 -3q11 -2 13.5 -11.5t2.5 -41.5 q0 -27 -1 -42.5t-2.5 -23t-3 -9t-3.5 -1.5q-3 0 -14 1t-31 1q-42 0 -71.5 -7.5t-48 -21.5t-26.5 -33t-8 -42q0 -30 12.5 -53t34 -38t49 -22.5t57.5 -7.5q16 0 23.5 1.5t12.5 1.5t8 -9.5t3 -44.5q0 -11 -2 -16t-8 -7z" />
<glyph unicode="&#x1f2a;" horiz-adv-x="1434" d="M417 1549q-6 2 -8 7t-2 16q0 35 3 44.5t8 9.5t12.5 -1.5t23.5 -1.5q27 0 52 7.5t44 22.5t30.5 38t11.5 53q0 46 -31.5 75t-107.5 29q-20 0 -31 -1t-14 -1q-2 0 -3.5 1.5t-3 9t-2.5 23t-1 42.5q0 32 2.5 41.5t13.5 11.5q8 2 23.5 3t31.5 1q111 0 170.5 -55.5t59.5 -152.5 q0 -51 -17 -92.5t-47 -71.5t-72 -46.5t-91 -16.5q-14 0 -31.5 1.5t-23.5 3.5zM1063 1610q8 -14 8 -15q0 -4 -10 -12.5t-23 -16.5t-26 -14.5t-19 -6.5q-3 0 -12 12l-240 339q-4 5 -4 11q0 9 17.5 19.5t46.5 28.5q23 15 37.5 24.5t23.5 9.5q3 0 6.5 -1.5t6.5 -7.5zM186 1394 q0 16 17 16q8 0 30 -1t58 -1q37 0 56.5 1t29.5 1q17 0 17 -16q0 -11 -6 -155t-8 -412q100 -3 342 -3q118 0 199.5 1t132.5 2q-1 131 -3 234t-4.5 175.5t-4.5 112.5t-2 45q0 16 17 16q8 0 30 -1t58 -1q37 0 56.5 1t29.5 1q17 0 17 -16q0 -6 -2 -52t-5 -130t-5 -204.5 t-2 -276.5q0 -341 7 -523.5t7 -193.5q0 -16 -17 -16q-8 0 -30 1t-58 1q-37 0 -56.5 -1t-29.5 -1q-17 0 -17 16q0 11 6.5 173.5t7.5 478.5q-101 3 -342 3q-118 0 -200.5 -1t-131.5 -3q1 -312 7.5 -476t6.5 -175q0 -16 -17 -16q-8 0 -30 1t-58 1q-37 0 -56.5 -1t-29.5 -1 q-17 0 -17 16q0 11 7 188.5t7 518.5q0 156 -2 278.5t-5 208t-5 133t-2 53.5z" />
<glyph unicode="&#x1f22;" horiz-adv-x="1434" d="M417 1549q-6 2 -8 7t-2 16q0 35 3 44.5t8 9.5t12.5 -1.5t23.5 -1.5q27 0 52 7.5t44 22.5t30.5 38t11.5 53q0 46 -31.5 75t-107.5 29q-20 0 -31 -1t-14 -1q-2 0 -3.5 1.5t-3 9t-2.5 23t-1 42.5q0 32 2.5 41.5t13.5 11.5q8 2 23.5 3t31.5 1q111 0 170.5 -55.5t59.5 -152.5 q0 -51 -17 -92.5t-47 -71.5t-72 -46.5t-91 -16.5q-14 0 -31.5 1.5t-23.5 3.5zM1063 1610q8 -14 8 -15q0 -4 -10 -12.5t-23 -16.5t-26 -14.5t-19 -6.5q-3 0 -12 12l-240 339q-4 5 -4 11q0 9 17.5 19.5t46.5 28.5q23 15 37.5 24.5t23.5 9.5q3 0 6.5 -1.5t6.5 -7.5zM186 1394 q0 16 17 16q8 0 30 -1t58 -1q37 0 56.5 1t29.5 1q17 0 17 -16q0 -11 -6 -155t-8 -412q100 -3 342 -3q118 0 199.5 1t132.5 2q-1 131 -3 234t-4.5 175.5t-4.5 112.5t-2 45q0 16 17 16q8 0 30 -1t58 -1q37 0 56.5 1t29.5 1q17 0 17 -16q0 -6 -2 -52t-5 -130t-5 -204.5 t-2 -276.5q0 -341 7 -523.5t7 -193.5q0 -16 -17 -16q-8 0 -30 1t-58 1q-37 0 -56.5 -1t-29.5 -1q-17 0 -17 16q0 11 6.5 173.5t7.5 478.5q-101 3 -342 3q-118 0 -200.5 -1t-131.5 -3q1 -312 7.5 -476t6.5 -175q0 -16 -17 -16q-8 0 -30 1t-58 1q-37 0 -56.5 -1t-29.5 -1 q-17 0 -17 16q0 11 7 188.5t7 518.5q0 156 -2 278.5t-5 208t-5 133t-2 53.5z" />
<glyph unicode="&#x1f2b;" horiz-adv-x="1434" d="M1038 1610q8 -14 8 -15q0 -4 -10 -12.5t-23 -16.5t-26 -14.5t-19 -6.5q-3 0 -12 12l-240 339q-4 5 -4 11q0 9 17.5 19.5t46.5 28.5q23 15 37.5 24.5t23.5 9.5q3 0 6.5 -1.5t6.5 -7.5zM638 1548q-6 -2 -23.5 -3.5t-31.5 -1.5q-53 0 -94.5 17t-71 47t-45 70.5t-15.5 88.5 q0 44 14 82.5t42.5 67.5t71.5 45.5t101 16.5q16 0 31.5 -1t23.5 -3q11 -2 13.5 -11.5t2.5 -41.5q0 -27 -1 -42.5t-2.5 -23t-3 -9t-3.5 -1.5q-3 0 -14 1t-31 1q-38 0 -64.5 -7.5t-43 -21.5t-24 -33t-7.5 -42q0 -30 11.5 -53t30.5 -38t44 -22.5t52 -7.5q16 0 23.5 1.5 t12.5 1.5t8 -9.5t3 -44.5q0 -11 -2 -16t-8 -7zM186 1394q0 16 17 16q8 0 30 -1t58 -1q37 0 56.5 1t29.5 1q17 0 17 -16q0 -11 -6 -155t-8 -412q100 -3 342 -3q118 0 199.5 1t132.5 2q-1 131 -3 234t-4.5 175.5t-4.5 112.5t-2 45q0 16 17 16q8 0 30 -1t58 -1q37 0 56.5 1 t29.5 1q17 0 17 -16q0 -6 -2 -52t-5 -130t-5 -204.5t-2 -276.5q0 -341 7 -523.5t7 -193.5q0 -16 -17 -16q-8 0 -30 1t-58 1q-37 0 -56.5 -1t-29.5 -1q-17 0 -17 16q0 11 6.5 173.5t7.5 478.5q-101 3 -342 3q-118 0 -200.5 -1t-131.5 -3q1 -312 7.5 -476t6.5 -175 q0 -16 -17 -16q-8 0 -30 1t-58 1q-37 0 -56.5 -1t-29.5 -1q-17 0 -17 16q0 11 7 188.5t7 518.5q0 156 -2 278.5t-5 208t-5 133t-2 53.5z" />
<glyph unicode="&#x1f23;" horiz-adv-x="1434" d="M1038 1610q8 -14 8 -15q0 -4 -10 -12.5t-23 -16.5t-26 -14.5t-19 -6.5q-3 0 -12 12l-240 339q-4 5 -4 11q0 9 17.5 19.5t46.5 28.5q23 15 37.5 24.5t23.5 9.5q3 0 6.5 -1.5t6.5 -7.5zM638 1548q-6 -2 -23.5 -3.5t-31.5 -1.5q-53 0 -94.5 17t-71 47t-45 70.5t-15.5 88.5 q0 44 14 82.5t42.5 67.5t71.5 45.5t101 16.5q16 0 31.5 -1t23.5 -3q11 -2 13.5 -11.5t2.5 -41.5q0 -27 -1 -42.5t-2.5 -23t-3 -9t-3.5 -1.5q-3 0 -14 1t-31 1q-38 0 -64.5 -7.5t-43 -21.5t-24 -33t-7.5 -42q0 -30 11.5 -53t30.5 -38t44 -22.5t52 -7.5q16 0 23.5 1.5 t12.5 1.5t8 -9.5t3 -44.5q0 -11 -2 -16t-8 -7zM186 1394q0 16 17 16q8 0 30 -1t58 -1q37 0 56.5 1t29.5 1q17 0 17 -16q0 -11 -6 -155t-8 -412q100 -3 342 -3q118 0 199.5 1t132.5 2q-1 131 -3 234t-4.5 175.5t-4.5 112.5t-2 45q0 16 17 16q8 0 30 -1t58 -1q37 0 56.5 1 t29.5 1q17 0 17 -16q0 -6 -2 -52t-5 -130t-5 -204.5t-2 -276.5q0 -341 7 -523.5t7 -193.5q0 -16 -17 -16q-8 0 -30 1t-58 1q-37 0 -56.5 -1t-29.5 -1q-17 0 -17 16q0 11 6.5 173.5t7.5 478.5q-101 3 -342 3q-118 0 -200.5 -1t-131.5 -3q1 -312 7.5 -476t6.5 -175 q0 -16 -17 -16q-8 0 -30 1t-58 1q-37 0 -56.5 -1t-29.5 -1q-17 0 -17 16q0 11 7 188.5t7 518.5q0 156 -2 278.5t-5 208t-5 133t-2 53.5z" />
<glyph unicode="&#x1f2c;" horiz-adv-x="1434" d="M464 1549q-6 2 -8 7t-2 16q0 35 3 44.5t8 9.5t12.5 -1.5t23.5 -1.5q27 0 52 7.5t44 22.5t30.5 38t11.5 53q0 46 -31.5 75t-107.5 29q-20 0 -31 -1t-14 -1q-2 0 -3.5 1.5t-3 9t-2.5 23t-1 42.5q0 32 2.5 41.5t13.5 11.5q8 2 23.5 3t31.5 1q111 0 170.5 -55.5t59.5 -152.5 q0 -51 -17 -92.5t-47 -71.5t-72 -46.5t-91 -16.5q-14 0 -31.5 1.5t-23.5 3.5zM982 1980q3 6 6.5 7.5t6.5 1.5q9 0 23.5 -9.5t37.5 -24.5q29 -18 46.5 -28.5t17.5 -19.5q0 -6 -4 -11l-250 -339q-9 -12 -12 -12q-6 0 -19.5 6.5t-27 14.5t-23.5 16.5t-10 12.5q0 1 8 15z M186 1394q0 16 17 16q8 0 30 -1t58 -1q37 0 56.5 1t29.5 1q17 0 17 -16q0 -11 -6 -155t-8 -412q100 -3 342 -3q118 0 199.5 1t132.5 2q-1 131 -3 234t-4.5 175.5t-4.5 112.5t-2 45q0 16 17 16q8 0 30 -1t58 -1q37 0 56.5 1t29.5 1q17 0 17 -16q0 -6 -2 -52t-5 -130 t-5 -204.5t-2 -276.5q0 -341 7 -523.5t7 -193.5q0 -16 -17 -16q-8 0 -30 1t-58 1q-37 0 -56.5 -1t-29.5 -1q-17 0 -17 16q0 11 6.5 173.5t7.5 478.5q-101 3 -342 3q-118 0 -200.5 -1t-131.5 -3q1 -312 7.5 -476t6.5 -175q0 -16 -17 -16q-8 0 -30 1t-58 1q-37 0 -56.5 -1 t-29.5 -1q-17 0 -17 16q0 11 7 188.5t7 518.5q0 156 -2 278.5t-5 208t-5 133t-2 53.5z" />
<glyph unicode="&#x1f24;" horiz-adv-x="1434" d="M464 1549q-6 2 -8 7t-2 16q0 35 3 44.5t8 9.5t12.5 -1.5t23.5 -1.5q27 0 52 7.5t44 22.5t30.5 38t11.5 53q0 46 -31.5 75t-107.5 29q-20 0 -31 -1t-14 -1q-2 0 -3.5 1.5t-3 9t-2.5 23t-1 42.5q0 32 2.5 41.5t13.5 11.5q8 2 23.5 3t31.5 1q111 0 170.5 -55.5t59.5 -152.5 q0 -51 -17 -92.5t-47 -71.5t-72 -46.5t-91 -16.5q-14 0 -31.5 1.5t-23.5 3.5zM982 1980q3 6 6.5 7.5t6.5 1.5q9 0 23.5 -9.5t37.5 -24.5q29 -18 46.5 -28.5t17.5 -19.5q0 -6 -4 -11l-250 -339q-9 -12 -12 -12q-6 0 -19.5 6.5t-27 14.5t-23.5 16.5t-10 12.5q0 1 8 15z M186 1394q0 16 17 16q8 0 30 -1t58 -1q37 0 56.5 1t29.5 1q17 0 17 -16q0 -11 -6 -155t-8 -412q100 -3 342 -3q118 0 199.5 1t132.5 2q-1 131 -3 234t-4.5 175.5t-4.5 112.5t-2 45q0 16 17 16q8 0 30 -1t58 -1q37 0 56.5 1t29.5 1q17 0 17 -16q0 -6 -2 -52t-5 -130 t-5 -204.5t-2 -276.5q0 -341 7 -523.5t7 -193.5q0 -16 -17 -16q-8 0 -30 1t-58 1q-37 0 -56.5 -1t-29.5 -1q-17 0 -17 16q0 11 6.5 173.5t7.5 478.5q-101 3 -342 3q-118 0 -200.5 -1t-131.5 -3q1 -312 7.5 -476t6.5 -175q0 -16 -17 -16q-8 0 -30 1t-58 1q-37 0 -56.5 -1 t-29.5 -1q-17 0 -17 16q0 11 7 188.5t7 518.5q0 156 -2 278.5t-5 208t-5 133t-2 53.5z" />
<glyph unicode="&#x1f2d;" horiz-adv-x="1434" d="M698 1553q-6 -2 -23.5 -3.5t-31.5 -1.5q-53 0 -94.5 16.5t-71 45.5t-45 69t-15.5 88q0 44 14 82.5t42.5 67.5t71.5 45.5t101 16.5q16 0 31.5 -1t23.5 -3q11 -2 13.5 -11.5t2.5 -41.5q0 -27 -1 -42.5t-2.5 -23t-3 -9t-3.5 -1.5q-3 0 -14 1t-31 1q-38 0 -64.5 -7.5 t-43 -21.5t-24 -33t-7.5 -42q0 -30 11.5 -52.5t30.5 -36.5t44 -21t52 -7q16 0 23.5 1.5t12.5 1.5t8 -9.5t3 -44.5q0 -11 -2 -16t-8 -7zM982 1980q3 6 6.5 7.5t6.5 1.5q9 0 23.5 -9.5t37.5 -24.5q29 -18 46.5 -28.5t17.5 -19.5q0 -6 -4 -11l-250 -339q-9 -12 -12 -12 q-6 0 -19.5 6.5t-27 14.5t-23.5 16.5t-10 12.5q0 1 8 15zM186 1394q0 16 17 16q8 0 30 -1t58 -1q37 0 56.5 1t29.5 1q17 0 17 -16q0 -11 -6 -155t-8 -412q100 -3 342 -3q118 0 199.5 1t132.5 2q-1 131 -3 234t-4.5 175.5t-4.5 112.5t-2 45q0 16 17 16q8 0 30 -1t58 -1 q37 0 56.5 1t29.5 1q17 0 17 -16q0 -6 -2 -52t-5 -130t-5 -204.5t-2 -276.5q0 -341 7 -523.5t7 -193.5q0 -16 -17 -16q-8 0 -30 1t-58 1q-37 0 -56.5 -1t-29.5 -1q-17 0 -17 16q0 11 6.5 173.5t7.5 478.5q-101 3 -342 3q-118 0 -200.5 -1t-131.5 -3q1 -312 7.5 -476 t6.5 -175q0 -16 -17 -16q-8 0 -30 1t-58 1q-37 0 -56.5 -1t-29.5 -1q-17 0 -17 16q0 11 7 188.5t7 518.5q0 156 -2 278.5t-5 208t-5 133t-2 53.5z" />
<glyph unicode="&#x1f25;" horiz-adv-x="1434" d="M698 1553q-6 -2 -23.5 -3.5t-31.5 -1.5q-53 0 -94.5 16.5t-71 45.5t-45 69t-15.5 88q0 44 14 82.5t42.5 67.5t71.5 45.5t101 16.5q16 0 31.5 -1t23.5 -3q11 -2 13.5 -11.5t2.5 -41.5q0 -27 -1 -42.5t-2.5 -23t-3 -9t-3.5 -1.5q-3 0 -14 1t-31 1q-38 0 -64.5 -7.5 t-43 -21.5t-24 -33t-7.5 -42q0 -30 11.5 -52.5t30.5 -36.5t44 -21t52 -7q16 0 23.5 1.5t12.5 1.5t8 -9.5t3 -44.5q0 -11 -2 -16t-8 -7zM982 1980q3 6 6.5 7.5t6.5 1.5q9 0 23.5 -9.5t37.5 -24.5q29 -18 46.5 -28.5t17.5 -19.5q0 -6 -4 -11l-250 -339q-9 -12 -12 -12 q-6 0 -19.5 6.5t-27 14.5t-23.5 16.5t-10 12.5q0 1 8 15zM186 1394q0 16 17 16q8 0 30 -1t58 -1q37 0 56.5 1t29.5 1q17 0 17 -16q0 -11 -6 -155t-8 -412q100 -3 342 -3q118 0 199.5 1t132.5 2q-1 131 -3 234t-4.5 175.5t-4.5 112.5t-2 45q0 16 17 16q8 0 30 -1t58 -1 q37 0 56.5 1t29.5 1q17 0 17 -16q0 -6 -2 -52t-5 -130t-5 -204.5t-2 -276.5q0 -341 7 -523.5t7 -193.5q0 -16 -17 -16q-8 0 -30 1t-58 1q-37 0 -56.5 -1t-29.5 -1q-17 0 -17 16q0 11 6.5 173.5t7.5 478.5q-101 3 -342 3q-118 0 -200.5 -1t-131.5 -3q1 -312 7.5 -476 t6.5 -175q0 -16 -17 -16q-8 0 -30 1t-58 1q-37 0 -56.5 -1t-29.5 -1q-17 0 -17 16q0 11 7 188.5t7 518.5q0 156 -2 278.5t-5 208t-5 133t-2 53.5z" />
<glyph unicode="&#x1f2e;" horiz-adv-x="1434" d="M619 1549q-6 2 -8 7t-2 16q0 35 3 44.5t8 9.5t12.5 -1.5t23.5 -1.5q28 0 54 7t45.5 21.5t31.5 36t12 50.5q0 21 -7 38.5t-23 30t-42.5 19.5t-66.5 7q-20 0 -31 -1t-14 -1q-2 0 -3.5 1.5t-3 8.5t-2.5 21t-1 40q0 31 2.5 39.5t13.5 10.5q10 2 26.5 4t41.5 2q38 0 77.5 -9.5 t71.5 -32.5t52.5 -61t20.5 -94q0 -48 -17.5 -88t-48.5 -68.5t-73.5 -44.5t-93.5 -16q-15 0 -33.5 1.5t-25.5 3.5zM1012 1874q-2 0 -5 1.5t-7 9.5q-9 19 -26 49.5t-48.5 59t-81.5 49t-126 20.5q-75 0 -125.5 -20t-82.5 -48.5t-49.5 -59t-26.5 -50.5q-4 -8 -7 -9.5t-5 -1.5 q-6 0 -19.5 4t-27.5 10t-25 12.5t-11 11.5q0 2 1.5 7t3.5 10q8 21 20 49.5t31.5 59t47.5 59.5t68 52t92.5 37t120.5 14q69 0 121 -14t90.5 -37t65 -52.5t44 -59.5t28.5 -58.5t18 -50.5q2 -5 3 -9t1 -6q0 -5 -11 -12t-25 -13t-27.5 -10t-19.5 -4zM186 1394q0 16 17 16 q8 0 30 -1t58 -1q37 0 56.5 1t29.5 1q17 0 17 -16q0 -11 -6 -155t-8 -412q100 -3 342 -3q118 0 199.5 1t132.5 2q-1 131 -3 234t-4.5 175.5t-4.5 112.5t-2 45q0 16 17 16q8 0 30 -1t58 -1q37 0 56.5 1t29.5 1q17 0 17 -16q0 -6 -2 -52t-5 -130t-5 -204.5t-2 -276.5 q0 -341 7 -523.5t7 -193.5q0 -16 -17 -16q-8 0 -30 1t-58 1q-37 0 -56.5 -1t-29.5 -1q-17 0 -17 16q0 11 6.5 173.5t7.5 478.5q-101 3 -342 3q-118 0 -200.5 -1t-131.5 -3q1 -312 7.5 -476t6.5 -175q0 -16 -17 -16q-8 0 -30 1t-58 1q-37 0 -56.5 -1t-29.5 -1q-17 0 -17 16 q0 11 7 188.5t7 518.5q0 156 -2 278.5t-5 208t-5 133t-2 53.5z" />
<glyph unicode="&#x1f26;" horiz-adv-x="1434" d="M619 1549q-6 2 -8 7t-2 16q0 35 3 44.5t8 9.5t12.5 -1.5t23.5 -1.5q28 0 54 7t45.5 21.5t31.5 36t12 50.5q0 21 -7 38.5t-23 30t-42.5 19.5t-66.5 7q-20 0 -31 -1t-14 -1q-2 0 -3.5 1.5t-3 8.5t-2.5 21t-1 40q0 31 2.5 39.5t13.5 10.5q10 2 26.5 4t41.5 2q38 0 77.5 -9.5 t71.5 -32.5t52.5 -61t20.5 -94q0 -48 -17.5 -88t-48.5 -68.5t-73.5 -44.5t-93.5 -16q-15 0 -33.5 1.5t-25.5 3.5zM1012 1874q-2 0 -5 1.5t-7 9.5q-9 19 -26 49.5t-48.5 59t-81.5 49t-126 20.5q-75 0 -125.5 -20t-82.5 -48.5t-49.5 -59t-26.5 -50.5q-4 -8 -7 -9.5t-5 -1.5 q-6 0 -19.5 4t-27.5 10t-25 12.5t-11 11.5q0 2 1.5 7t3.5 10q8 21 20 49.5t31.5 59t47.5 59.5t68 52t92.5 37t120.5 14q69 0 121 -14t90.5 -37t65 -52.5t44 -59.5t28.5 -58.5t18 -50.5q2 -5 3 -9t1 -6q0 -5 -11 -12t-25 -13t-27.5 -10t-19.5 -4zM186 1394q0 16 17 16 q8 0 30 -1t58 -1q37 0 56.5 1t29.5 1q17 0 17 -16q0 -11 -6 -155t-8 -412q100 -3 342 -3q118 0 199.5 1t132.5 2q-1 131 -3 234t-4.5 175.5t-4.5 112.5t-2 45q0 16 17 16q8 0 30 -1t58 -1q37 0 56.5 1t29.5 1q17 0 17 -16q0 -6 -2 -52t-5 -130t-5 -204.5t-2 -276.5 q0 -341 7 -523.5t7 -193.5q0 -16 -17 -16q-8 0 -30 1t-58 1q-37 0 -56.5 -1t-29.5 -1q-17 0 -17 16q0 11 6.5 173.5t7.5 478.5q-101 3 -342 3q-118 0 -200.5 -1t-131.5 -3q1 -312 7.5 -476t6.5 -175q0 -16 -17 -16q-8 0 -30 1t-58 1q-37 0 -56.5 -1t-29.5 -1q-17 0 -17 16 q0 11 7 188.5t7 518.5q0 156 -2 278.5t-5 208t-5 133t-2 53.5z" />
<glyph unicode="&#x1f2f;" horiz-adv-x="1434" d="M815 1549q-7 -2 -25.5 -3.5t-33.5 -1.5q-50 0 -92.5 15t-73.5 42t-49 65.5t-18 85.5q0 49 17 87.5t48 64.5t74.5 40t95.5 14q37 0 55 -5q11 -2 13.5 -11t2.5 -40q0 -26 -1 -40t-2.5 -21t-3 -8.5t-3.5 -1.5q-3 0 -14 1t-31 1q-40 0 -66.5 -7t-42.5 -19.5t-23 -30t-7 -38.5 q0 -29 12 -50.5t31.5 -36t45.5 -21.5t54 -7q16 0 23.5 1.5t12.5 1.5t8 -9.5t3 -44.5q0 -11 -2 -16t-8 -7zM1014 1874q-2 0 -5 1.5t-7 9.5q-9 19 -26 49.5t-48.5 59t-81.5 49t-126 20.5q-75 0 -125.5 -20t-82.5 -48.5t-49.5 -59t-26.5 -50.5q-4 -8 -7 -9.5t-5 -1.5 q-6 0 -19.5 4t-27.5 10t-25 12.5t-11 11.5q0 2 1.5 7t3.5 10q8 21 20 49.5t31.5 59t47.5 59.5t68 52t92.5 37t120.5 14q69 0 121 -14t90.5 -37t65 -52.5t44 -59.5t28.5 -58.5t18 -50.5q2 -5 3 -9t1 -6q0 -5 -11 -12t-25 -13t-27.5 -10t-19.5 -4zM186 1394q0 16 17 16 q8 0 30 -1t58 -1q37 0 56.5 1t29.5 1q17 0 17 -16q0 -11 -6 -155t-8 -412q100 -3 342 -3q118 0 199.5 1t132.5 2q-1 131 -3 234t-4.5 175.5t-4.5 112.5t-2 45q0 16 17 16q8 0 30 -1t58 -1q37 0 56.5 1t29.5 1q17 0 17 -16q0 -6 -2 -52t-5 -130t-5 -204.5t-2 -276.5 q0 -341 7 -523.5t7 -193.5q0 -16 -17 -16q-8 0 -30 1t-58 1q-37 0 -56.5 -1t-29.5 -1q-17 0 -17 16q0 11 6.5 173.5t7.5 478.5q-101 3 -342 3q-118 0 -200.5 -1t-131.5 -3q1 -312 7.5 -476t6.5 -175q0 -16 -17 -16q-8 0 -30 1t-58 1q-37 0 -56.5 -1t-29.5 -1q-17 0 -17 16 q0 11 7 188.5t7 518.5q0 156 -2 278.5t-5 208t-5 133t-2 53.5z" />
<glyph unicode="&#x1f27;" horiz-adv-x="1434" d="M815 1549q-7 -2 -25.5 -3.5t-33.5 -1.5q-50 0 -92.5 15t-73.5 42t-49 65.5t-18 85.5q0 49 17 87.5t48 64.5t74.5 40t95.5 14q37 0 55 -5q11 -2 13.5 -11t2.5 -40q0 -26 -1 -40t-2.5 -21t-3 -8.5t-3.5 -1.5q-3 0 -14 1t-31 1q-40 0 -66.5 -7t-42.5 -19.5t-23 -30t-7 -38.5 q0 -29 12 -50.5t31.5 -36t45.5 -21.5t54 -7q16 0 23.5 1.5t12.5 1.5t8 -9.5t3 -44.5q0 -11 -2 -16t-8 -7zM1014 1874q-2 0 -5 1.5t-7 9.5q-9 19 -26 49.5t-48.5 59t-81.5 49t-126 20.5q-75 0 -125.5 -20t-82.5 -48.5t-49.5 -59t-26.5 -50.5q-4 -8 -7 -9.5t-5 -1.5 q-6 0 -19.5 4t-27.5 10t-25 12.5t-11 11.5q0 2 1.5 7t3.5 10q8 21 20 49.5t31.5 59t47.5 59.5t68 52t92.5 37t120.5 14q69 0 121 -14t90.5 -37t65 -52.5t44 -59.5t28.5 -58.5t18 -50.5q2 -5 3 -9t1 -6q0 -5 -11 -12t-25 -13t-27.5 -10t-19.5 -4zM186 1394q0 16 17 16 q8 0 30 -1t58 -1q37 0 56.5 1t29.5 1q17 0 17 -16q0 -11 -6 -155t-8 -412q100 -3 342 -3q118 0 199.5 1t132.5 2q-1 131 -3 234t-4.5 175.5t-4.5 112.5t-2 45q0 16 17 16q8 0 30 -1t58 -1q37 0 56.5 1t29.5 1q17 0 17 -16q0 -6 -2 -52t-5 -130t-5 -204.5t-2 -276.5 q0 -341 7 -523.5t7 -193.5q0 -16 -17 -16q-8 0 -30 1t-58 1q-37 0 -56.5 -1t-29.5 -1q-17 0 -17 16q0 11 6.5 173.5t7.5 478.5q-101 3 -342 3q-118 0 -200.5 -1t-131.5 -3q1 -312 7.5 -476t6.5 -175q0 -16 -17 -16q-8 0 -30 1t-58 1q-37 0 -56.5 -1t-29.5 -1q-17 0 -17 16 q0 11 7 188.5t7 518.5q0 156 -2 278.5t-5 208t-5 133t-2 53.5z" />
<glyph unicode="&#x1f38;" horiz-adv-x="580" d="M186 1394q0 16 17 16q8 0 30 -1t58 -1q37 0 56.5 1t29.5 1q17 0 17 -16q0 -6 -2 -52t-5 -130t-5 -204.5t-2 -276.5q0 -341 7 -523.5t7 -193.5q0 -16 -17 -16q-8 0 -30 1t-58 1q-37 0 -56.5 -1t-29.5 -1q-17 0 -17 16q0 11 7 188.5t7 518.5q0 156 -2 278.5t-5 208t-5 133 t-2 53.5zM187 1549q-6 2 -8 7t-2 16q0 35 3 44.5t8 9.5t12.5 -1.5t23.5 -1.5q30 0 57.5 7.5t49 22.5t34 38t12.5 53q0 23 -8 42t-26.5 33t-48 21.5t-71.5 7.5q-20 0 -31 -1t-14 -1q-2 0 -3.5 1.5t-3 9t-2.5 23t-1 42.5q0 32 2.5 41.5t13.5 11.5q8 2 23.5 3t31.5 1 q121 0 185.5 -55.5t64.5 -152.5q0 -51 -18 -92.5t-50.5 -71.5t-77 -46.5t-97.5 -16.5q-15 0 -33.5 1.5t-25.5 3.5z" />
<glyph unicode="&#x1f30;" horiz-adv-x="580" d="M186 1394q0 16 17 16q8 0 30 -1t58 -1q37 0 56.5 1t29.5 1q17 0 17 -16q0 -6 -2 -52t-5 -130t-5 -204.5t-2 -276.5q0 -341 7 -523.5t7 -193.5q0 -16 -17 -16q-8 0 -30 1t-58 1q-37 0 -56.5 -1t-29.5 -1q-17 0 -17 16q0 11 7 188.5t7 518.5q0 156 -2 278.5t-5 208t-5 133 t-2 53.5zM187 1549q-6 2 -8 7t-2 16q0 35 3 44.5t8 9.5t12.5 -1.5t23.5 -1.5q30 0 57.5 7.5t49 22.5t34 38t12.5 53q0 23 -8 42t-26.5 33t-48 21.5t-71.5 7.5q-20 0 -31 -1t-14 -1q-2 0 -3.5 1.5t-3 9t-2.5 23t-1 42.5q0 32 2.5 41.5t13.5 11.5q8 2 23.5 3t31.5 1 q121 0 185.5 -55.5t64.5 -152.5q0 -51 -18 -92.5t-50.5 -71.5t-77 -46.5t-97.5 -16.5q-15 0 -33.5 1.5t-25.5 3.5z" />
<glyph unicode="&#x1f39;" horiz-adv-x="580" d="M186 1394q0 16 17 16q8 0 30 -1t58 -1q37 0 56.5 1t29.5 1q17 0 17 -16q0 -6 -2 -52t-5 -130t-5 -204.5t-2 -276.5q0 -341 7 -523.5t7 -193.5q0 -16 -17 -16q-8 0 -30 1t-58 1q-37 0 -56.5 -1t-29.5 -1q-17 0 -17 16q0 11 7 188.5t7 518.5q0 156 -2 278.5t-5 208t-5 133 t-2 53.5zM393 1549q-7 -2 -25.5 -3.5t-33.5 -1.5q-54 0 -99 16.5t-77 45.5t-49.5 70t-17.5 91q0 45 15.5 84t47 67.5t78.5 44.5t109 16q16 0 31.5 -1t23.5 -3q11 -2 13.5 -11.5t2.5 -41.5q0 -27 -1 -42.5t-2.5 -23t-3 -9t-3.5 -1.5q-3 0 -14 1t-31 1q-42 0 -71.5 -7.5 t-48 -21.5t-26.5 -33t-8 -42q0 -30 12.5 -53t34 -38t49 -22.5t57.5 -7.5q16 0 23.5 1.5t12.5 1.5t8 -9.5t3 -44.5q0 -11 -2 -16t-8 -7z" />
<glyph unicode="&#x1f31;" horiz-adv-x="580" d="M186 1394q0 16 17 16q8 0 30 -1t58 -1q37 0 56.5 1t29.5 1q17 0 17 -16q0 -6 -2 -52t-5 -130t-5 -204.5t-2 -276.5q0 -341 7 -523.5t7 -193.5q0 -16 -17 -16q-8 0 -30 1t-58 1q-37 0 -56.5 -1t-29.5 -1q-17 0 -17 16q0 11 7 188.5t7 518.5q0 156 -2 278.5t-5 208t-5 133 t-2 53.5zM393 1549q-7 -2 -25.5 -3.5t-33.5 -1.5q-54 0 -99 16.5t-77 45.5t-49.5 70t-17.5 91q0 45 15.5 84t47 67.5t78.5 44.5t109 16q16 0 31.5 -1t23.5 -3q11 -2 13.5 -11.5t2.5 -41.5q0 -27 -1 -42.5t-2.5 -23t-3 -9t-3.5 -1.5q-3 0 -14 1t-31 1q-42 0 -71.5 -7.5 t-48 -21.5t-26.5 -33t-8 -42q0 -30 12.5 -53t34 -38t49 -22.5t57.5 -7.5q16 0 23.5 1.5t12.5 1.5t8 -9.5t3 -44.5q0 -11 -2 -16t-8 -7z" />
<glyph unicode="&#x1f3a;" horiz-adv-x="580" d="M-10 1549q-6 2 -8 7t-2 16q0 35 3 44.5t8 9.5t12.5 -1.5t23.5 -1.5q27 0 52 7.5t44 22.5t30.5 38t11.5 53q0 46 -31.5 75t-107.5 29q-20 0 -31 -1t-14 -1q-2 0 -3.5 1.5t-3 9t-2.5 23t-1 42.5q0 32 2.5 41.5t13.5 11.5q8 2 23.5 3t31.5 1q111 0 170.5 -55.5t59.5 -152.5 q0 -51 -17 -92.5t-47 -71.5t-72 -46.5t-91 -16.5q-14 0 -31.5 1.5t-23.5 3.5zM636 1610q8 -14 8 -15q0 -4 -10 -12.5t-23 -16.5t-26 -14.5t-19 -6.5q-3 0 -12 12l-240 339q-4 5 -4 11q0 9 17.5 19.5t46.5 28.5q23 15 37.5 24.5t23.5 9.5q3 0 6.5 -1.5t6.5 -7.5zM186 1394 q0 16 17 16q8 0 30 -1t58 -1q37 0 56.5 1t29.5 1q17 0 17 -16q0 -6 -2 -52t-5 -130t-5 -204.5t-2 -276.5q0 -341 7 -523.5t7 -193.5q0 -16 -17 -16q-8 0 -30 1t-58 1q-37 0 -56.5 -1t-29.5 -1q-17 0 -17 16q0 11 7 188.5t7 518.5q0 156 -2 278.5t-5 208t-5 133t-2 53.5z" />
<glyph unicode="&#x1f32;" horiz-adv-x="580" d="M-10 1549q-6 2 -8 7t-2 16q0 35 3 44.5t8 9.5t12.5 -1.5t23.5 -1.5q27 0 52 7.5t44 22.5t30.5 38t11.5 53q0 46 -31.5 75t-107.5 29q-20 0 -31 -1t-14 -1q-2 0 -3.5 1.5t-3 9t-2.5 23t-1 42.5q0 32 2.5 41.5t13.5 11.5q8 2 23.5 3t31.5 1q111 0 170.5 -55.5t59.5 -152.5 q0 -51 -17 -92.5t-47 -71.5t-72 -46.5t-91 -16.5q-14 0 -31.5 1.5t-23.5 3.5zM636 1610q8 -14 8 -15q0 -4 -10 -12.5t-23 -16.5t-26 -14.5t-19 -6.5q-3 0 -12 12l-240 339q-4 5 -4 11q0 9 17.5 19.5t46.5 28.5q23 15 37.5 24.5t23.5 9.5q3 0 6.5 -1.5t6.5 -7.5zM186 1394 q0 16 17 16q8 0 30 -1t58 -1q37 0 56.5 1t29.5 1q17 0 17 -16q0 -6 -2 -52t-5 -130t-5 -204.5t-2 -276.5q0 -341 7 -523.5t7 -193.5q0 -16 -17 -16q-8 0 -30 1t-58 1q-37 0 -56.5 -1t-29.5 -1q-17 0 -17 16q0 11 7 188.5t7 518.5q0 156 -2 278.5t-5 208t-5 133t-2 53.5z" />
<glyph unicode="&#x1f3b;" horiz-adv-x="580" d="M611 1610q8 -14 8 -15q0 -4 -10 -12.5t-23 -16.5t-26 -14.5t-19 -6.5q-3 0 -12 12l-240 339q-4 5 -4 11q0 9 17.5 19.5t46.5 28.5q23 15 37.5 24.5t23.5 9.5q3 0 6.5 -1.5t6.5 -7.5zM211 1548q-6 -2 -23.5 -3.5t-31.5 -1.5q-53 0 -94.5 17t-71 47t-45 70.5t-15.5 88.5 q0 44 14 82.5t42.5 67.5t71.5 45.5t101 16.5q16 0 31.5 -1t23.5 -3q11 -2 13.5 -11.5t2.5 -41.5q0 -27 -1 -42.5t-2.5 -23t-3 -9t-3.5 -1.5q-3 0 -14 1t-31 1q-38 0 -64.5 -7.5t-43 -21.5t-24 -33t-7.5 -42q0 -30 11.5 -53t30.5 -38t44 -22.5t52 -7.5q16 0 23.5 1.5 t12.5 1.5t8 -9.5t3 -44.5q0 -11 -2 -16t-8 -7zM186 1394q0 16 17 16q8 0 30 -1t58 -1q37 0 56.5 1t29.5 1q17 0 17 -16q0 -6 -2 -52t-5 -130t-5 -204.5t-2 -276.5q0 -341 7 -523.5t7 -193.5q0 -16 -17 -16q-8 0 -30 1t-58 1q-37 0 -56.5 -1t-29.5 -1q-17 0 -17 16 q0 11 7 188.5t7 518.5q0 156 -2 278.5t-5 208t-5 133t-2 53.5z" />
<glyph unicode="&#x1f33;" horiz-adv-x="580" d="M611 1610q8 -14 8 -15q0 -4 -10 -12.5t-23 -16.5t-26 -14.5t-19 -6.5q-3 0 -12 12l-240 339q-4 5 -4 11q0 9 17.5 19.5t46.5 28.5q23 15 37.5 24.5t23.5 9.5q3 0 6.5 -1.5t6.5 -7.5zM211 1548q-6 -2 -23.5 -3.5t-31.5 -1.5q-53 0 -94.5 17t-71 47t-45 70.5t-15.5 88.5 q0 44 14 82.5t42.5 67.5t71.5 45.5t101 16.5q16 0 31.5 -1t23.5 -3q11 -2 13.5 -11.5t2.5 -41.5q0 -27 -1 -42.5t-2.5 -23t-3 -9t-3.5 -1.5q-3 0 -14 1t-31 1q-38 0 -64.5 -7.5t-43 -21.5t-24 -33t-7.5 -42q0 -30 11.5 -53t30.5 -38t44 -22.5t52 -7.5q16 0 23.5 1.5 t12.5 1.5t8 -9.5t3 -44.5q0 -11 -2 -16t-8 -7zM186 1394q0 16 17 16q8 0 30 -1t58 -1q37 0 56.5 1t29.5 1q17 0 17 -16q0 -6 -2 -52t-5 -130t-5 -204.5t-2 -276.5q0 -341 7 -523.5t7 -193.5q0 -16 -17 -16q-8 0 -30 1t-58 1q-37 0 -56.5 -1t-29.5 -1q-17 0 -17 16 q0 11 7 188.5t7 518.5q0 156 -2 278.5t-5 208t-5 133t-2 53.5z" />
<glyph unicode="&#x1f3c;" horiz-adv-x="580" d="M37 1549q-6 2 -8 7t-2 16q0 35 3 44.5t8 9.5t12.5 -1.5t23.5 -1.5q27 0 52 7.5t44 22.5t30.5 38t11.5 53q0 46 -31.5 75t-107.5 29q-20 0 -31 -1t-14 -1q-2 0 -3.5 1.5t-3 9t-2.5 23t-1 42.5q0 32 2.5 41.5t13.5 11.5q8 2 23.5 3t31.5 1q111 0 170.5 -55.5t59.5 -152.5 q0 -51 -17 -92.5t-47 -71.5t-72 -46.5t-91 -16.5q-14 0 -31.5 1.5t-23.5 3.5zM555 1980q3 6 6.5 7.5t6.5 1.5q9 0 23.5 -9.5t37.5 -24.5q29 -18 46.5 -28.5t17.5 -19.5q0 -6 -4 -11l-250 -339q-9 -12 -12 -12q-6 0 -19.5 6.5t-27 14.5t-23.5 16.5t-10 12.5q0 1 8 15z M186 1394q0 16 17 16q8 0 30 -1t58 -1q37 0 56.5 1t29.5 1q17 0 17 -16q0 -6 -2 -52t-5 -130t-5 -204.5t-2 -276.5q0 -341 7 -523.5t7 -193.5q0 -16 -17 -16q-8 0 -30 1t-58 1q-37 0 -56.5 -1t-29.5 -1q-17 0 -17 16q0 11 7 188.5t7 518.5q0 156 -2 278.5t-5 208t-5 133 t-2 53.5z" />
<glyph unicode="&#x1f34;" horiz-adv-x="580" d="M37 1549q-6 2 -8 7t-2 16q0 35 3 44.5t8 9.5t12.5 -1.5t23.5 -1.5q27 0 52 7.5t44 22.5t30.5 38t11.5 53q0 46 -31.5 75t-107.5 29q-20 0 -31 -1t-14 -1q-2 0 -3.5 1.5t-3 9t-2.5 23t-1 42.5q0 32 2.5 41.5t13.5 11.5q8 2 23.5 3t31.5 1q111 0 170.5 -55.5t59.5 -152.5 q0 -51 -17 -92.5t-47 -71.5t-72 -46.5t-91 -16.5q-14 0 -31.5 1.5t-23.5 3.5zM555 1980q3 6 6.5 7.5t6.5 1.5q9 0 23.5 -9.5t37.5 -24.5q29 -18 46.5 -28.5t17.5 -19.5q0 -6 -4 -11l-250 -339q-9 -12 -12 -12q-6 0 -19.5 6.5t-27 14.5t-23.5 16.5t-10 12.5q0 1 8 15z M186 1394q0 16 17 16q8 0 30 -1t58 -1q37 0 56.5 1t29.5 1q17 0 17 -16q0 -6 -2 -52t-5 -130t-5 -204.5t-2 -276.5q0 -341 7 -523.5t7 -193.5q0 -16 -17 -16q-8 0 -30 1t-58 1q-37 0 -56.5 -1t-29.5 -1q-17 0 -17 16q0 11 7 188.5t7 518.5q0 156 -2 278.5t-5 208t-5 133 t-2 53.5z" />
<glyph unicode="&#x1f3d;" horiz-adv-x="580" d="M271 1553q-6 -2 -23.5 -3.5t-31.5 -1.5q-53 0 -94.5 16.5t-71 45.5t-45 69t-15.5 88q0 44 14 82.5t42.5 67.5t71.5 45.5t101 16.5q16 0 31.5 -1t23.5 -3q11 -2 13.5 -11.5t2.5 -41.5q0 -27 -1 -42.5t-2.5 -23t-3 -9t-3.5 -1.5q-3 0 -14 1t-31 1q-38 0 -64.5 -7.5 t-43 -21.5t-24 -33t-7.5 -42q0 -30 11.5 -52.5t30.5 -36.5t44 -21t52 -7q16 0 23.5 1.5t12.5 1.5t8 -9.5t3 -44.5q0 -11 -2 -16t-8 -7zM555 1980q3 6 6.5 7.5t6.5 1.5q9 0 23.5 -9.5t37.5 -24.5q29 -18 46.5 -28.5t17.5 -19.5q0 -6 -4 -11l-250 -339q-9 -12 -12 -12 q-6 0 -19.5 6.5t-27 14.5t-23.5 16.5t-10 12.5q0 1 8 15zM186 1394q0 16 17 16q8 0 30 -1t58 -1q37 0 56.5 1t29.5 1q17 0 17 -16q0 -6 -2 -52t-5 -130t-5 -204.5t-2 -276.5q0 -341 7 -523.5t7 -193.5q0 -16 -17 -16q-8 0 -30 1t-58 1q-37 0 -56.5 -1t-29.5 -1q-17 0 -17 16 q0 11 7 188.5t7 518.5q0 156 -2 278.5t-5 208t-5 133t-2 53.5z" />
<glyph unicode="&#x1f35;" horiz-adv-x="580" d="M271 1553q-6 -2 -23.5 -3.5t-31.5 -1.5q-53 0 -94.5 16.5t-71 45.5t-45 69t-15.5 88q0 44 14 82.5t42.5 67.5t71.5 45.5t101 16.5q16 0 31.5 -1t23.5 -3q11 -2 13.5 -11.5t2.5 -41.5q0 -27 -1 -42.5t-2.5 -23t-3 -9t-3.5 -1.5q-3 0 -14 1t-31 1q-38 0 -64.5 -7.5 t-43 -21.5t-24 -33t-7.5 -42q0 -30 11.5 -52.5t30.5 -36.5t44 -21t52 -7q16 0 23.5 1.5t12.5 1.5t8 -9.5t3 -44.5q0 -11 -2 -16t-8 -7zM555 1980q3 6 6.5 7.5t6.5 1.5q9 0 23.5 -9.5t37.5 -24.5q29 -18 46.5 -28.5t17.5 -19.5q0 -6 -4 -11l-250 -339q-9 -12 -12 -12 q-6 0 -19.5 6.5t-27 14.5t-23.5 16.5t-10 12.5q0 1 8 15zM186 1394q0 16 17 16q8 0 30 -1t58 -1q37 0 56.5 1t29.5 1q17 0 17 -16q0 -6 -2 -52t-5 -130t-5 -204.5t-2 -276.5q0 -341 7 -523.5t7 -193.5q0 -16 -17 -16q-8 0 -30 1t-58 1q-37 0 -56.5 -1t-29.5 -1q-17 0 -17 16 q0 11 7 188.5t7 518.5q0 156 -2 278.5t-5 208t-5 133t-2 53.5z" />
<glyph unicode="&#x1f3e;" horiz-adv-x="580" d="M192 1549q-6 2 -8 7t-2 16q0 35 3 44.5t8 9.5t12.5 -1.5t23.5 -1.5q28 0 54 7t45.5 21.5t31.5 36t12 50.5q0 21 -7 38.5t-23 30t-42.5 19.5t-66.5 7q-20 0 -31 -1t-14 -1q-2 0 -3.5 1.5t-3 8.5t-2.5 21t-1 40q0 31 2.5 39.5t13.5 10.5q10 2 26.5 4t41.5 2q38 0 77.5 -9.5 t71.5 -32.5t52.5 -61t20.5 -94q0 -48 -17.5 -88t-48.5 -68.5t-73.5 -44.5t-93.5 -16q-15 0 -33.5 1.5t-25.5 3.5zM585 1874q-2 0 -5 1.5t-7 9.5q-9 19 -26 49.5t-48.5 59t-81.5 49t-126 20.5q-75 0 -125.5 -20t-82.5 -48.5t-49.5 -59t-26.5 -50.5q-4 -8 -7 -9.5t-5 -1.5 q-6 0 -19.5 4t-27.5 10t-25 12.5t-11 11.5q0 2 1.5 7t3.5 10q8 21 20 49.5t31.5 59t47.5 59.5t68 52t92.5 37t120.5 14q69 0 121 -14t90.5 -37t65 -52.5t44 -59.5t28.5 -58.5t18 -50.5q2 -5 3 -9t1 -6q0 -5 -11 -12t-25 -13t-27.5 -10t-19.5 -4zM186 1394q0 16 17 16 q8 0 30 -1t58 -1q37 0 56.5 1t29.5 1q17 0 17 -16q0 -6 -2 -52t-5 -130t-5 -204.5t-2 -276.5q0 -341 7 -523.5t7 -193.5q0 -16 -17 -16q-8 0 -30 1t-58 1q-37 0 -56.5 -1t-29.5 -1q-17 0 -17 16q0 11 7 188.5t7 518.5q0 156 -2 278.5t-5 208t-5 133t-2 53.5z" />
<glyph unicode="&#x1f36;" horiz-adv-x="580" d="M192 1549q-6 2 -8 7t-2 16q0 35 3 44.5t8 9.5t12.5 -1.5t23.5 -1.5q28 0 54 7t45.5 21.5t31.5 36t12 50.5q0 21 -7 38.5t-23 30t-42.5 19.5t-66.5 7q-20 0 -31 -1t-14 -1q-2 0 -3.5 1.5t-3 8.5t-2.5 21t-1 40q0 31 2.5 39.5t13.5 10.5q10 2 26.5 4t41.5 2q38 0 77.5 -9.5 t71.5 -32.5t52.5 -61t20.5 -94q0 -48 -17.5 -88t-48.5 -68.5t-73.5 -44.5t-93.5 -16q-15 0 -33.5 1.5t-25.5 3.5zM585 1874q-2 0 -5 1.5t-7 9.5q-9 19 -26 49.5t-48.5 59t-81.5 49t-126 20.5q-75 0 -125.5 -20t-82.5 -48.5t-49.5 -59t-26.5 -50.5q-4 -8 -7 -9.5t-5 -1.5 q-6 0 -19.5 4t-27.5 10t-25 12.5t-11 11.5q0 2 1.5 7t3.5 10q8 21 20 49.5t31.5 59t47.5 59.5t68 52t92.5 37t120.5 14q69 0 121 -14t90.5 -37t65 -52.5t44 -59.5t28.5 -58.5t18 -50.5q2 -5 3 -9t1 -6q0 -5 -11 -12t-25 -13t-27.5 -10t-19.5 -4zM186 1394q0 16 17 16 q8 0 30 -1t58 -1q37 0 56.5 1t29.5 1q17 0 17 -16q0 -6 -2 -52t-5 -130t-5 -204.5t-2 -276.5q0 -341 7 -523.5t7 -193.5q0 -16 -17 -16q-8 0 -30 1t-58 1q-37 0 -56.5 -1t-29.5 -1q-17 0 -17 16q0 11 7 188.5t7 518.5q0 156 -2 278.5t-5 208t-5 133t-2 53.5z" />
<glyph unicode="&#x1f3f;" horiz-adv-x="580" d="M388 1549q-7 -2 -25.5 -3.5t-33.5 -1.5q-50 0 -92.5 15t-73.5 42t-49 65.5t-18 85.5q0 49 17 87.5t48 64.5t74.5 40t95.5 14q37 0 55 -5q11 -2 13.5 -11t2.5 -40q0 -26 -1 -40t-2.5 -21t-3 -8.5t-3.5 -1.5q-3 0 -14 1t-31 1q-40 0 -66.5 -7t-42.5 -19.5t-23 -30t-7 -38.5 q0 -29 12 -50.5t31.5 -36t45.5 -21.5t54 -7q16 0 23.5 1.5t12.5 1.5t8 -9.5t3 -44.5q0 -11 -2 -16t-8 -7zM587 1874q-2 0 -5 1.5t-7 9.5q-9 19 -26 49.5t-48.5 59t-81.5 49t-126 20.5q-75 0 -125.5 -20t-82.5 -48.5t-49.5 -59t-26.5 -50.5q-4 -8 -7 -9.5t-5 -1.5 q-6 0 -19.5 4t-27.5 10t-25 12.5t-11 11.5q0 2 1.5 7t3.5 10q8 21 20 49.5t31.5 59t47.5 59.5t68 52t92.5 37t120.5 14q69 0 121 -14t90.5 -37t65 -52.5t44 -59.5t28.5 -58.5t18 -50.5q2 -5 3 -9t1 -6q0 -5 -11 -12t-25 -13t-27.5 -10t-19.5 -4zM186 1394q0 16 17 16 q8 0 30 -1t58 -1q37 0 56.5 1t29.5 1q17 0 17 -16q0 -6 -2 -52t-5 -130t-5 -204.5t-2 -276.5q0 -341 7 -523.5t7 -193.5q0 -16 -17 -16q-8 0 -30 1t-58 1q-37 0 -56.5 -1t-29.5 -1q-17 0 -17 16q0 11 7 188.5t7 518.5q0 156 -2 278.5t-5 208t-5 133t-2 53.5z" />
<glyph unicode="&#x1f37;" horiz-adv-x="580" d="M388 1549q-7 -2 -25.5 -3.5t-33.5 -1.5q-50 0 -92.5 15t-73.5 42t-49 65.5t-18 85.5q0 49 17 87.5t48 64.5t74.5 40t95.5 14q37 0 55 -5q11 -2 13.5 -11t2.5 -40q0 -26 -1 -40t-2.5 -21t-3 -8.5t-3.5 -1.5q-3 0 -14 1t-31 1q-40 0 -66.5 -7t-42.5 -19.5t-23 -30t-7 -38.5 q0 -29 12 -50.5t31.5 -36t45.5 -21.5t54 -7q16 0 23.5 1.5t12.5 1.5t8 -9.5t3 -44.5q0 -11 -2 -16t-8 -7zM587 1874q-2 0 -5 1.5t-7 9.5q-9 19 -26 49.5t-48.5 59t-81.5 49t-126 20.5q-75 0 -125.5 -20t-82.5 -48.5t-49.5 -59t-26.5 -50.5q-4 -8 -7 -9.5t-5 -1.5 q-6 0 -19.5 4t-27.5 10t-25 12.5t-11 11.5q0 2 1.5 7t3.5 10q8 21 20 49.5t31.5 59t47.5 59.5t68 52t92.5 37t120.5 14q69 0 121 -14t90.5 -37t65 -52.5t44 -59.5t28.5 -58.5t18 -50.5q2 -5 3 -9t1 -6q0 -5 -11 -12t-25 -13t-27.5 -10t-19.5 -4zM186 1394q0 16 17 16 q8 0 30 -1t58 -1q37 0 56.5 1t29.5 1q17 0 17 -16q0 -6 -2 -52t-5 -130t-5 -204.5t-2 -276.5q0 -341 7 -523.5t7 -193.5q0 -16 -17 -16q-8 0 -30 1t-58 1q-37 0 -56.5 -1t-29.5 -1q-17 0 -17 16q0 11 7 188.5t7 518.5q0 156 -2 278.5t-5 208t-5 133t-2 53.5z" />
<glyph unicode="&#x1f48;" horiz-adv-x="1466" d="M287 711q0 -141 36 -250.5t97.5 -184.5t143.5 -114t173 -39q90 0 170 38.5t140 112t95.5 180t35.5 243.5q0 141 -36.5 250.5t-98 184.5t-143.5 114t-173 39q-90 0 -170 -38.5t-140 -112t-95 -180t-35 -243.5zM99 696q0 177 51 315t138.5 233t204 144.5t246.5 49.5 q128 0 242 -48.5t199.5 -141.5t135.5 -228t50 -308q0 -177 -51.5 -315t-139 -233t-203.5 -144.5t-246 -49.5q-128 0 -242 48.5t-199.5 141.5t-135.5 228t-50 308zM630 1549q-6 2 -8 7t-2 16q0 35 3 44.5t8 9.5t12.5 -1.5t23.5 -1.5q30 0 57.5 7.5t49 22.5t34 38t12.5 53 q0 23 -8 42t-26.5 33t-48 21.5t-71.5 7.5q-20 0 -31 -1t-14 -1q-2 0 -3.5 1.5t-3 9t-2.5 23t-1 42.5q0 32 2.5 41.5t13.5 11.5q8 2 23.5 3t31.5 1q121 0 185.5 -55.5t64.5 -152.5q0 -51 -18 -92.5t-50.5 -71.5t-77 -46.5t-97.5 -16.5q-15 0 -33.5 1.5t-25.5 3.5z" />
<glyph unicode="&#x1f40;" horiz-adv-x="1466" d="M287 711q0 -141 36 -250.5t97.5 -184.5t143.5 -114t173 -39q90 0 170 38.5t140 112t95.5 180t35.5 243.5q0 141 -36.5 250.5t-98 184.5t-143.5 114t-173 39q-90 0 -170 -38.5t-140 -112t-95 -180t-35 -243.5zM99 696q0 177 51 315t138.5 233t204 144.5t246.5 49.5 q128 0 242 -48.5t199.5 -141.5t135.5 -228t50 -308q0 -177 -51.5 -315t-139 -233t-203.5 -144.5t-246 -49.5q-128 0 -242 48.5t-199.5 141.5t-135.5 228t-50 308zM630 1549q-6 2 -8 7t-2 16q0 35 3 44.5t8 9.5t12.5 -1.5t23.5 -1.5q30 0 57.5 7.5t49 22.5t34 38t12.5 53 q0 23 -8 42t-26.5 33t-48 21.5t-71.5 7.5q-20 0 -31 -1t-14 -1q-2 0 -3.5 1.5t-3 9t-2.5 23t-1 42.5q0 32 2.5 41.5t13.5 11.5q8 2 23.5 3t31.5 1q121 0 185.5 -55.5t64.5 -152.5q0 -51 -18 -92.5t-50.5 -71.5t-77 -46.5t-97.5 -16.5q-15 0 -33.5 1.5t-25.5 3.5z" />
<glyph unicode="&#x1f49;" horiz-adv-x="1466" d="M287 711q0 -141 36 -250.5t97.5 -184.5t143.5 -114t173 -39q90 0 170 38.5t140 112t95.5 180t35.5 243.5q0 141 -36.5 250.5t-98 184.5t-143.5 114t-173 39q-90 0 -170 -38.5t-140 -112t-95 -180t-35 -243.5zM99 696q0 177 51 315t138.5 233t204 144.5t246.5 49.5 q128 0 242 -48.5t199.5 -141.5t135.5 -228t50 -308q0 -177 -51.5 -315t-139 -233t-203.5 -144.5t-246 -49.5q-128 0 -242 48.5t-199.5 141.5t-135.5 228t-50 308zM836 1549q-7 -2 -25.5 -3.5t-33.5 -1.5q-54 0 -99 16.5t-77 45.5t-49.5 70t-17.5 91q0 45 15.5 84t47 67.5 t78.5 44.5t109 16q16 0 31.5 -1t23.5 -3q11 -2 13.5 -11.5t2.5 -41.5q0 -27 -1 -42.5t-2.5 -23t-3 -9t-3.5 -1.5q-3 0 -14 1t-31 1q-42 0 -71.5 -7.5t-48 -21.5t-26.5 -33t-8 -42q0 -30 12.5 -53t34 -38t49 -22.5t57.5 -7.5q16 0 23.5 1.5t12.5 1.5t8 -9.5t3 -44.5 q0 -11 -2 -16t-8 -7z" />
<glyph unicode="&#x1f41;" horiz-adv-x="1466" d="M287 711q0 -141 36 -250.5t97.5 -184.5t143.5 -114t173 -39q90 0 170 38.5t140 112t95.5 180t35.5 243.5q0 141 -36.5 250.5t-98 184.5t-143.5 114t-173 39q-90 0 -170 -38.5t-140 -112t-95 -180t-35 -243.5zM99 696q0 177 51 315t138.5 233t204 144.5t246.5 49.5 q128 0 242 -48.5t199.5 -141.5t135.5 -228t50 -308q0 -177 -51.5 -315t-139 -233t-203.5 -144.5t-246 -49.5q-128 0 -242 48.5t-199.5 141.5t-135.5 228t-50 308zM836 1549q-7 -2 -25.5 -3.5t-33.5 -1.5q-54 0 -99 16.5t-77 45.5t-49.5 70t-17.5 91q0 45 15.5 84t47 67.5 t78.5 44.5t109 16q16 0 31.5 -1t23.5 -3q11 -2 13.5 -11.5t2.5 -41.5q0 -27 -1 -42.5t-2.5 -23t-3 -9t-3.5 -1.5q-3 0 -14 1t-31 1q-42 0 -71.5 -7.5t-48 -21.5t-26.5 -33t-8 -42q0 -30 12.5 -53t34 -38t49 -22.5t57.5 -7.5q16 0 23.5 1.5t12.5 1.5t8 -9.5t3 -44.5 q0 -11 -2 -16t-8 -7z" />
<glyph unicode="&#x1f4a;" horiz-adv-x="1466" d="M433 1549q-6 2 -8 7t-2 16q0 35 3 44.5t8 9.5t12.5 -1.5t23.5 -1.5q27 0 52 7.5t44 22.5t30.5 38t11.5 53q0 46 -31.5 75t-107.5 29q-20 0 -31 -1t-14 -1q-2 0 -3.5 1.5t-3 9t-2.5 23t-1 42.5q0 32 2.5 41.5t13.5 11.5q8 2 23.5 3t31.5 1q111 0 170.5 -55.5t59.5 -152.5 q0 -51 -17 -92.5t-47 -71.5t-72 -46.5t-91 -16.5q-14 0 -31.5 1.5t-23.5 3.5zM1079 1610q8 -14 8 -15q0 -4 -10 -12.5t-23 -16.5t-26 -14.5t-19 -6.5q-3 0 -12 12l-240 339q-4 5 -4 11q0 9 17.5 19.5t46.5 28.5q23 15 37.5 24.5t23.5 9.5q3 0 6.5 -1.5t6.5 -7.5zM287 711 q0 -141 36 -250.5t97.5 -184.5t143.5 -114t173 -39q90 0 170 38.5t140 112t95.5 180t35.5 243.5q0 141 -36.5 250.5t-98 184.5t-143.5 114t-173 39q-90 0 -170 -38.5t-140 -112t-95 -180t-35 -243.5zM99 696q0 177 51 315t138.5 233t204 144.5t246.5 49.5q128 0 242 -48.5 t199.5 -141.5t135.5 -228t50 -308q0 -177 -51.5 -315t-139 -233t-203.5 -144.5t-246 -49.5q-128 0 -242 48.5t-199.5 141.5t-135.5 228t-50 308z" />
<glyph unicode="&#x1f42;" horiz-adv-x="1466" d="M433 1549q-6 2 -8 7t-2 16q0 35 3 44.5t8 9.5t12.5 -1.5t23.5 -1.5q27 0 52 7.5t44 22.5t30.5 38t11.5 53q0 46 -31.5 75t-107.5 29q-20 0 -31 -1t-14 -1q-2 0 -3.5 1.5t-3 9t-2.5 23t-1 42.5q0 32 2.5 41.5t13.5 11.5q8 2 23.5 3t31.5 1q111 0 170.5 -55.5t59.5 -152.5 q0 -51 -17 -92.5t-47 -71.5t-72 -46.5t-91 -16.5q-14 0 -31.5 1.5t-23.5 3.5zM1079 1610q8 -14 8 -15q0 -4 -10 -12.5t-23 -16.5t-26 -14.5t-19 -6.5q-3 0 -12 12l-240 339q-4 5 -4 11q0 9 17.5 19.5t46.5 28.5q23 15 37.5 24.5t23.5 9.5q3 0 6.5 -1.5t6.5 -7.5zM287 711 q0 -141 36 -250.5t97.5 -184.5t143.5 -114t173 -39q90 0 170 38.5t140 112t95.5 180t35.5 243.5q0 141 -36.5 250.5t-98 184.5t-143.5 114t-173 39q-90 0 -170 -38.5t-140 -112t-95 -180t-35 -243.5zM99 696q0 177 51 315t138.5 233t204 144.5t246.5 49.5q128 0 242 -48.5 t199.5 -141.5t135.5 -228t50 -308q0 -177 -51.5 -315t-139 -233t-203.5 -144.5t-246 -49.5q-128 0 -242 48.5t-199.5 141.5t-135.5 228t-50 308z" />
<glyph unicode="&#x1f4b;" horiz-adv-x="1466" d="M1054 1610q8 -14 8 -15q0 -4 -10 -12.5t-23 -16.5t-26 -14.5t-19 -6.5q-3 0 -12 12l-240 339q-4 5 -4 11q0 9 17.5 19.5t46.5 28.5q23 15 37.5 24.5t23.5 9.5q3 0 6.5 -1.5t6.5 -7.5zM654 1548q-6 -2 -23.5 -3.5t-31.5 -1.5q-53 0 -94.5 17t-71 47t-45 70.5t-15.5 88.5 q0 44 14 82.5t42.5 67.5t71.5 45.5t101 16.5q16 0 31.5 -1t23.5 -3q11 -2 13.5 -11.5t2.5 -41.5q0 -27 -1 -42.5t-2.5 -23t-3 -9t-3.5 -1.5q-3 0 -14 1t-31 1q-38 0 -64.5 -7.5t-43 -21.5t-24 -33t-7.5 -42q0 -30 11.5 -53t30.5 -38t44 -22.5t52 -7.5q16 0 23.5 1.5 t12.5 1.5t8 -9.5t3 -44.5q0 -11 -2 -16t-8 -7zM287 711q0 -141 36 -250.5t97.5 -184.5t143.5 -114t173 -39q90 0 170 38.5t140 112t95.5 180t35.5 243.5q0 141 -36.5 250.5t-98 184.5t-143.5 114t-173 39q-90 0 -170 -38.5t-140 -112t-95 -180t-35 -243.5zM99 696 q0 177 51 315t138.5 233t204 144.5t246.5 49.5q128 0 242 -48.5t199.5 -141.5t135.5 -228t50 -308q0 -177 -51.5 -315t-139 -233t-203.5 -144.5t-246 -49.5q-128 0 -242 48.5t-199.5 141.5t-135.5 228t-50 308z" />
<glyph unicode="&#x1f43;" horiz-adv-x="1466" d="M1054 1610q8 -14 8 -15q0 -4 -10 -12.5t-23 -16.5t-26 -14.5t-19 -6.5q-3 0 -12 12l-240 339q-4 5 -4 11q0 9 17.5 19.5t46.5 28.5q23 15 37.5 24.5t23.5 9.5q3 0 6.5 -1.5t6.5 -7.5zM654 1548q-6 -2 -23.5 -3.5t-31.5 -1.5q-53 0 -94.5 17t-71 47t-45 70.5t-15.5 88.5 q0 44 14 82.5t42.5 67.5t71.5 45.5t101 16.5q16 0 31.5 -1t23.5 -3q11 -2 13.5 -11.5t2.5 -41.5q0 -27 -1 -42.5t-2.5 -23t-3 -9t-3.5 -1.5q-3 0 -14 1t-31 1q-38 0 -64.5 -7.5t-43 -21.5t-24 -33t-7.5 -42q0 -30 11.5 -53t30.5 -38t44 -22.5t52 -7.5q16 0 23.5 1.5 t12.5 1.5t8 -9.5t3 -44.5q0 -11 -2 -16t-8 -7zM287 711q0 -141 36 -250.5t97.5 -184.5t143.5 -114t173 -39q90 0 170 38.5t140 112t95.5 180t35.5 243.5q0 141 -36.5 250.5t-98 184.5t-143.5 114t-173 39q-90 0 -170 -38.5t-140 -112t-95 -180t-35 -243.5zM99 696 q0 177 51 315t138.5 233t204 144.5t246.5 49.5q128 0 242 -48.5t199.5 -141.5t135.5 -228t50 -308q0 -177 -51.5 -315t-139 -233t-203.5 -144.5t-246 -49.5q-128 0 -242 48.5t-199.5 141.5t-135.5 228t-50 308z" />
<glyph unicode="&#x1f4c;" horiz-adv-x="1466" d="M480 1549q-6 2 -8 7t-2 16q0 35 3 44.5t8 9.5t12.5 -1.5t23.5 -1.5q27 0 52 7.5t44 22.5t30.5 38t11.5 53q0 46 -31.5 75t-107.5 29q-20 0 -31 -1t-14 -1q-2 0 -3.5 1.5t-3 9t-2.5 23t-1 42.5q0 32 2.5 41.5t13.5 11.5q8 2 23.5 3t31.5 1q111 0 170.5 -55.5t59.5 -152.5 q0 -51 -17 -92.5t-47 -71.5t-72 -46.5t-91 -16.5q-14 0 -31.5 1.5t-23.5 3.5zM998 1980q3 6 6.5 7.5t6.5 1.5q9 0 23.5 -9.5t37.5 -24.5q29 -18 46.5 -28.5t17.5 -19.5q0 -6 -4 -11l-250 -339q-9 -12 -12 -12q-6 0 -19.5 6.5t-27 14.5t-23.5 16.5t-10 12.5q0 1 8 15z M287 711q0 -141 36 -250.5t97.5 -184.5t143.5 -114t173 -39q90 0 170 38.5t140 112t95.5 180t35.5 243.5q0 141 -36.5 250.5t-98 184.5t-143.5 114t-173 39q-90 0 -170 -38.5t-140 -112t-95 -180t-35 -243.5zM99 696q0 177 51 315t138.5 233t204 144.5t246.5 49.5 q128 0 242 -48.5t199.5 -141.5t135.5 -228t50 -308q0 -177 -51.5 -315t-139 -233t-203.5 -144.5t-246 -49.5q-128 0 -242 48.5t-199.5 141.5t-135.5 228t-50 308z" />
<glyph unicode="&#x1f44;" horiz-adv-x="1466" d="M480 1549q-6 2 -8 7t-2 16q0 35 3 44.5t8 9.5t12.5 -1.5t23.5 -1.5q27 0 52 7.5t44 22.5t30.5 38t11.5 53q0 46 -31.5 75t-107.5 29q-20 0 -31 -1t-14 -1q-2 0 -3.5 1.5t-3 9t-2.5 23t-1 42.5q0 32 2.5 41.5t13.5 11.5q8 2 23.5 3t31.5 1q111 0 170.5 -55.5t59.5 -152.5 q0 -51 -17 -92.5t-47 -71.5t-72 -46.5t-91 -16.5q-14 0 -31.5 1.5t-23.5 3.5zM998 1980q3 6 6.5 7.5t6.5 1.5q9 0 23.5 -9.5t37.5 -24.5q29 -18 46.5 -28.5t17.5 -19.5q0 -6 -4 -11l-250 -339q-9 -12 -12 -12q-6 0 -19.5 6.5t-27 14.5t-23.5 16.5t-10 12.5q0 1 8 15z M287 711q0 -141 36 -250.5t97.5 -184.5t143.5 -114t173 -39q90 0 170 38.5t140 112t95.5 180t35.5 243.5q0 141 -36.5 250.5t-98 184.5t-143.5 114t-173 39q-90 0 -170 -38.5t-140 -112t-95 -180t-35 -243.5zM99 696q0 177 51 315t138.5 233t204 144.5t246.5 49.5 q128 0 242 -48.5t199.5 -141.5t135.5 -228t50 -308q0 -177 -51.5 -315t-139 -233t-203.5 -144.5t-246 -49.5q-128 0 -242 48.5t-199.5 141.5t-135.5 228t-50 308z" />
<glyph unicode="&#x1f4d;" horiz-adv-x="1466" d="M714 1553q-6 -2 -23.5 -3.5t-31.5 -1.5q-53 0 -94.5 16.5t-71 45.5t-45 69t-15.5 88q0 44 14 82.5t42.5 67.5t71.5 45.5t101 16.5q16 0 31.5 -1t23.5 -3q11 -2 13.5 -11.5t2.5 -41.5q0 -27 -1 -42.5t-2.5 -23t-3 -9t-3.5 -1.5q-3 0 -14 1t-31 1q-38 0 -64.5 -7.5 t-43 -21.5t-24 -33t-7.5 -42q0 -30 11.5 -52.5t30.5 -36.5t44 -21t52 -7q16 0 23.5 1.5t12.5 1.5t8 -9.5t3 -44.5q0 -11 -2 -16t-8 -7zM998 1980q3 6 6.5 7.5t6.5 1.5q9 0 23.5 -9.5t37.5 -24.5q29 -18 46.5 -28.5t17.5 -19.5q0 -6 -4 -11l-250 -339q-9 -12 -12 -12 q-6 0 -19.5 6.5t-27 14.5t-23.5 16.5t-10 12.5q0 1 8 15zM287 711q0 -141 36 -250.5t97.5 -184.5t143.5 -114t173 -39q90 0 170 38.5t140 112t95.5 180t35.5 243.5q0 141 -36.5 250.5t-98 184.5t-143.5 114t-173 39q-90 0 -170 -38.5t-140 -112t-95 -180t-35 -243.5zM99 696 q0 177 51 315t138.5 233t204 144.5t246.5 49.5q128 0 242 -48.5t199.5 -141.5t135.5 -228t50 -308q0 -177 -51.5 -315t-139 -233t-203.5 -144.5t-246 -49.5q-128 0 -242 48.5t-199.5 141.5t-135.5 228t-50 308z" />
<glyph unicode="&#x1f45;" horiz-adv-x="1466" d="M714 1553q-6 -2 -23.5 -3.5t-31.5 -1.5q-53 0 -94.5 16.5t-71 45.5t-45 69t-15.5 88q0 44 14 82.5t42.5 67.5t71.5 45.5t101 16.5q16 0 31.5 -1t23.5 -3q11 -2 13.5 -11.5t2.5 -41.5q0 -27 -1 -42.5t-2.5 -23t-3 -9t-3.5 -1.5q-3 0 -14 1t-31 1q-38 0 -64.5 -7.5 t-43 -21.5t-24 -33t-7.5 -42q0 -30 11.5 -52.5t30.5 -36.5t44 -21t52 -7q16 0 23.5 1.5t12.5 1.5t8 -9.5t3 -44.5q0 -11 -2 -16t-8 -7zM998 1980q3 6 6.5 7.5t6.5 1.5q9 0 23.5 -9.5t37.5 -24.5q29 -18 46.5 -28.5t17.5 -19.5q0 -6 -4 -11l-250 -339q-9 -12 -12 -12 q-6 0 -19.5 6.5t-27 14.5t-23.5 16.5t-10 12.5q0 1 8 15zM287 711q0 -141 36 -250.5t97.5 -184.5t143.5 -114t173 -39q90 0 170 38.5t140 112t95.5 180t35.5 243.5q0 141 -36.5 250.5t-98 184.5t-143.5 114t-173 39q-90 0 -170 -38.5t-140 -112t-95 -180t-35 -243.5zM99 696 q0 177 51 315t138.5 233t204 144.5t246.5 49.5q128 0 242 -48.5t199.5 -141.5t135.5 -228t50 -308q0 -177 -51.5 -315t-139 -233t-203.5 -144.5t-246 -49.5q-128 0 -242 48.5t-199.5 141.5t-135.5 228t-50 308z" />
<glyph unicode="&#x1f50;" horiz-adv-x="1215" d="M607 0q-20 0 -33 -0.5t-22 -0.5t-14.5 -0.5t-11.5 -0.5q-15 0 -18 12q-4 13 -58.5 172.5t-154.5 456.5q-58 173 -106 311.5t-83 236.5t-54.5 151.5t-19.5 57.5q0 5 4 9.5t10 4.5q9 0 29 -1t68 -1t66 1t27 1q14 0 18 -15q3 -14 53.5 -186.5t152.5 -499.5 q27 -86 47.5 -150.5t38.5 -118.5t35 -103t36 -105h4q18 55 34.5 105.5t34 105.5t37.5 118.5t46 145.5q103 327 152.5 500.5t52.5 187.5q4 15 19 15q8 0 24 -1t57 -1q46 0 64 1t26 1q6 0 10 -4.5t4 -9.5q0 -3 -10.5 -33t-28.5 -82t-43 -122.5t-54 -154t-61 -176.5t-64 -190 q-100 -297 -156 -456t-60 -172q-3 -12 -18 -12q-12 0 -27.5 1t-52.5 1zM504 1549q-6 2 -8 7t-2 16q0 35 3 44.5t8 9.5t12.5 -1.5t23.5 -1.5q30 0 57.5 7.5t49 22.5t34 38t12.5 53q0 23 -8 42t-26.5 33t-48 21.5t-71.5 7.5q-20 0 -31 -1t-14 -1q-2 0 -3.5 1.5t-3 9t-2.5 23 t-1 42.5q0 32 2.5 41.5t13.5 11.5q8 2 23.5 3t31.5 1q121 0 185.5 -55.5t64.5 -152.5q0 -51 -18 -92.5t-50.5 -71.5t-77 -46.5t-97.5 -16.5q-15 0 -33.5 1.5t-25.5 3.5z" />
<glyph unicode="&#x1f59;" horiz-adv-x="1215" d="M607 0q-20 0 -33 -0.5t-22 -0.5t-14.5 -0.5t-11.5 -0.5q-15 0 -18 12q-4 13 -58.5 172.5t-154.5 456.5q-58 173 -106 311.5t-83 236.5t-54.5 151.5t-19.5 57.5q0 5 4 9.5t10 4.5q9 0 29 -1t68 -1t66 1t27 1q14 0 18 -15q3 -14 53.5 -186.5t152.5 -499.5 q27 -86 47.5 -150.5t38.5 -118.5t35 -103t36 -105h4q18 55 34.5 105.5t34 105.5t37.5 118.5t46 145.5q103 327 152.5 500.5t52.5 187.5q4 15 19 15q8 0 24 -1t57 -1q46 0 64 1t26 1q6 0 10 -4.5t4 -9.5q0 -3 -10.5 -33t-28.5 -82t-43 -122.5t-54 -154t-61 -176.5t-64 -190 q-100 -297 -156 -456t-60 -172q-3 -12 -18 -12q-12 0 -27.5 1t-52.5 1zM710 1549q-7 -2 -25.5 -3.5t-33.5 -1.5q-54 0 -99 16.5t-77 45.5t-49.5 70t-17.5 91q0 45 15.5 84t47 67.5t78.5 44.5t109 16q16 0 31.5 -1t23.5 -3q11 -2 13.5 -11.5t2.5 -41.5q0 -27 -1 -42.5 t-2.5 -23t-3 -9t-3.5 -1.5q-3 0 -14 1t-31 1q-42 0 -71.5 -7.5t-48 -21.5t-26.5 -33t-8 -42q0 -30 12.5 -53t34 -38t49 -22.5t57.5 -7.5q16 0 23.5 1.5t12.5 1.5t8 -9.5t3 -44.5q0 -11 -2 -16t-8 -7z" />
<glyph unicode="&#x1f51;" horiz-adv-x="1215" d="M607 0q-20 0 -33 -0.5t-22 -0.5t-14.5 -0.5t-11.5 -0.5q-15 0 -18 12q-4 13 -58.5 172.5t-154.5 456.5q-58 173 -106 311.5t-83 236.5t-54.5 151.5t-19.5 57.5q0 5 4 9.5t10 4.5q9 0 29 -1t68 -1t66 1t27 1q14 0 18 -15q3 -14 53.5 -186.5t152.5 -499.5 q27 -86 47.5 -150.5t38.5 -118.5t35 -103t36 -105h4q18 55 34.5 105.5t34 105.5t37.5 118.5t46 145.5q103 327 152.5 500.5t52.5 187.5q4 15 19 15q8 0 24 -1t57 -1q46 0 64 1t26 1q6 0 10 -4.5t4 -9.5q0 -3 -10.5 -33t-28.5 -82t-43 -122.5t-54 -154t-61 -176.5t-64 -190 q-100 -297 -156 -456t-60 -172q-3 -12 -18 -12q-12 0 -27.5 1t-52.5 1zM710 1549q-7 -2 -25.5 -3.5t-33.5 -1.5q-54 0 -99 16.5t-77 45.5t-49.5 70t-17.5 91q0 45 15.5 84t47 67.5t78.5 44.5t109 16q16 0 31.5 -1t23.5 -3q11 -2 13.5 -11.5t2.5 -41.5q0 -27 -1 -42.5 t-2.5 -23t-3 -9t-3.5 -1.5q-3 0 -14 1t-31 1q-42 0 -71.5 -7.5t-48 -21.5t-26.5 -33t-8 -42q0 -30 12.5 -53t34 -38t49 -22.5t57.5 -7.5q16 0 23.5 1.5t12.5 1.5t8 -9.5t3 -44.5q0 -11 -2 -16t-8 -7z" />
<glyph unicode="&#x1f52;" horiz-adv-x="1215" d="M307 1549q-6 2 -8 7t-2 16q0 35 3 44.5t8 9.5t12.5 -1.5t23.5 -1.5q27 0 52 7.5t44 22.5t30.5 38t11.5 53q0 46 -31.5 75t-107.5 29q-20 0 -31 -1t-14 -1q-2 0 -3.5 1.5t-3 9t-2.5 23t-1 42.5q0 32 2.5 41.5t13.5 11.5q8 2 23.5 3t31.5 1q111 0 170.5 -55.5t59.5 -152.5 q0 -51 -17 -92.5t-47 -71.5t-72 -46.5t-91 -16.5q-14 0 -31.5 1.5t-23.5 3.5zM953 1610q8 -14 8 -15q0 -4 -10 -12.5t-23 -16.5t-26 -14.5t-19 -6.5q-3 0 -12 12l-240 339q-4 5 -4 11q0 9 17.5 19.5t46.5 28.5q23 15 37.5 24.5t23.5 9.5q3 0 6.5 -1.5t6.5 -7.5zM607 0 q-20 0 -33 -0.5t-22 -0.5t-14.5 -0.5t-11.5 -0.5q-15 0 -18 12q-4 13 -58.5 172.5t-154.5 456.5q-58 173 -106 311.5t-83 236.5t-54.5 151.5t-19.5 57.5q0 5 4 9.5t10 4.5q9 0 29 -1t68 -1t66 1t27 1q14 0 18 -15q3 -14 53.5 -186.5t152.5 -499.5q27 -86 47.5 -150.5 t38.5 -118.5t35 -103t36 -105h4q18 55 34.5 105.5t34 105.5t37.5 118.5t46 145.5q103 327 152.5 500.5t52.5 187.5q4 15 19 15q8 0 24 -1t57 -1q46 0 64 1t26 1q6 0 10 -4.5t4 -9.5q0 -3 -10.5 -33t-28.5 -82t-43 -122.5t-54 -154t-61 -176.5t-64 -190q-100 -297 -156 -456 t-60 -172q-3 -12 -18 -12q-12 0 -27.5 1t-52.5 1z" />
<glyph unicode="&#x1f5b;" horiz-adv-x="1215" d="M928 1610q8 -14 8 -15q0 -4 -10 -12.5t-23 -16.5t-26 -14.5t-19 -6.5q-3 0 -12 12l-240 339q-4 5 -4 11q0 9 17.5 19.5t46.5 28.5q23 15 37.5 24.5t23.5 9.5q3 0 6.5 -1.5t6.5 -7.5zM528 1548q-6 -2 -23.5 -3.5t-31.5 -1.5q-53 0 -94.5 17t-71 47t-45 70.5t-15.5 88.5 q0 44 14 82.5t42.5 67.5t71.5 45.5t101 16.5q16 0 31.5 -1t23.5 -3q11 -2 13.5 -11.5t2.5 -41.5q0 -27 -1 -42.5t-2.5 -23t-3 -9t-3.5 -1.5q-3 0 -14 1t-31 1q-38 0 -64.5 -7.5t-43 -21.5t-24 -33t-7.5 -42q0 -30 11.5 -53t30.5 -38t44 -22.5t52 -7.5q16 0 23.5 1.5 t12.5 1.5t8 -9.5t3 -44.5q0 -11 -2 -16t-8 -7zM607 0q-20 0 -33 -0.5t-22 -0.5t-14.5 -0.5t-11.5 -0.5q-15 0 -18 12q-4 13 -58.5 172.5t-154.5 456.5q-58 173 -106 311.5t-83 236.5t-54.5 151.5t-19.5 57.5q0 5 4 9.5t10 4.5q9 0 29 -1t68 -1t66 1t27 1q14 0 18 -15 q3 -14 53.5 -186.5t152.5 -499.5q27 -86 47.5 -150.5t38.5 -118.5t35 -103t36 -105h4q18 55 34.5 105.5t34 105.5t37.5 118.5t46 145.5q103 327 152.5 500.5t52.5 187.5q4 15 19 15q8 0 24 -1t57 -1q46 0 64 1t26 1q6 0 10 -4.5t4 -9.5q0 -3 -10.5 -33t-28.5 -82t-43 -122.5 t-54 -154t-61 -176.5t-64 -190q-100 -297 -156 -456t-60 -172q-3 -12 -18 -12q-12 0 -27.5 1t-52.5 1z" />
<glyph unicode="&#x1f53;" horiz-adv-x="1215" d="M928 1610q8 -14 8 -15q0 -4 -10 -12.5t-23 -16.5t-26 -14.5t-19 -6.5q-3 0 -12 12l-240 339q-4 5 -4 11q0 9 17.5 19.5t46.5 28.5q23 15 37.5 24.5t23.5 9.5q3 0 6.5 -1.5t6.5 -7.5zM528 1548q-6 -2 -23.5 -3.5t-31.5 -1.5q-53 0 -94.5 17t-71 47t-45 70.5t-15.5 88.5 q0 44 14 82.5t42.5 67.5t71.5 45.5t101 16.5q16 0 31.5 -1t23.5 -3q11 -2 13.5 -11.5t2.5 -41.5q0 -27 -1 -42.5t-2.5 -23t-3 -9t-3.5 -1.5q-3 0 -14 1t-31 1q-38 0 -64.5 -7.5t-43 -21.5t-24 -33t-7.5 -42q0 -30 11.5 -53t30.5 -38t44 -22.5t52 -7.5q16 0 23.5 1.5 t12.5 1.5t8 -9.5t3 -44.5q0 -11 -2 -16t-8 -7zM607 0q-20 0 -33 -0.5t-22 -0.5t-14.5 -0.5t-11.5 -0.5q-15 0 -18 12q-4 13 -58.5 172.5t-154.5 456.5q-58 173 -106 311.5t-83 236.5t-54.5 151.5t-19.5 57.5q0 5 4 9.5t10 4.5q9 0 29 -1t68 -1t66 1t27 1q14 0 18 -15 q3 -14 53.5 -186.5t152.5 -499.5q27 -86 47.5 -150.5t38.5 -118.5t35 -103t36 -105h4q18 55 34.5 105.5t34 105.5t37.5 118.5t46 145.5q103 327 152.5 500.5t52.5 187.5q4 15 19 15q8 0 24 -1t57 -1q46 0 64 1t26 1q6 0 10 -4.5t4 -9.5q0 -3 -10.5 -33t-28.5 -82t-43 -122.5 t-54 -154t-61 -176.5t-64 -190q-100 -297 -156 -456t-60 -172q-3 -12 -18 -12q-12 0 -27.5 1t-52.5 1z" />
<glyph unicode="&#x1f54;" horiz-adv-x="1215" d="M354 1549q-6 2 -8 7t-2 16q0 35 3 44.5t8 9.5t12.5 -1.5t23.5 -1.5q27 0 52 7.5t44 22.5t30.5 38t11.5 53q0 46 -31.5 75t-107.5 29q-20 0 -31 -1t-14 -1q-2 0 -3.5 1.5t-3 9t-2.5 23t-1 42.5q0 32 2.5 41.5t13.5 11.5q8 2 23.5 3t31.5 1q111 0 170.5 -55.5t59.5 -152.5 q0 -51 -17 -92.5t-47 -71.5t-72 -46.5t-91 -16.5q-14 0 -31.5 1.5t-23.5 3.5zM872 1980q3 6 6.5 7.5t6.5 1.5q9 0 23.5 -9.5t37.5 -24.5q29 -18 46.5 -28.5t17.5 -19.5q0 -6 -4 -11l-250 -339q-9 -12 -12 -12q-6 0 -19.5 6.5t-27 14.5t-23.5 16.5t-10 12.5q0 1 8 15zM607 0 q-20 0 -33 -0.5t-22 -0.5t-14.5 -0.5t-11.5 -0.5q-15 0 -18 12q-4 13 -58.5 172.5t-154.5 456.5q-58 173 -106 311.5t-83 236.5t-54.5 151.5t-19.5 57.5q0 5 4 9.5t10 4.5q9 0 29 -1t68 -1t66 1t27 1q14 0 18 -15q3 -14 53.5 -186.5t152.5 -499.5q27 -86 47.5 -150.5 t38.5 -118.5t35 -103t36 -105h4q18 55 34.5 105.5t34 105.5t37.5 118.5t46 145.5q103 327 152.5 500.5t52.5 187.5q4 15 19 15q8 0 24 -1t57 -1q46 0 64 1t26 1q6 0 10 -4.5t4 -9.5q0 -3 -10.5 -33t-28.5 -82t-43 -122.5t-54 -154t-61 -176.5t-64 -190q-100 -297 -156 -456 t-60 -172q-3 -12 -18 -12q-12 0 -27.5 1t-52.5 1z" />
<glyph unicode="&#x1f5d;" horiz-adv-x="1215" d="M588 1553q-6 -2 -23.5 -3.5t-31.5 -1.5q-53 0 -94.5 16.5t-71 45.5t-45 69t-15.5 88q0 44 14 82.5t42.5 67.5t71.5 45.5t101 16.5q16 0 31.5 -1t23.5 -3q11 -2 13.5 -11.5t2.5 -41.5q0 -27 -1 -42.5t-2.5 -23t-3 -9t-3.5 -1.5q-3 0 -14 1t-31 1q-38 0 -64.5 -7.5 t-43 -21.5t-24 -33t-7.5 -42q0 -30 11.5 -52.5t30.5 -36.5t44 -21t52 -7q16 0 23.5 1.5t12.5 1.5t8 -9.5t3 -44.5q0 -11 -2 -16t-8 -7zM872 1980q3 6 6.5 7.5t6.5 1.5q9 0 23.5 -9.5t37.5 -24.5q29 -18 46.5 -28.5t17.5 -19.5q0 -6 -4 -11l-250 -339q-9 -12 -12 -12 q-6 0 -19.5 6.5t-27 14.5t-23.5 16.5t-10 12.5q0 1 8 15zM607 0q-20 0 -33 -0.5t-22 -0.5t-14.5 -0.5t-11.5 -0.5q-15 0 -18 12q-4 13 -58.5 172.5t-154.5 456.5q-58 173 -106 311.5t-83 236.5t-54.5 151.5t-19.5 57.5q0 5 4 9.5t10 4.5q9 0 29 -1t68 -1t66 1t27 1 q14 0 18 -15q3 -14 53.5 -186.5t152.5 -499.5q27 -86 47.5 -150.5t38.5 -118.5t35 -103t36 -105h4q18 55 34.5 105.5t34 105.5t37.5 118.5t46 145.5q103 327 152.5 500.5t52.5 187.5q4 15 19 15q8 0 24 -1t57 -1q46 0 64 1t26 1q6 0 10 -4.5t4 -9.5q0 -3 -10.5 -33 t-28.5 -82t-43 -122.5t-54 -154t-61 -176.5t-64 -190q-100 -297 -156 -456t-60 -172q-3 -12 -18 -12q-12 0 -27.5 1t-52.5 1z" />
<glyph unicode="&#x1f55;" horiz-adv-x="1215" d="M588 1553q-6 -2 -23.5 -3.5t-31.5 -1.5q-53 0 -94.5 16.5t-71 45.5t-45 69t-15.5 88q0 44 14 82.5t42.5 67.5t71.5 45.5t101 16.5q16 0 31.5 -1t23.5 -3q11 -2 13.5 -11.5t2.5 -41.5q0 -27 -1 -42.5t-2.5 -23t-3 -9t-3.5 -1.5q-3 0 -14 1t-31 1q-38 0 -64.5 -7.5 t-43 -21.5t-24 -33t-7.5 -42q0 -30 11.5 -52.5t30.5 -36.5t44 -21t52 -7q16 0 23.5 1.5t12.5 1.5t8 -9.5t3 -44.5q0 -11 -2 -16t-8 -7zM872 1980q3 6 6.5 7.5t6.5 1.5q9 0 23.5 -9.5t37.5 -24.5q29 -18 46.5 -28.5t17.5 -19.5q0 -6 -4 -11l-250 -339q-9 -12 -12 -12 q-6 0 -19.5 6.5t-27 14.5t-23.5 16.5t-10 12.5q0 1 8 15zM607 0q-20 0 -33 -0.5t-22 -0.5t-14.5 -0.5t-11.5 -0.5q-15 0 -18 12q-4 13 -58.5 172.5t-154.5 456.5q-58 173 -106 311.5t-83 236.5t-54.5 151.5t-19.5 57.5q0 5 4 9.5t10 4.5q9 0 29 -1t68 -1t66 1t27 1 q14 0 18 -15q3 -14 53.5 -186.5t152.5 -499.5q27 -86 47.5 -150.5t38.5 -118.5t35 -103t36 -105h4q18 55 34.5 105.5t34 105.5t37.5 118.5t46 145.5q103 327 152.5 500.5t52.5 187.5q4 15 19 15q8 0 24 -1t57 -1q46 0 64 1t26 1q6 0 10 -4.5t4 -9.5q0 -3 -10.5 -33 t-28.5 -82t-43 -122.5t-54 -154t-61 -176.5t-64 -190q-100 -297 -156 -456t-60 -172q-3 -12 -18 -12q-12 0 -27.5 1t-52.5 1z" />
<glyph unicode="&#x1f56;" horiz-adv-x="1215" d="M509 1549q-6 2 -8 7t-2 16q0 35 3 44.5t8 9.5t12.5 -1.5t23.5 -1.5q28 0 54 7t45.5 21.5t31.5 36t12 50.5q0 21 -7 38.5t-23 30t-42.5 19.5t-66.5 7q-20 0 -31 -1t-14 -1q-2 0 -3.5 1.5t-3 8.5t-2.5 21t-1 40q0 31 2.5 39.5t13.5 10.5q10 2 26.5 4t41.5 2q38 0 77.5 -9.5 t71.5 -32.5t52.5 -61t20.5 -94q0 -48 -17.5 -88t-48.5 -68.5t-73.5 -44.5t-93.5 -16q-15 0 -33.5 1.5t-25.5 3.5zM902 1874q-2 0 -5 1.5t-7 9.5q-9 19 -26 49.5t-48.5 59t-81.5 49t-126 20.5q-75 0 -125.5 -20t-82.5 -48.5t-49.5 -59t-26.5 -50.5q-4 -8 -7 -9.5t-5 -1.5 q-6 0 -19.5 4t-27.5 10t-25 12.5t-11 11.5q0 2 1.5 7t3.5 10q8 21 20 49.5t31.5 59t47.5 59.5t68 52t92.5 37t120.5 14q69 0 121 -14t90.5 -37t65 -52.5t44 -59.5t28.5 -58.5t18 -50.5q2 -5 3 -9t1 -6q0 -5 -11 -12t-25 -13t-27.5 -10t-19.5 -4zM607 0q-20 0 -33 -0.5 t-22 -0.5t-14.5 -0.5t-11.5 -0.5q-15 0 -18 12q-4 13 -58.5 172.5t-154.5 456.5q-58 173 -106 311.5t-83 236.5t-54.5 151.5t-19.5 57.5q0 5 4 9.5t10 4.5q9 0 29 -1t68 -1t66 1t27 1q14 0 18 -15q3 -14 53.5 -186.5t152.5 -499.5q27 -86 47.5 -150.5t38.5 -118.5t35 -103 t36 -105h4q18 55 34.5 105.5t34 105.5t37.5 118.5t46 145.5q103 327 152.5 500.5t52.5 187.5q4 15 19 15q8 0 24 -1t57 -1q46 0 64 1t26 1q6 0 10 -4.5t4 -9.5q0 -3 -10.5 -33t-28.5 -82t-43 -122.5t-54 -154t-61 -176.5t-64 -190q-100 -297 -156 -456t-60 -172 q-3 -12 -18 -12q-12 0 -27.5 1t-52.5 1z" />
<glyph unicode="&#x1f5f;" horiz-adv-x="1215" d="M705 1549q-7 -2 -25.5 -3.5t-33.5 -1.5q-50 0 -92.5 15t-73.5 42t-49 65.5t-18 85.5q0 49 17 87.5t48 64.5t74.5 40t95.5 14q37 0 55 -5q11 -2 13.5 -11t2.5 -40q0 -26 -1 -40t-2.5 -21t-3 -8.5t-3.5 -1.5q-3 0 -14 1t-31 1q-40 0 -66.5 -7t-42.5 -19.5t-23 -30t-7 -38.5 q0 -29 12 -50.5t31.5 -36t45.5 -21.5t54 -7q16 0 23.5 1.5t12.5 1.5t8 -9.5t3 -44.5q0 -11 -2 -16t-8 -7zM904 1874q-2 0 -5 1.5t-7 9.5q-9 19 -26 49.5t-48.5 59t-81.5 49t-126 20.5q-75 0 -125.5 -20t-82.5 -48.5t-49.5 -59t-26.5 -50.5q-4 -8 -7 -9.5t-5 -1.5 q-6 0 -19.5 4t-27.5 10t-25 12.5t-11 11.5q0 2 1.5 7t3.5 10q8 21 20 49.5t31.5 59t47.5 59.5t68 52t92.5 37t120.5 14q69 0 121 -14t90.5 -37t65 -52.5t44 -59.5t28.5 -58.5t18 -50.5q2 -5 3 -9t1 -6q0 -5 -11 -12t-25 -13t-27.5 -10t-19.5 -4zM607 0q-20 0 -33 -0.5 t-22 -0.5t-14.5 -0.5t-11.5 -0.5q-15 0 -18 12q-4 13 -58.5 172.5t-154.5 456.5q-58 173 -106 311.5t-83 236.5t-54.5 151.5t-19.5 57.5q0 5 4 9.5t10 4.5q9 0 29 -1t68 -1t66 1t27 1q14 0 18 -15q3 -14 53.5 -186.5t152.5 -499.5q27 -86 47.5 -150.5t38.5 -118.5t35 -103 t36 -105h4q18 55 34.5 105.5t34 105.5t37.5 118.5t46 145.5q103 327 152.5 500.5t52.5 187.5q4 15 19 15q8 0 24 -1t57 -1q46 0 64 1t26 1q6 0 10 -4.5t4 -9.5q0 -3 -10.5 -33t-28.5 -82t-43 -122.5t-54 -154t-61 -176.5t-64 -190q-100 -297 -156 -456t-60 -172 q-3 -12 -18 -12q-12 0 -27.5 1t-52.5 1z" />
<glyph unicode="&#x1f57;" horiz-adv-x="1215" d="M705 1549q-7 -2 -25.5 -3.5t-33.5 -1.5q-50 0 -92.5 15t-73.5 42t-49 65.5t-18 85.5q0 49 17 87.5t48 64.5t74.5 40t95.5 14q37 0 55 -5q11 -2 13.5 -11t2.5 -40q0 -26 -1 -40t-2.5 -21t-3 -8.5t-3.5 -1.5q-3 0 -14 1t-31 1q-40 0 -66.5 -7t-42.5 -19.5t-23 -30t-7 -38.5 q0 -29 12 -50.5t31.5 -36t45.5 -21.5t54 -7q16 0 23.5 1.5t12.5 1.5t8 -9.5t3 -44.5q0 -11 -2 -16t-8 -7zM904 1874q-2 0 -5 1.5t-7 9.5q-9 19 -26 49.5t-48.5 59t-81.5 49t-126 20.5q-75 0 -125.5 -20t-82.5 -48.5t-49.5 -59t-26.5 -50.5q-4 -8 -7 -9.5t-5 -1.5 q-6 0 -19.5 4t-27.5 10t-25 12.5t-11 11.5q0 2 1.5 7t3.5 10q8 21 20 49.5t31.5 59t47.5 59.5t68 52t92.5 37t120.5 14q69 0 121 -14t90.5 -37t65 -52.5t44 -59.5t28.5 -58.5t18 -50.5q2 -5 3 -9t1 -6q0 -5 -11 -12t-25 -13t-27.5 -10t-19.5 -4zM607 0q-20 0 -33 -0.5 t-22 -0.5t-14.5 -0.5t-11.5 -0.5q-15 0 -18 12q-4 13 -58.5 172.5t-154.5 456.5q-58 173 -106 311.5t-83 236.5t-54.5 151.5t-19.5 57.5q0 5 4 9.5t10 4.5q9 0 29 -1t68 -1t66 1t27 1q14 0 18 -15q3 -14 53.5 -186.5t152.5 -499.5q27 -86 47.5 -150.5t38.5 -118.5t35 -103 t36 -105h4q18 55 34.5 105.5t34 105.5t37.5 118.5t46 145.5q103 327 152.5 500.5t52.5 187.5q4 15 19 15q8 0 24 -1t57 -1q46 0 64 1t26 1q6 0 10 -4.5t4 -9.5q0 -3 -10.5 -33t-28.5 -82t-43 -122.5t-54 -154t-61 -176.5t-64 -190q-100 -297 -156 -456t-60 -172 q-3 -12 -18 -12q-12 0 -27.5 1t-52.5 1z" />
<glyph unicode="&#x1f68;" horiz-adv-x="1781" d="M882 213q-31 -79 -74 -126.5t-90 -73.5t-94.5 -34.5t-86.5 -8.5q-108 0 -190.5 44.5t-138.5 122.5t-84.5 183.5t-28.5 228.5q0 112 21.5 214t55 190.5t74 162t77.5 129t66.5 91t40.5 48.5q29 33 41 41.5t14 8.5q7 0 26.5 -13.5t40.5 -30.5t37.5 -32.5t16.5 -19.5t-24 -31 t-60 -75t-77.5 -116t-77.5 -153.5t-60 -186.5t-24 -216q0 -95 18 -174.5t53 -137.5t85.5 -90.5t115.5 -32.5q50 0 88 19t64.5 50.5t44 71.5t27.5 82t14 83t4 74q0 21 -1 42.5t-1 28.5q0 9 3.5 13t15.5 4q7 0 23.5 -1t52.5 -1t52.5 1t23.5 1q19 0 19 -15q0 -6 -1 -28t-1 -45 q0 -35 4 -77t14.5 -84t28 -81.5t44.5 -70t64.5 -49t87.5 -18.5q65 0 115.5 31.5t85 88.5t52.5 135.5t18 172.5q0 114 -24 215.5t-60.5 187.5t-79 154.5t-79 117.5t-60.5 76.5t-24 31.5q0 6 17 22t38.5 33t42 30t27.5 13q1 0 12 -8t41 -41q11 -13 40.5 -48t67 -90t78 -127.5 t74 -160.5t55.5 -189.5t22 -213.5q0 -122 -28.5 -228.5t-85 -186t-141.5 -125.5t-197 -46q-70 0 -125 18t-97.5 50t-73 77t-51.5 98h-4zM787 1549q-6 2 -8 7t-2 16q0 35 3 44.5t8 9.5t12.5 -1.5t23.5 -1.5q30 0 57.5 7.5t49 22.5t34 38t12.5 53q0 23 -8 42t-26.5 33 t-48 21.5t-71.5 7.5q-20 0 -31 -1t-14 -1q-2 0 -3.5 1.5t-3 9t-2.5 23t-1 42.5q0 32 2.5 41.5t13.5 11.5q8 2 23.5 3t31.5 1q121 0 185.5 -55.5t64.5 -152.5q0 -51 -18 -92.5t-50.5 -71.5t-77 -46.5t-97.5 -16.5q-15 0 -33.5 1.5t-25.5 3.5z" />
<glyph unicode="&#x1f60;" horiz-adv-x="1781" d="M882 213q-31 -79 -74 -126.5t-90 -73.5t-94.5 -34.5t-86.5 -8.5q-108 0 -190.5 44.5t-138.5 122.5t-84.5 183.5t-28.5 228.5q0 112 21.5 214t55 190.5t74 162t77.5 129t66.5 91t40.5 48.5q29 33 41 41.5t14 8.5q7 0 26.5 -13.5t40.5 -30.5t37.5 -32.5t16.5 -19.5t-24 -31 t-60 -75t-77.5 -116t-77.5 -153.5t-60 -186.5t-24 -216q0 -95 18 -174.5t53 -137.5t85.5 -90.5t115.5 -32.5q50 0 88 19t64.5 50.5t44 71.5t27.5 82t14 83t4 74q0 21 -1 42.5t-1 28.5q0 9 3.5 13t15.5 4q7 0 23.5 -1t52.5 -1t52.5 1t23.5 1q19 0 19 -15q0 -6 -1 -28t-1 -45 q0 -35 4 -77t14.5 -84t28 -81.5t44.5 -70t64.5 -49t87.5 -18.5q65 0 115.5 31.5t85 88.5t52.5 135.5t18 172.5q0 114 -24 215.5t-60.5 187.5t-79 154.5t-79 117.5t-60.5 76.5t-24 31.5q0 6 17 22t38.5 33t42 30t27.5 13q1 0 12 -8t41 -41q11 -13 40.5 -48t67 -90t78 -127.5 t74 -160.5t55.5 -189.5t22 -213.5q0 -122 -28.5 -228.5t-85 -186t-141.5 -125.5t-197 -46q-70 0 -125 18t-97.5 50t-73 77t-51.5 98h-4zM787 1549q-6 2 -8 7t-2 16q0 35 3 44.5t8 9.5t12.5 -1.5t23.5 -1.5q30 0 57.5 7.5t49 22.5t34 38t12.5 53q0 23 -8 42t-26.5 33 t-48 21.5t-71.5 7.5q-20 0 -31 -1t-14 -1q-2 0 -3.5 1.5t-3 9t-2.5 23t-1 42.5q0 32 2.5 41.5t13.5 11.5q8 2 23.5 3t31.5 1q121 0 185.5 -55.5t64.5 -152.5q0 -51 -18 -92.5t-50.5 -71.5t-77 -46.5t-97.5 -16.5q-15 0 -33.5 1.5t-25.5 3.5z" />
</font>
</defs>
</svg>
