<svg width="600" height="600" viewBox="0 0 600 600" fill="none" xmlns="http://www.w3.org/2000/svg">
<path d="M562.5 64.0125L535.988 37.5L37.5 535.988L64.0125 562.5L101.512 525H487.5C497.441 524.985 506.971 521.029 514 514C521.029 506.971 524.985 497.441 525 487.5V101.512L562.5 64.0125ZM487.5 487.5H139.012L285.131 341.381L329.738 385.988C336.77 393.018 346.306 396.967 356.25 396.967C366.194 396.967 375.73 393.018 382.762 385.988L412.5 356.25L487.5 431.194V487.5ZM487.5 378.15L439.012 329.663C431.98 322.632 422.444 318.683 412.5 318.683C402.556 318.683 393.02 322.632 385.988 329.663L356.25 359.4L311.681 314.831L487.5 139.012V378.15Z" fill="#E0D9C2"/>
<path d="M112.5 412.5V356.25L206.25 262.556L231.994 288.319L258.544 261.769L232.762 235.988C225.73 228.957 216.194 225.008 206.25 225.008C196.306 225.008 186.77 228.957 179.738 235.988L112.5 303.225V112.5H412.5V75H112.5C102.557 75.0099 93.0249 78.964 85.9945 85.9945C78.964 93.0249 75.0099 102.557 75 112.5V412.5H112.5Z" fill="#E0D9C2"/>
</svg>
